STARTFONT 2.1
COMMENT
COMMENT Converted from OpenType font "JF-Dot-MPlusH12.ttf" by "otf2bdf 3.0".
COMMENT
FONT -FreeType-JF Dot M+H 12-Medium-R-Normal--12-90-100-100-P-120-ISO10646-1
SIZE 9 100 100
FONTBOUNDINGBOX 14 15 -1 -4
STARTPROPERTIES 19
FOUNDRY "FreeType"
FAMILY_NAME "JF Dot M+H 12"
WEIGHT_NAME "Medium"
SLANT "R"
SETWIDTH_NAME "Normal"
ADD_STYLE_NAME ""
PIXEL_SIZE 12
POINT_SIZE 90
RESOLUTION_X 100
RESOLUTION_Y 100
SPACING "P"
AVERAGE_WIDTH 120
CHARSET_REGISTRY "ISO10646"
CHARSET_ENCODING "1"
FONT_ASCENT 11
FONT_DESCENT 4
COPYRIGHT "Copyright(c) 2005 M+ FONTS PROJECT"
_OTF_FONTFILE "JF-Dot-MPlusH12.ttf"
_OTF_PSNAME "JF-Dot-MPlusH-12-Regular"
ENDPROPERTIES
CHARS 7221
STARTCHAR 0020
ENCODING 32
SWIDTH 480 0
DWIDTH 6 0
BBX 0 0 0 0
BITMAP
ENDCHAR
STARTCHAR 0021
ENCODING 33
SWIDTH 320 0
DWIDTH 4 0
BBX 1 10 1 -1
BITMAP
80
80
80
80
80
80
80
80
00
80
ENDCHAR
STARTCHAR 0022
ENCODING 34
SWIDTH 480 0
DWIDTH 6 0
BBX 3 4 1 6
BITMAP
A0
A0
A0
A0
ENDCHAR
STARTCHAR 0023
ENCODING 35
SWIDTH 640 0
DWIDTH 8 0
BBX 7 10 0 -1
BITMAP
48
48
FE
48
48
48
4E
FE
48
48
ENDCHAR
STARTCHAR 0024
ENCODING 36
SWIDTH 640 0
DWIDTH 8 0
BBX 7 11 0 -2
BITMAP
10
7E
90
90
78
26
26
26
26
F8
20
ENDCHAR
STARTCHAR 0025
ENCODING 37
SWIDTH 720 0
DWIDTH 9 0
BBX 8 10 0 -1
BITMAP
60
93
96
68
10
2E
5F
53
93
0E
ENDCHAR
STARTCHAR 0026
ENCODING 38
SWIDTH 640 0
DWIDTH 8 0
BBX 7 10 0 -1
BITMAP
70
88
88
50
66
96
9E
88
88
76
ENDCHAR
STARTCHAR 0027
ENCODING 39
SWIDTH 320 0
DWIDTH 4 0
BBX 1 4 1 6
BITMAP
80
80
80
80
ENDCHAR
STARTCHAR 0028
ENCODING 40
SWIDTH 480 0
DWIDTH 6 0
BBX 3 12 1 -2
BITMAP
20
40
40
80
80
80
80
80
80
40
40
20
ENDCHAR
STARTCHAR 0029
ENCODING 41
SWIDTH 480 0
DWIDTH 6 0
BBX 3 12 1 -2
BITMAP
80
40
40
20
20
20
20
20
20
40
40
80
ENDCHAR
STARTCHAR 002A
ENCODING 42
SWIDTH 480 0
DWIDTH 6 0
BBX 5 8 0 1
BITMAP
20
A8
70
20
70
A8
A8
20
ENDCHAR
STARTCHAR 002B
ENCODING 43
SWIDTH 720 0
DWIDTH 9 0
BBX 8 8 0 0
BITMAP
10
10
10
FF
10
10
10
10
ENDCHAR
STARTCHAR 002C
ENCODING 44
SWIDTH 480 0
DWIDTH 6 0
BBX 2 2 1 -2
BITMAP
40
80
ENDCHAR
STARTCHAR 002D
ENCODING 45
SWIDTH 640 0
DWIDTH 8 0
BBX 7 1 0 4
BITMAP
FE
ENDCHAR
STARTCHAR 002E
ENCODING 46
SWIDTH 480 0
DWIDTH 6 0
BBX 1 1 2 -1
BITMAP
80
ENDCHAR
STARTCHAR 002F
ENCODING 47
SWIDTH 720 0
DWIDTH 9 0
BBX 6 11 1 -2
BITMAP
0C
0C
10
10
20
20
60
40
40
80
80
ENDCHAR
STARTCHAR 0030
ENCODING 48
SWIDTH 640 0
DWIDTH 8 0
BBX 6 10 1 -1
BITMAP
70
8C
8C
8C
8C
8C
8C
8C
8C
70
ENDCHAR
STARTCHAR 0031
ENCODING 49
SWIDTH 640 0
DWIDTH 8 0
BBX 3 10 1 -1
BITMAP
20
60
A0
20
20
20
20
20
20
20
ENDCHAR
STARTCHAR 0032
ENCODING 50
SWIDTH 640 0
DWIDTH 8 0
BBX 6 10 1 -1
BITMAP
70
8C
8C
0C
10
20
60
40
80
FC
ENDCHAR
STARTCHAR 0033
ENCODING 51
SWIDTH 640 0
DWIDTH 8 0
BBX 6 10 1 -1
BITMAP
FC
0C
10
20
70
0C
0C
0C
8C
70
ENDCHAR
STARTCHAR 0034
ENCODING 52
SWIDTH 640 0
DWIDTH 8 0
BBX 7 10 0 -1
BITMAP
18
18
28
28
48
48
4E
FE
08
08
ENDCHAR
STARTCHAR 0035
ENCODING 53
SWIDTH 640 0
DWIDTH 8 0
BBX 6 10 1 -1
BITMAP
FC
80
80
F0
0C
0C
8C
8C
8C
70
ENDCHAR
STARTCHAR 0036
ENCODING 54
SWIDTH 640 0
DWIDTH 8 0
BBX 6 10 1 -1
BITMAP
30
40
80
F0
8C
8C
8C
8C
8C
70
ENDCHAR
STARTCHAR 0037
ENCODING 55
SWIDTH 640 0
DWIDTH 8 0
BBX 6 10 1 -1
BITMAP
FC
0C
0C
10
10
20
20
20
40
40
ENDCHAR
STARTCHAR 0038
ENCODING 56
SWIDTH 640 0
DWIDTH 8 0
BBX 6 10 1 -1
BITMAP
70
8C
8C
8C
70
8C
8C
8C
8C
70
ENDCHAR
STARTCHAR 0039
ENCODING 57
SWIDTH 640 0
DWIDTH 8 0
BBX 6 10 1 -1
BITMAP
70
8C
8C
8C
8C
7C
7C
0C
10
60
ENDCHAR
STARTCHAR 003A
ENCODING 58
SWIDTH 480 0
DWIDTH 6 0
BBX 1 6 2 0
BITMAP
80
00
00
00
00
80
ENDCHAR
STARTCHAR 003B
ENCODING 59
SWIDTH 480 0
DWIDTH 6 0
BBX 2 7 1 -1
BITMAP
40
00
00
00
00
40
80
ENDCHAR
STARTCHAR 003C
ENCODING 60
SWIDTH 720 0
DWIDTH 9 0
BBX 6 10 1 -1
BITMAP
0C
10
20
40
80
40
60
20
10
0C
ENDCHAR
STARTCHAR 003D
ENCODING 61
SWIDTH 640 0
DWIDTH 8 0
BBX 7 4 0 2
BITMAP
FE
00
FE
FE
ENDCHAR
STARTCHAR 003E
ENCODING 62
SWIDTH 720 0
DWIDTH 9 0
BBX 6 10 1 -1
BITMAP
80
40
20
10
0C
10
30
20
40
80
ENDCHAR
STARTCHAR 003F
ENCODING 63
SWIDTH 640 0
DWIDTH 8 0
BBX 7 10 0 -1
BITMAP
78
86
86
08
10
20
20
20
00
20
ENDCHAR
STARTCHAR 0040
ENCODING 64
SWIDTH 720 0
DWIDTH 9 0
BBX 8 10 0 -1
BITMAP
3E
43
9F
A3
A3
A3
BF
9E
40
3E
ENDCHAR
STARTCHAR 0041
ENCODING 65
SWIDTH 720 0
DWIDTH 9 0
BBX 8 10 0 -1
BITMAP
10
10
28
28
46
46
46
7E
83
83
ENDCHAR
STARTCHAR 0042
ENCODING 66
SWIDTH 640 0
DWIDTH 8 0
BBX 7 10 0 -1
BITMAP
F8
86
86
86
F8
86
86
86
86
F8
ENDCHAR
STARTCHAR 0043
ENCODING 67
SWIDTH 640 0
DWIDTH 8 0
BBX 7 10 0 -1
BITMAP
38
46
80
80
80
80
80
80
46
38
ENDCHAR
STARTCHAR 0044
ENCODING 68
SWIDTH 720 0
DWIDTH 9 0
BBX 8 10 0 -1
BITMAP
F8
86
83
83
83
83
83
83
86
F8
ENDCHAR
STARTCHAR 0045
ENCODING 69
SWIDTH 640 0
DWIDTH 8 0
BBX 7 10 0 -1
BITMAP
FE
80
80
80
F8
80
80
80
80
FE
ENDCHAR
STARTCHAR 0046
ENCODING 70
SWIDTH 640 0
DWIDTH 8 0
BBX 7 10 0 -1
BITMAP
FE
80
80
80
F8
80
80
80
80
80
ENDCHAR
STARTCHAR 0047
ENCODING 71
SWIDTH 720 0
DWIDTH 9 0
BBX 8 10 0 -1
BITMAP
3E
43
80
80
8F
83
83
83
47
3B
ENDCHAR
STARTCHAR 0048
ENCODING 72
SWIDTH 720 0
DWIDTH 9 0
BBX 8 10 0 -1
BITMAP
83
83
83
83
FF
83
83
83
83
83
ENDCHAR
STARTCHAR 0049
ENCODING 73
SWIDTH 320 0
DWIDTH 4 0
BBX 1 10 1 -1
BITMAP
80
80
80
80
80
80
80
80
80
80
ENDCHAR
STARTCHAR 004A
ENCODING 74
SWIDTH 640 0
DWIDTH 8 0
BBX 7 10 0 -1
BITMAP
06
06
06
06
06
06
86
86
88
70
ENDCHAR
STARTCHAR 004B
ENCODING 75
SWIDTH 640 0
DWIDTH 8 0
BBX 7 10 0 -1
BITMAP
86
88
90
A0
C0
A0
B0
90
88
86
ENDCHAR
STARTCHAR 004C
ENCODING 76
SWIDTH 640 0
DWIDTH 8 0
BBX 7 10 0 -1
BITMAP
80
80
80
80
80
80
80
80
80
FE
ENDCHAR
STARTCHAR 004D
ENCODING 77
SWIDTH 880 0
DWIDTH 11 0
BBX 10 10 0 -1
BITMAP
8040
C0C0
A340
9640
8840
8040
8040
8040
8040
8040
ENDCHAR
STARTCHAR 004E
ENCODING 78
SWIDTH 720 0
DWIDTH 9 0
BBX 8 10 0 -1
BITMAP
83
C3
A3
93
8B
87
87
83
83
83
ENDCHAR
STARTCHAR 004F
ENCODING 79
SWIDTH 720 0
DWIDTH 9 0
BBX 8 10 0 -1
BITMAP
38
46
83
83
83
83
83
83
46
38
ENDCHAR
STARTCHAR 0050
ENCODING 80
SWIDTH 640 0
DWIDTH 8 0
BBX 7 10 0 -1
BITMAP
F8
86
86
86
F8
80
80
80
80
80
ENDCHAR
STARTCHAR 0051
ENCODING 81
SWIDTH 720 0
DWIDTH 9 0
BBX 8 12 0 -3
BITMAP
38
46
83
83
83
83
83
83
46
38
08
07
ENDCHAR
STARTCHAR 0052
ENCODING 82
SWIDTH 640 0
DWIDTH 8 0
BBX 7 10 0 -1
BITMAP
F8
86
86
86
F8
A0
B0
90
88
86
ENDCHAR
STARTCHAR 0053
ENCODING 83
SWIDTH 640 0
DWIDTH 8 0
BBX 7 10 0 -1
BITMAP
78
86
80
80
78
06
06
06
86
78
ENDCHAR
STARTCHAR 0054
ENCODING 84
SWIDTH 720 0
DWIDTH 9 0
BBX 8 10 0 -1
BITMAP
FF
10
10
10
10
10
10
10
10
10
ENDCHAR
STARTCHAR 0055
ENCODING 85
SWIDTH 720 0
DWIDTH 9 0
BBX 8 10 0 -1
BITMAP
83
83
83
83
83
83
83
83
46
38
ENDCHAR
STARTCHAR 0056
ENCODING 86
SWIDTH 720 0
DWIDTH 9 0
BBX 8 10 0 -1
BITMAP
83
83
46
46
46
28
28
28
10
10
ENDCHAR
STARTCHAR 0057
ENCODING 87
SWIDTH 880 0
DWIDTH 11 0
BBX 10 10 0 -1
BITMAP
8840
8840
8840
4880
5680
5680
7780
2300
2300
2300
ENDCHAR
STARTCHAR 0058
ENCODING 88
SWIDTH 640 0
DWIDTH 8 0
BBX 7 10 0 -1
BITMAP
86
86
48
48
30
48
48
48
86
86
ENDCHAR
STARTCHAR 0059
ENCODING 89
SWIDTH 720 0
DWIDTH 9 0
BBX 8 10 0 -1
BITMAP
83
83
46
46
28
10
10
10
10
10
ENDCHAR
STARTCHAR 005A
ENCODING 90
SWIDTH 640 0
DWIDTH 8 0
BBX 7 10 0 -1
BITMAP
FE
06
08
10
20
40
C0
80
80
FE
ENDCHAR
STARTCHAR 005B
ENCODING 91
SWIDTH 480 0
DWIDTH 6 0
BBX 3 12 1 -2
BITMAP
E0
80
80
80
80
80
80
80
80
80
80
E0
ENDCHAR
STARTCHAR 005C
ENCODING 92
SWIDTH 720 0
DWIDTH 9 0
BBX 6 11 1 -2
BITMAP
80
80
40
40
20
20
30
10
10
0C
0C
ENDCHAR
STARTCHAR 005D
ENCODING 93
SWIDTH 480 0
DWIDTH 6 0
BBX 3 12 1 -2
BITMAP
E0
20
20
20
20
20
20
20
20
20
20
E0
ENDCHAR
STARTCHAR 005E
ENCODING 94
SWIDTH 480 0
DWIDTH 6 0
BBX 5 3 0 7
BITMAP
20
50
88
ENDCHAR
STARTCHAR 005F
ENCODING 95
SWIDTH 640 0
DWIDTH 8 0
BBX 7 1 0 -2
BITMAP
FE
ENDCHAR
STARTCHAR 0060
ENCODING 96
SWIDTH 400 0
DWIDTH 5 0
BBX 2 4 1 6
BITMAP
80
80
40
40
ENDCHAR
STARTCHAR 0061
ENCODING 97
SWIDTH 480 0
DWIDTH 6 0
BBX 5 7 0 -1
BITMAP
70
08
78
F8
88
88
78
ENDCHAR
STARTCHAR 0062
ENCODING 98
SWIDTH 480 0
DWIDTH 6 0
BBX 5 10 0 -1
BITMAP
80
80
80
F0
88
88
88
88
88
F0
ENDCHAR
STARTCHAR 0063
ENCODING 99
SWIDTH 480 0
DWIDTH 6 0
BBX 5 7 0 -1
BITMAP
70
88
80
80
80
88
70
ENDCHAR
STARTCHAR 0064
ENCODING 100
SWIDTH 480 0
DWIDTH 6 0
BBX 5 10 0 -1
BITMAP
08
08
08
78
88
88
88
88
88
78
ENDCHAR
STARTCHAR 0065
ENCODING 101
SWIDTH 480 0
DWIDTH 6 0
BBX 5 7 0 -1
BITMAP
70
88
F8
80
80
88
70
ENDCHAR
STARTCHAR 0066
ENCODING 102
SWIDTH 480 0
DWIDTH 6 0
BBX 5 10 0 -1
BITMAP
18
20
20
20
F8
20
20
20
20
20
ENDCHAR
STARTCHAR 0067
ENCODING 103
SWIDTH 480 0
DWIDTH 6 0
BBX 5 10 0 -4
BITMAP
78
88
88
88
88
88
78
08
88
70
ENDCHAR
STARTCHAR 0068
ENCODING 104
SWIDTH 480 0
DWIDTH 6 0
BBX 5 10 0 -1
BITMAP
80
80
80
B0
C8
88
88
88
88
88
ENDCHAR
STARTCHAR 0069
ENCODING 105
SWIDTH 320 0
DWIDTH 4 0
BBX 1 11 1 -1
BITMAP
80
00
00
00
80
80
80
80
80
80
80
ENDCHAR
STARTCHAR 006A
ENCODING 106
SWIDTH 400 0
DWIDTH 5 0
BBX 4 14 -1 -4
BITMAP
10
00
00
00
10
10
10
10
10
10
10
10
20
C0
ENDCHAR
STARTCHAR 006B
ENCODING 107
SWIDTH 480 0
DWIDTH 6 0
BBX 5 10 0 -1
BITMAP
80
80
80
90
A0
C0
A0
A0
90
88
ENDCHAR
STARTCHAR 006C
ENCODING 108
SWIDTH 320 0
DWIDTH 4 0
BBX 1 10 1 -1
BITMAP
80
80
80
80
80
80
80
80
80
80
ENDCHAR
STARTCHAR 006D
ENCODING 109
SWIDTH 720 0
DWIDTH 9 0
BBX 8 7 0 -1
BITMAP
FE
93
93
93
93
93
93
ENDCHAR
STARTCHAR 006E
ENCODING 110
SWIDTH 480 0
DWIDTH 6 0
BBX 5 7 0 -1
BITMAP
B0
C8
88
88
88
88
88
ENDCHAR
STARTCHAR 006F
ENCODING 111
SWIDTH 480 0
DWIDTH 6 0
BBX 5 7 0 -1
BITMAP
70
88
88
88
88
88
70
ENDCHAR
STARTCHAR 0070
ENCODING 112
SWIDTH 480 0
DWIDTH 6 0
BBX 5 10 0 -4
BITMAP
F0
88
88
88
88
88
F0
80
80
80
ENDCHAR
STARTCHAR 0071
ENCODING 113
SWIDTH 480 0
DWIDTH 6 0
BBX 5 10 0 -4
BITMAP
78
88
88
88
88
88
78
08
08
08
ENDCHAR
STARTCHAR 0072
ENCODING 114
SWIDTH 400 0
DWIDTH 5 0
BBX 4 7 0 -1
BITMAP
B0
C0
80
80
80
80
80
ENDCHAR
STARTCHAR 0073
ENCODING 115
SWIDTH 480 0
DWIDTH 6 0
BBX 5 7 0 -1
BITMAP
70
88
70
78
08
88
70
ENDCHAR
STARTCHAR 0074
ENCODING 116
SWIDTH 400 0
DWIDTH 5 0
BBX 4 10 0 -1
BITMAP
40
40
40
F0
40
40
40
40
40
30
ENDCHAR
STARTCHAR 0075
ENCODING 117
SWIDTH 480 0
DWIDTH 6 0
BBX 5 7 0 -1
BITMAP
88
88
88
88
88
98
68
ENDCHAR
STARTCHAR 0076
ENCODING 118
SWIDTH 480 0
DWIDTH 6 0
BBX 5 7 0 -1
BITMAP
88
88
50
50
50
20
20
ENDCHAR
STARTCHAR 0077
ENCODING 119
SWIDTH 880 0
DWIDTH 11 0
BBX 10 7 0 -1
BITMAP
8840
8840
5680
5680
5680
2300
2300
ENDCHAR
STARTCHAR 0078
ENCODING 120
SWIDTH 480 0
DWIDTH 6 0
BBX 5 7 0 -1
BITMAP
88
50
20
20
20
50
88
ENDCHAR
STARTCHAR 0079
ENCODING 121
SWIDTH 480 0
DWIDTH 6 0
BBX 5 10 0 -4
BITMAP
88
88
88
88
88
88
78
08
88
70
ENDCHAR
STARTCHAR 007A
ENCODING 122
SWIDTH 480 0
DWIDTH 6 0
BBX 5 7 0 -1
BITMAP
F8
10
20
60
40
80
F8
ENDCHAR
STARTCHAR 007B
ENCODING 123
SWIDTH 720 0
DWIDTH 9 0
BBX 6 12 1 -2
BITMAP
1C
20
20
20
20
C0
20
20
20
20
20
1C
ENDCHAR
STARTCHAR 007C
ENCODING 124
SWIDTH 480 0
DWIDTH 6 0
BBX 1 12 2 -2
BITMAP
80
80
80
80
80
80
80
80
80
80
80
80
ENDCHAR
STARTCHAR 007D
ENCODING 125
SWIDTH 720 0
DWIDTH 9 0
BBX 6 12 1 -2
BITMAP
C0
20
20
20
20
1C
20
20
20
20
20
C0
ENDCHAR
STARTCHAR 007E
ENCODING 126
SWIDTH 640 0
DWIDTH 8 0
BBX 7 2 0 7
BITMAP
66
98
ENDCHAR
STARTCHAR 00A0
ENCODING 160
SWIDTH 480 0
DWIDTH 6 0
BBX 0 0 0 0
BITMAP
ENDCHAR
STARTCHAR 00A1
ENCODING 161
SWIDTH 480 0
DWIDTH 6 0
BBX 1 10 2 -1
BITMAP
80
00
80
80
80
80
80
80
80
80
ENDCHAR
STARTCHAR 00A2
ENCODING 162
SWIDTH 480 0
DWIDTH 6 0
BBX 6 10 1 -1
BITMAP
20
20
70
AC
A0
A0
A0
A0
7C
20
ENDCHAR
STARTCHAR 00A3
ENCODING 163
SWIDTH 480 0
DWIDTH 6 0
BBX 7 10 1 -1
BITMAP
3C
46
40
40
FC
40
40
40
60
9E
ENDCHAR
STARTCHAR 00A4
ENCODING 164
SWIDTH 480 0
DWIDTH 6 0
BBX 7 7 1 0
BITMAP
86
7C
4C
4C
4C
7C
86
ENDCHAR
STARTCHAR 00A5
ENCODING 165
SWIDTH 480 0
DWIDTH 6 0
BBX 6 11 2 -2
BITMAP
80
80
40
40
20
20
38
18
18
0C
0C
ENDCHAR
STARTCHAR 00A6
ENCODING 166
SWIDTH 480 0
DWIDTH 6 0
BBX 1 12 3 -2
BITMAP
80
80
80
80
80
00
80
80
80
80
80
80
ENDCHAR
STARTCHAR 00A7
ENCODING 167
SWIDTH 1040 0
DWIDTH 13 0
BBX 6 13 3 -2
BITMAP
78
84
84
40
78
84
84
78
78
18
84
84
78
ENDCHAR
STARTCHAR 00A8
ENCODING 168
SWIDTH 1040 0
DWIDTH 13 0
BBX 7 2 3 9
BITMAP
C6
C6
ENDCHAR
STARTCHAR 00A9
ENCODING 169
SWIDTH 480 0
DWIDTH 6 0
BBX 10 10 1 -1
BITMAP
3F00
4080
9E40
A040
A040
A040
BE40
9E40
4080
3F00
ENDCHAR
STARTCHAR 00AA
ENCODING 170
SWIDTH 480 0
DWIDTH 6 0
BBX 6 10 1 -1
BITMAP
70
0C
7C
8C
8C
7C
7C
00
00
FC
ENDCHAR
STARTCHAR 00AB
ENCODING 171
SWIDTH 480 0
DWIDTH 6 0
BBX 9 10 1 -1
BITMAP
0C80
1100
2600
4C00
9000
4C00
6E00
2600
1100
0C80
ENDCHAR
STARTCHAR 00AC
ENCODING 172
SWIDTH 480 0
DWIDTH 6 0
BBX 8 4 1 1
BITMAP
FF
01
01
01
ENDCHAR
STARTCHAR 00AD
ENCODING 173
SWIDTH 480 0
DWIDTH 6 0
BBX 7 1 1 4
BITMAP
FE
ENDCHAR
STARTCHAR 00AE
ENCODING 174
SWIDTH 480 0
DWIDTH 6 0
BBX 10 10 1 -1
BITMAP
3F00
4080
BF40
A140
BE40
A140
A140
A140
4080
3F00
ENDCHAR
STARTCHAR 00AF
ENCODING 175
SWIDTH 480 0
DWIDTH 6 0
BBX 7 1 1 8
BITMAP
FE
ENDCHAR
STARTCHAR 00B0
ENCODING 176
SWIDTH 1040 0
DWIDTH 13 0
BBX 4 4 1 6
BITMAP
60
90
90
60
ENDCHAR
STARTCHAR 00B1
ENCODING 177
SWIDTH 1040 0
DWIDTH 13 0
BBX 8 10 2 -1
BITMAP
18
18
18
FF
18
18
18
18
00
FF
ENDCHAR
STARTCHAR 00B2
ENCODING 178
SWIDTH 480 0
DWIDTH 6 0
BBX 4 6 1 4
BITMAP
60
90
10
20
40
F0
ENDCHAR
STARTCHAR 00B3
ENCODING 179
SWIDTH 480 0
DWIDTH 6 0
BBX 4 6 1 4
BITMAP
F0
20
60
10
90
60
ENDCHAR
STARTCHAR 00B4
ENCODING 180
SWIDTH 1040 0
DWIDTH 13 0
BBX 3 2 4 9
BITMAP
60
80
ENDCHAR
STARTCHAR 00B5
ENCODING 181
SWIDTH 480 0
DWIDTH 6 0
BBX 6 10 1 -4
BITMAP
8C
8C
8C
8C
8C
9C
EC
80
80
80
ENDCHAR
STARTCHAR 00B6
ENCODING 182
SWIDTH 1040 0
DWIDTH 13 0
BBX 7 11 2 -1
BITMAP
3E
7A
FA
FA
7A
3A
1A
1A
1A
1A
1A
ENDCHAR
STARTCHAR 00B7
ENCODING 183
SWIDTH 480 0
DWIDTH 6 0
BBX 1 1 3 4
BITMAP
80
ENDCHAR
STARTCHAR 00B8
ENCODING 184
SWIDTH 480 0
DWIDTH 6 0
BBX 3 3 2 -3
BITMAP
20
40
80
ENDCHAR
STARTCHAR 00B9
ENCODING 185
SWIDTH 480 0
DWIDTH 6 0
BBX 3 6 1 4
BITMAP
20
60
A0
20
20
20
ENDCHAR
STARTCHAR 00BA
ENCODING 186
SWIDTH 480 0
DWIDTH 6 0
BBX 6 9 1 1
BITMAP
70
8C
8C
8C
70
00
00
FC
FC
ENDCHAR
STARTCHAR 00BB
ENCODING 187
SWIDTH 480 0
DWIDTH 6 0
BBX 9 10 1 -1
BITMAP
9000
4C00
2600
1100
0C80
1100
3700
2600
4C00
9000
ENDCHAR
STARTCHAR 00BC
ENCODING 188
SWIDTH 480 0
DWIDTH 6 0
BBX 8 10 1 -1
BITMAP
40
C1
46
4C
10
2E
56
56
9F
06
ENDCHAR
STARTCHAR 00BD
ENCODING 189
SWIDTH 480 0
DWIDTH 6 0
BBX 8 10 1 -1
BITMAP
40
C1
46
4C
10
2E
4F
41
86
0F
ENDCHAR
STARTCHAR 00BE
ENCODING 190
SWIDTH 480 0
DWIDTH 6 0
BBX 8 10 1 -1
BITMAP
E0
41
26
CC
10
2E
56
56
9F
06
ENDCHAR
STARTCHAR 00BF
ENCODING 191
SWIDTH 480 0
DWIDTH 6 0
BBX 6 10 1 -1
BITMAP
20
00
20
20
40
80
8C
8C
8C
70
ENDCHAR
STARTCHAR 00C0
ENCODING 192
SWIDTH 480 0
DWIDTH 6 0
BBX 8 12 1 -1
BITMAP
10
0C
00
10
10
2C
2C
46
46
7E
81
81
ENDCHAR
STARTCHAR 00C1
ENCODING 193
SWIDTH 480 0
DWIDTH 6 0
BBX 8 12 1 -1
BITMAP
0C
10
00
10
10
2C
2C
46
46
7E
81
81
ENDCHAR
STARTCHAR 00C2
ENCODING 194
SWIDTH 480 0
DWIDTH 6 0
BBX 8 12 1 -1
BITMAP
1C
26
00
10
10
2C
2C
46
46
7E
81
81
ENDCHAR
STARTCHAR 00C3
ENCODING 195
SWIDTH 480 0
DWIDTH 6 0
BBX 8 12 1 -1
BITMAP
31
4E
00
10
10
2C
2C
46
46
7E
81
81
ENDCHAR
STARTCHAR 00C4
ENCODING 196
SWIDTH 480 0
DWIDTH 6 0
BBX 8 12 1 -1
BITMAP
26
26
00
10
10
2C
2C
46
46
7E
81
81
ENDCHAR
STARTCHAR 00C5
ENCODING 197
SWIDTH 480 0
DWIDTH 6 0
BBX 8 12 1 -1
BITMAP
1C
26
26
1C
10
2C
2C
46
46
7E
81
81
ENDCHAR
STARTCHAR 00C6
ENCODING 198
SWIDTH 480 0
DWIDTH 6 0
BBX 9 10 1 -1
BITMAP
3F80
2C00
2C00
4C00
4F80
7C00
FC00
8C00
8C00
8F80
ENDCHAR
STARTCHAR 00C7
ENCODING 199
SWIDTH 480 0
DWIDTH 6 0
BBX 7 12 1 -3
BITMAP
3C
46
80
80
80
80
80
80
46
3C
10
20
ENDCHAR
STARTCHAR 00C8
ENCODING 200
SWIDTH 480 0
DWIDTH 6 0
BBX 7 12 1 -1
BITMAP
20
10
00
FE
80
80
FC
80
80
80
80
FE
ENDCHAR
STARTCHAR 00C9
ENCODING 201
SWIDTH 480 0
DWIDTH 6 0
BBX 7 12 1 -1
BITMAP
10
20
00
FE
80
80
FC
80
80
80
80
FE
ENDCHAR
STARTCHAR 00CA
ENCODING 202
SWIDTH 480 0
DWIDTH 6 0
BBX 7 12 1 -1
BITMAP
30
4C
00
FE
80
80
FC
80
80
80
80
FE
ENDCHAR
STARTCHAR 00CB
ENCODING 203
SWIDTH 480 0
DWIDTH 6 0
BBX 7 12 1 -1
BITMAP
4C
4C
00
FE
80
80
FC
80
80
80
80
FE
ENDCHAR
STARTCHAR 00CC
ENCODING 204
SWIDTH 480 0
DWIDTH 6 0
BBX 2 12 2 -1
BITMAP
80
40
00
80
80
80
80
80
80
80
80
80
ENDCHAR
STARTCHAR 00CD
ENCODING 205
SWIDTH 480 0
DWIDTH 6 0
BBX 2 12 2 -1
BITMAP
40
80
00
80
80
80
80
80
80
80
80
80
ENDCHAR
STARTCHAR 00CE
ENCODING 206
SWIDTH 480 0
DWIDTH 6 0
BBX 4 12 1 -1
BITMAP
60
90
00
40
40
40
40
40
40
40
40
40
ENDCHAR
STARTCHAR 00CF
ENCODING 207
SWIDTH 480 0
DWIDTH 6 0
BBX 4 12 1 -1
BITMAP
90
90
00
40
40
40
40
40
40
40
40
40
ENDCHAR
STARTCHAR 00D0
ENCODING 208
SWIDTH 480 0
DWIDTH 6 0
BBX 9 10 1 -1
BITMAP
7E00
4100
4080
4080
FC80
4080
4080
4080
4100
7E00
ENDCHAR
STARTCHAR 00D1
ENCODING 209
SWIDTH 480 0
DWIDTH 6 0
BBX 8 12 1 -1
BITMAP
31
4E
00
81
C1
A1
91
8D
8D
87
81
81
ENDCHAR
STARTCHAR 00D2
ENCODING 210
SWIDTH 480 0
DWIDTH 6 0
BBX 8 12 1 -1
BITMAP
10
0C
00
3C
46
81
81
81
81
81
46
3C
ENDCHAR
STARTCHAR 00D3
ENCODING 211
SWIDTH 480 0
DWIDTH 6 0
BBX 8 12 1 -1
BITMAP
0C
10
00
3C
46
81
81
81
81
81
46
3C
ENDCHAR
STARTCHAR 00D4
ENCODING 212
SWIDTH 480 0
DWIDTH 6 0
BBX 8 12 1 -1
BITMAP
1C
26
00
3C
46
81
81
81
81
81
46
3C
ENDCHAR
STARTCHAR 00D5
ENCODING 213
SWIDTH 480 0
DWIDTH 6 0
BBX 8 12 1 -1
BITMAP
31
4E
00
3C
46
81
81
81
81
81
46
3C
ENDCHAR
STARTCHAR 00D6
ENCODING 214
SWIDTH 480 0
DWIDTH 6 0
BBX 8 12 1 -1
BITMAP
26
26
00
3C
46
81
81
81
81
81
46
3C
ENDCHAR
STARTCHAR 00D7
ENCODING 215
SWIDTH 1040 0
DWIDTH 13 0
BBX 8 8 2 0
BITMAP
81
42
2C
18
2C
4E
42
81
ENDCHAR
STARTCHAR 00D8
ENCODING 216
SWIDTH 480 0
DWIDTH 6 0
BBX 10 12 0 -2
BITMAP
0040
1E80
2300
4380
4680
4880
5080
7080
6080
2300
5E00
8000
ENDCHAR
STARTCHAR 00D9
ENCODING 217
SWIDTH 480 0
DWIDTH 6 0
BBX 8 12 1 -1
BITMAP
10
0C
00
81
81
81
81
81
81
81
46
3C
ENDCHAR
STARTCHAR 00DA
ENCODING 218
SWIDTH 480 0
DWIDTH 6 0
BBX 8 12 1 -1
BITMAP
0C
10
00
81
81
81
81
81
81
81
46
3C
ENDCHAR
STARTCHAR 00DB
ENCODING 219
SWIDTH 480 0
DWIDTH 6 0
BBX 8 12 1 -1
BITMAP
1C
26
00
81
81
81
81
81
81
81
46
3C
ENDCHAR
STARTCHAR 00DC
ENCODING 220
SWIDTH 480 0
DWIDTH 6 0
BBX 8 12 1 -1
BITMAP
26
26
00
81
81
81
81
81
81
81
46
3C
ENDCHAR
STARTCHAR 00DD
ENCODING 221
SWIDTH 480 0
DWIDTH 6 0
BBX 8 12 1 -1
BITMAP
0C
10
00
81
81
46
2C
10
10
10
10
10
ENDCHAR
STARTCHAR 00DE
ENCODING 222
SWIDTH 480 0
DWIDTH 6 0
BBX 7 11 1 -1
BITMAP
80
80
FC
86
86
86
FC
80
80
80
80
ENDCHAR
STARTCHAR 00DF
ENCODING 223
SWIDTH 480 0
DWIDTH 6 0
BBX 6 12 1 -4
BITMAP
70
8C
8C
F0
8C
8C
8C
8C
F0
80
80
80
ENDCHAR
STARTCHAR 00E0
ENCODING 224
SWIDTH 560 0
DWIDTH 7 0
BBX 6 12 1 -1
BITMAP
20
10
00
00
00
70
0C
7C
FC
8C
8C
7C
ENDCHAR
STARTCHAR 00E1
ENCODING 225
SWIDTH 560 0
DWIDTH 7 0
BBX 6 12 1 -1
BITMAP
10
20
00
00
00
70
0C
7C
FC
8C
8C
7C
ENDCHAR
STARTCHAR 00E2
ENCODING 226
SWIDTH 560 0
DWIDTH 7 0
BBX 6 12 1 -1
BITMAP
30
4C
00
00
00
70
0C
7C
FC
8C
8C
7C
ENDCHAR
STARTCHAR 00E3
ENCODING 227
SWIDTH 560 0
DWIDTH 7 0
BBX 7 12 1 -1
BITMAP
66
9C
00
00
00
70
0C
7C
FC
8C
8C
7C
ENDCHAR
STARTCHAR 00E4
ENCODING 228
SWIDTH 560 0
DWIDTH 7 0
BBX 6 12 1 -1
BITMAP
4C
4C
00
00
00
70
0C
7C
FC
8C
8C
7C
ENDCHAR
STARTCHAR 00E5
ENCODING 229
SWIDTH 560 0
DWIDTH 7 0
BBX 6 12 1 -1
BITMAP
30
4C
4C
30
00
70
0C
7C
FC
8C
8C
7C
ENDCHAR
STARTCHAR 00E6
ENCODING 230
SWIDTH 560 0
DWIDTH 7 0
BBX 10 7 1 -1
BITMAP
7F80
0C40
7FC0
FC00
8C00
8C40
7780
ENDCHAR
STARTCHAR 00E7
ENCODING 231
SWIDTH 560 0
DWIDTH 7 0
BBX 6 9 1 -3
BITMAP
70
8C
80
80
80
8C
70
20
40
ENDCHAR
STARTCHAR 00E8
ENCODING 232
SWIDTH 560 0
DWIDTH 7 0
BBX 6 12 1 -1
BITMAP
20
10
00
00
00
70
8C
FC
80
80
8C
70
ENDCHAR
STARTCHAR 00E9
ENCODING 233
SWIDTH 560 0
DWIDTH 7 0
BBX 6 12 1 -1
BITMAP
10
20
00
00
00
70
8C
FC
80
80
8C
70
ENDCHAR
STARTCHAR 00EA
ENCODING 234
SWIDTH 560 0
DWIDTH 7 0
BBX 6 12 1 -1
BITMAP
30
4C
00
00
00
70
8C
FC
80
80
8C
70
ENDCHAR
STARTCHAR 00EB
ENCODING 235
SWIDTH 560 0
DWIDTH 7 0
BBX 6 12 1 -1
BITMAP
4C
4C
00
00
00
70
8C
FC
80
80
8C
70
ENDCHAR
STARTCHAR 00EC
ENCODING 236
SWIDTH 560 0
DWIDTH 7 0
BBX 2 12 2 -1
BITMAP
80
40
00
00
00
80
80
80
80
80
80
80
ENDCHAR
STARTCHAR 00ED
ENCODING 237
SWIDTH 560 0
DWIDTH 7 0
BBX 2 12 2 -1
BITMAP
40
80
00
00
00
80
80
80
80
80
80
80
ENDCHAR
STARTCHAR 00EE
ENCODING 238
SWIDTH 560 0
DWIDTH 7 0
BBX 4 12 1 -1
BITMAP
60
90
00
00
00
40
40
40
40
40
40
40
ENDCHAR
STARTCHAR 00EF
ENCODING 239
SWIDTH 560 0
DWIDTH 7 0
BBX 4 12 1 -1
BITMAP
90
90
00
00
00
40
40
40
40
40
40
40
ENDCHAR
STARTCHAR 00F0
ENCODING 240
SWIDTH 560 0
DWIDTH 7 0
BBX 6 11 1 -1
BITMAP
C0
3C
E0
10
70
8C
8C
8C
8C
8C
70
ENDCHAR
STARTCHAR 00F1
ENCODING 241
SWIDTH 560 0
DWIDTH 7 0
BBX 7 12 1 -1
BITMAP
66
9C
00
00
00
B0
CC
8C
8C
8C
8C
8C
ENDCHAR
STARTCHAR 00F2
ENCODING 242
SWIDTH 560 0
DWIDTH 7 0
BBX 6 12 1 -1
BITMAP
20
10
00
00
00
70
8C
8C
8C
8C
8C
70
ENDCHAR
STARTCHAR 00F3
ENCODING 243
SWIDTH 560 0
DWIDTH 7 0
BBX 6 12 1 -1
BITMAP
10
20
00
00
00
70
8C
8C
8C
8C
8C
70
ENDCHAR
STARTCHAR 00F4
ENCODING 244
SWIDTH 560 0
DWIDTH 7 0
BBX 6 12 1 -1
BITMAP
30
4C
00
00
00
70
8C
8C
8C
8C
8C
70
ENDCHAR
STARTCHAR 00F5
ENCODING 245
SWIDTH 560 0
DWIDTH 7 0
BBX 7 12 1 -1
BITMAP
66
9C
00
00
00
70
8C
8C
8C
8C
8C
70
ENDCHAR
STARTCHAR 00F6
ENCODING 246
SWIDTH 560 0
DWIDTH 7 0
BBX 6 12 1 -1
BITMAP
4C
4C
00
00
00
70
8C
8C
8C
8C
8C
70
ENDCHAR
STARTCHAR 00F7
ENCODING 247
SWIDTH 1040 0
DWIDTH 13 0
BBX 10 10 1 -1
BITMAP
0C00
1E00
0C00
0000
FFC0
0000
0C00
0C00
1E00
0C00
ENDCHAR
STARTCHAR 00F8
ENCODING 248
SWIDTH 560 0
DWIDTH 7 0
BBX 6 9 1 -2
BITMAP
0C
70
9C
AC
AC
AC
CC
70
80
ENDCHAR
STARTCHAR 00F9
ENCODING 249
SWIDTH 560 0
DWIDTH 7 0
BBX 6 12 1 -1
BITMAP
20
10
00
00
00
8C
8C
8C
8C
8C
9C
6C
ENDCHAR
STARTCHAR 00FA
ENCODING 250
SWIDTH 560 0
DWIDTH 7 0
BBX 6 12 1 -1
BITMAP
10
20
00
00
00
8C
8C
8C
8C
8C
9C
6C
ENDCHAR
STARTCHAR 00FB
ENCODING 251
SWIDTH 560 0
DWIDTH 7 0
BBX 6 12 1 -1
BITMAP
30
4C
00
00
00
8C
8C
8C
8C
8C
9C
6C
ENDCHAR
STARTCHAR 00FC
ENCODING 252
SWIDTH 560 0
DWIDTH 7 0
BBX 6 12 1 -1
BITMAP
4C
4C
00
00
00
8C
8C
8C
8C
8C
9C
6C
ENDCHAR
STARTCHAR 00FD
ENCODING 253
SWIDTH 560 0
DWIDTH 7 0
BBX 6 15 1 -4
BITMAP
10
20
00
00
00
8C
8C
8C
8C
8C
8C
7C
0C
8C
70
ENDCHAR
STARTCHAR 00FE
ENCODING 254
SWIDTH 560 0
DWIDTH 7 0
BBX 6 12 1 -4
BITMAP
80
80
F0
8C
8C
8C
8C
8C
F0
80
80
80
ENDCHAR
STARTCHAR 00FF
ENCODING 255
SWIDTH 560 0
DWIDTH 7 0
BBX 6 15 1 -4
BITMAP
4C
4C
00
00
00
8C
8C
8C
8C
8C
8C
7C
0C
8C
70
ENDCHAR
STARTCHAR 0391
ENCODING 913
SWIDTH 1040 0
DWIDTH 13 0
BBX 12 11 0 -1
BITMAP
1E00
0600
0B00
0B00
1080
1080
1F80
3FC0
2040
2040
F0F0
ENDCHAR
STARTCHAR 0392
ENCODING 914
SWIDTH 1040 0
DWIDTH 13 0
BBX 10 11 1 -1
BITMAP
FF00
2080
2080
2080
3F00
2080
2040
2040
2040
2080
FF00
ENDCHAR
STARTCHAR 0393
ENCODING 915
SWIDTH 1040 0
DWIDTH 13 0
BBX 9 11 2 -1
BITMAP
FF80
2080
2080
2000
2000
2000
2000
2000
2000
2000
FC00
ENDCHAR
STARTCHAR 0394
ENCODING 916
SWIDTH 1040 0
DWIDTH 13 0
BBX 10 11 1 -1
BITMAP
0C00
0C00
1600
1600
2100
2100
4080
4080
4080
8040
FFC0
ENDCHAR
STARTCHAR 0395
ENCODING 917
SWIDTH 1040 0
DWIDTH 13 0
BBX 9 11 2 -1
BITMAP
FF80
2080
2000
2200
3E00
2200
2000
2080
2080
2080
FF80
ENDCHAR
STARTCHAR 0396
ENCODING 918
SWIDTH 1040 0
DWIDTH 13 0
BBX 8 11 2 -1
BITMAP
FF
81
82
0C
18
20
40
81
81
81
FF
ENDCHAR
STARTCHAR 0397
ENCODING 919
SWIDTH 1040 0
DWIDTH 13 0
BBX 11 11 1 -1
BITMAP
F1E0
2080
2080
2080
3F80
2080
2080
2080
2080
2080
F1E0
ENDCHAR
STARTCHAR 0398
ENCODING 920
SWIDTH 1040 0
DWIDTH 13 0
BBX 11 11 1 -1
BITMAP
3F80
4040
8020
A0A0
BFA0
A0A0
8020
8020
8020
4040
3F80
ENDCHAR
STARTCHAR 0399
ENCODING 921
SWIDTH 1040 0
DWIDTH 13 0
BBX 6 11 3 -1
BITMAP
FC
30
30
30
30
30
30
30
30
30
FC
ENDCHAR
STARTCHAR 039A
ENCODING 922
SWIDTH 1040 0
DWIDTH 13 0
BBX 11 11 1 -1
BITMAP
F1E0
2080
2100
2600
2C00
3C00
2600
2700
2100
2080
F1E0
ENDCHAR
STARTCHAR 039B
ENCODING 923
SWIDTH 1040 0
DWIDTH 13 0
BBX 12 11 0 -1
BITMAP
1E00
0600
0B00
0B00
1080
1080
1080
30C0
2040
2040
F0F0
ENDCHAR
STARTCHAR 039C
ENCODING 924
SWIDTH 1040 0
DWIDTH 13 0
BBX 12 11 0 -1
BITMAP
F0F0
30C0
30C0
2B40
2B40
2B40
2640
2640
2640
2640
F0F0
ENDCHAR
STARTCHAR 039D
ENCODING 925
SWIDTH 1040 0
DWIDTH 13 0
BBX 11 11 1 -1
BITMAP
F1E0
3080
2C80
2C80
2680
2680
2180
2180
2180
2080
F080
ENDCHAR
STARTCHAR 039E
ENCODING 926
SWIDTH 1040 0
DWIDTH 13 0
BBX 12 11 0 -1
BITMAP
1FF0
2020
0000
1040
1F80
2080
0000
4040
4040
8080
FF80
ENDCHAR
STARTCHAR 039F
ENCODING 927
SWIDTH 1040 0
DWIDTH 13 0
BBX 10 11 1 -1
BITMAP
3F00
4080
8040
8040
8040
8040
8040
8040
8040
4080
3F00
ENDCHAR
STARTCHAR 03A0
ENCODING 928
SWIDTH 1040 0
DWIDTH 13 0
BBX 11 11 1 -1
BITMAP
7FC0
2080
2080
2080
2080
2080
2080
2080
2080
2080
F1E0
ENDCHAR
STARTCHAR 03A1
ENCODING 929
SWIDTH 1040 0
DWIDTH 13 0
BBX 10 11 1 -1
BITMAP
FF00
2080
2040
2040
2080
3F00
2000
2000
2000
2000
F000
ENDCHAR
STARTCHAR 03A3
ENCODING 931
SWIDTH 1040 0
DWIDTH 13 0
BBX 8 13 2 -2
BITMAP
01
FF
41
21
18
0C
18
20
41
41
81
FF
01
ENDCHAR
STARTCHAR 03A4
ENCODING 932
SWIDTH 1040 0
DWIDTH 13 0
BBX 10 11 1 -1
BITMAP
FFC0
8C40
8C40
0C00
0C00
0C00
0C00
0C00
0C00
0C00
3F00
ENDCHAR
STARTCHAR 03A5
ENCODING 933
SWIDTH 1040 0
DWIDTH 13 0
BBX 12 11 0 -1
BITMAP
30C0
4B20
8610
0600
0600
0600
0600
0600
0600
0600
1F80
ENDCHAR
STARTCHAR 03A6
ENCODING 934
SWIDTH 1040 0
DWIDTH 13 0
BBX 10 11 1 -1
BITMAP
3F00
0C00
3F00
4C80
8C40
8C40
4C80
4D00
3F00
0C00
3F00
ENDCHAR
STARTCHAR 03A7
ENCODING 935
SWIDTH 1040 0
DWIDTH 13 0
BBX 10 11 1 -1
BITMAP
F7C0
2100
2100
1600
0C00
0C00
1600
3700
2100
2100
F7C0
ENDCHAR
STARTCHAR 03A8
ENCODING 936
SWIDTH 1040 0
DWIDTH 13 0
BBX 12 11 0 -1
BITMAP
1F80
0600
4620
A650
2640
2640
1F80
1E00
0600
0600
1F80
ENDCHAR
STARTCHAR 03A9
ENCODING 937
SWIDTH 1040 0
DWIDTH 13 0
BBX 9 11 2 -1
BITMAP
3E00
4100
8080
8080
8080
8080
4100
6300
2200
A280
E380
ENDCHAR
STARTCHAR 03B1
ENCODING 945
SWIDTH 1040 0
DWIDTH 13 0
BBX 10 8 1 -1
BITMAP
1C40
6680
4100
8100
8700
8600
8E00
7180
ENDCHAR
STARTCHAR 03B2
ENCODING 946
SWIDTH 1040 0
DWIDTH 13 0
BBX 8 12 2 -2
BITMAP
0E
19
21
2D
42
41
41
E1
A1
9E
80
80
ENDCHAR
STARTCHAR 03B3
ENCODING 947
SWIDTH 1040 0
DWIDTH 13 0
BBX 9 9 2 -2
BITMAP
C300
2C80
1800
1800
3800
2000
2000
4000
4000
ENDCHAR
STARTCHAR 03B4
ENCODING 948
SWIDTH 1040 0
DWIDTH 13 0
BBX 8 11 2 -1
BITMAP
1C
23
20
18
2C
42
82
82
82
8C
78
ENDCHAR
STARTCHAR 03B5
ENCODING 949
SWIDTH 1040 0
DWIDTH 13 0
BBX 8 9 3 -1
BITMAP
3E
41
40
3C
70
F0
80
82
7C
ENDCHAR
STARTCHAR 03B6
ENCODING 950
SWIDTH 1040 0
DWIDTH 13 0
BBX 8 12 2 -2
BITMAP
20
43
5C
20
40
80
80
E0
60
1C
02
3C
ENDCHAR
STARTCHAR 03B7
ENCODING 951
SWIDTH 1040 0
DWIDTH 13 0
BBX 8 9 2 -1
BITMAP
CE
39
21
41
42
C2
82
8C
0C
ENDCHAR
STARTCHAR 03B8
ENCODING 952
SWIDTH 1040 0
DWIDTH 13 0
BBX 7 12 3 -2
BITMAP
1C
32
42
42
82
FE
82
86
84
84
98
70
ENDCHAR
STARTCHAR 03B9
ENCODING 953
SWIDTH 1040 0
DWIDTH 13 0
BBX 8 9 2 -1
BITMAP
20
20
20
40
41
C1
81
82
7C
ENDCHAR
STARTCHAR 03BA
ENCODING 954
SWIDTH 1040 0
DWIDTH 13 0
BBX 9 9 2 -1
BITMAP
4180
2200
2C00
3800
5800
5C00
4C00
8D00
8200
ENDCHAR
STARTCHAR 03BB
ENCODING 955
SWIDTH 1040 0
DWIDTH 13 0
BBX 10 11 1 -1
BITMAP
3C00
0600
0600
0600
1E00
2600
4600
4700
4100
8100
80C0
ENDCHAR
STARTCHAR 03BC
ENCODING 956
SWIDTH 1040 0
DWIDTH 13 0
BBX 9 10 2 -2
BITMAP
0080
2080
2100
2100
4200
4200
4E00
7A00
8180
8000
ENDCHAR
STARTCHAR 03BD
ENCODING 957
SWIDTH 1040 0
DWIDTH 13 0
BBX 9 9 2 -1
BITMAP
0080
C080
2100
2100
2200
6200
4200
4C00
7800
ENDCHAR
STARTCHAR 03BE
ENCODING 958
SWIDTH 1040 0
DWIDTH 13 0
BBX 8 12 2 -2
BITMAP
1F
20
3F
40
7F
80
80
FC
7C
02
02
3C
ENDCHAR
STARTCHAR 03BF
ENCODING 959
SWIDTH 1040 0
DWIDTH 13 0
BBX 8 9 2 -1
BITMAP
1E
61
41
81
81
83
82
8E
78
ENDCHAR
STARTCHAR 03C0
ENCODING 960
SWIDTH 1040 0
DWIDTH 13 0
BBX 10 9 1 -1
BITMAP
0040
7F80
1100
1100
2600
2640
2640
4C40
8780
ENDCHAR
STARTCHAR 03C1
ENCODING 961
SWIDTH 1040 0
DWIDTH 13 0
BBX 9 10 2 -2
BITMAP
0F00
3880
2080
4080
4100
4100
C300
BC00
8000
8000
ENDCHAR
STARTCHAR 03C3
ENCODING 963
SWIDTH 1040 0
DWIDTH 13 0
BBX 11 10 1 -1
BITMAP
0020
1FC0
6100
4100
8100
8100
8700
8600
8E00
7000
ENDCHAR
STARTCHAR 03C4
ENCODING 964
SWIDTH 1040 0
DWIDTH 13 0
BBX 9 9 2 -1
BITMAP
0080
FF00
1800
1800
2000
2080
2080
2100
1E00
ENDCHAR
STARTCHAR 03C5
ENCODING 965
SWIDTH 1040 0
DWIDTH 13 0
BBX 9 9 2 -1
BITMAP
2100
2080
2080
4100
4100
C300
8200
8C00
7800
ENDCHAR
STARTCHAR 03C6
ENCODING 966
SWIDTH 1040 0
DWIDTH 13 0
BBX 8 12 2 -2
BITMAP
0C
0C
3E
59
99
99
99
9B
9A
7C
20
20
ENDCHAR
STARTCHAR 03C7
ENCODING 967
SWIDTH 1040 0
DWIDTH 13 0
BBX 10 10 2 -2
BITMAP
3880
4D00
0E00
0C00
0C00
0C00
1C00
2C40
4C80
8300
ENDCHAR
STARTCHAR 03C8
ENCODING 968
SWIDTH 1040 0
DWIDTH 13 0
BBX 11 12 1 -2
BITMAP
0100
0100
0600
C620
2640
2C40
4C80
4C80
4C80
3F00
1000
1000
ENDCHAR
STARTCHAR 03C9
ENCODING 969
SWIDTH 1040 0
DWIDTH 13 0
BBX 9 9 2 -1
BITMAP
2100
4080
4C80
8C80
9880
9880
9880
9900
6E00
ENDCHAR
STARTCHAR 0401
ENCODING 1025
SWIDTH 1040 0
DWIDTH 13 0
BBX 11 12 1 -1
BITMAP
6180
0000
FF80
2080
2040
2600
3E00
2600
2620
2020
2040
FFC0
ENDCHAR
STARTCHAR 0410
ENCODING 1040
SWIDTH 1040 0
DWIDTH 13 0
BBX 12 11 0 -1
BITMAP
1E00
0600
0B00
0B00
1080
1080
1F80
3FC0
2040
2040
F0F0
ENDCHAR
STARTCHAR 0411
ENCODING 1041
SWIDTH 1040 0
DWIDTH 13 0
BBX 10 11 1 -1
BITMAP
FF00
2080
2040
2000
3F00
2080
2040
2040
2040
2080
FF00
ENDCHAR
STARTCHAR 0412
ENCODING 1042
SWIDTH 1040 0
DWIDTH 13 0
BBX 10 11 1 -1
BITMAP
FF00
2080
2080
2080
3F00
2080
2040
2040
2040
2080
FF00
ENDCHAR
STARTCHAR 0413
ENCODING 1043
SWIDTH 1040 0
DWIDTH 13 0
BBX 9 11 2 -1
BITMAP
FF80
2080
2080
2000
2000
2000
2000
2000
2000
2000
F800
ENDCHAR
STARTCHAR 0414
ENCODING 1044
SWIDTH 1040 0
DWIDTH 13 0
BBX 11 12 1 -2
BITMAP
7FC0
1080
1080
1080
1080
1080
2080
2080
2080
7F80
4040
8020
ENDCHAR
STARTCHAR 0415
ENCODING 1045
SWIDTH 1040 0
DWIDTH 13 0
BBX 10 11 1 -1
BITMAP
FF00
2100
2080
2600
3E00
2600
2000
2040
2040
2080
FF80
ENDCHAR
STARTCHAR 0416
ENCODING 1046
SWIDTH 1040 0
DWIDTH 13 0
BBX 12 11 0 -1
BITMAP
1F80
4620
A650
2640
1F80
1680
2640
2640
2640
4620
DFB0
ENDCHAR
STARTCHAR 0417
ENCODING 1047
SWIDTH 1040 0
DWIDTH 13 0
BBX 9 11 2 -1
BITMAP
BE00
C100
8080
0100
0E00
0100
0080
8080
8080
C100
BE00
ENDCHAR
STARTCHAR 0418
ENCODING 1048
SWIDTH 1040 0
DWIDTH 13 0
BBX 11 11 1 -1
BITMAP
F1E0
2180
2680
2680
2C80
2C80
3080
3080
3080
2080
E1E0
ENDCHAR
STARTCHAR 0419
ENCODING 1049
SWIDTH 1040 0
DWIDTH 13 0
BBX 11 12 1 -1
BITMAP
1100
0E00
E0E0
2180
2180
2680
2680
2C80
2C80
2C80
3080
F1E0
ENDCHAR
STARTCHAR 041A
ENCODING 1050
SWIDTH 1040 0
DWIDTH 13 0
BBX 11 11 1 -1
BITMAP
F0C0
2120
2100
2600
2C00
3C00
2600
2700
2100
2080
F1E0
ENDCHAR
STARTCHAR 041B
ENCODING 1051
SWIDTH 1040 0
DWIDTH 13 0
BBX 11 11 1 -1
BITMAP
3FE0
0C80
0C80
0C80
0C80
0C80
8C80
8C80
8C80
9080
61E0
ENDCHAR
STARTCHAR 041C
ENCODING 1052
SWIDTH 1040 0
DWIDTH 13 0
BBX 12 11 0 -1
BITMAP
70E0
1080
1080
2B40
2B40
2B40
2640
2640
2640
2640
F0F0
ENDCHAR
STARTCHAR 041D
ENCODING 1053
SWIDTH 1040 0
DWIDTH 13 0
BBX 11 11 1 -1
BITMAP
F1E0
2080
2080
2080
3F80
2080
2080
2080
2080
2080
F1E0
ENDCHAR
STARTCHAR 041E
ENCODING 1054
SWIDTH 1040 0
DWIDTH 13 0
BBX 10 11 1 -1
BITMAP
3F00
4080
8040
8040
8040
8040
8040
8040
8040
4080
3F00
ENDCHAR
STARTCHAR 041F
ENCODING 1055
SWIDTH 1040 0
DWIDTH 13 0
BBX 11 11 1 -1
BITMAP
7FC0
2080
2080
2080
2080
2080
2080
2080
2080
2080
F1E0
ENDCHAR
STARTCHAR 0420
ENCODING 1056
SWIDTH 1040 0
DWIDTH 13 0
BBX 10 11 1 -1
BITMAP
FF00
2080
2040
2040
2080
3F00
2000
2000
2000
2000
F000
ENDCHAR
STARTCHAR 0421
ENCODING 1057
SWIDTH 1040 0
DWIDTH 13 0
BBX 9 11 2 -1
BITMAP
3E80
4180
8080
8000
8000
8000
8000
8080
8080
4180
3E00
ENDCHAR
STARTCHAR 0422
ENCODING 1058
SWIDTH 1040 0
DWIDTH 13 0
BBX 12 11 0 -1
BITMAP
7FE0
4620
4620
8610
0600
0600
0600
0600
0600
0600
1F80
ENDCHAR
STARTCHAR 0423
ENCODING 1059
SWIDTH 1040 0
DWIDTH 13 0
BBX 11 12 1 -2
BITMAP
F1E0
2080
2080
1100
1100
1600
1600
1400
0C00
8C00
9000
6000
ENDCHAR
STARTCHAR 0424
ENCODING 1060
SWIDTH 1040 0
DWIDTH 13 0
BBX 10 11 1 -1
BITMAP
3F00
0C00
3F00
4C80
8C40
8C40
4C80
4D00
3F00
0C00
3F00
ENDCHAR
STARTCHAR 0425
ENCODING 1061
SWIDTH 1040 0
DWIDTH 13 0
BBX 10 11 1 -1
BITMAP
F7C0
2100
2100
1600
0C00
0C00
1600
3700
2100
2100
F7C0
ENDCHAR
STARTCHAR 0426
ENCODING 1062
SWIDTH 1040 0
DWIDTH 13 0
BBX 11 12 1 -2
BITMAP
F7C0
2100
2100
2100
2100
2100
2100
2100
2100
2100
FFC0
0020
ENDCHAR
STARTCHAR 0427
ENCODING 1063
SWIDTH 1040 0
DWIDTH 13 0
BBX 11 11 1 -1
BITMAP
F1E0
2080
2080
2080
2080
2180
1E80
1E80
0080
0080
01E0
ENDCHAR
STARTCHAR 0428
ENCODING 1064
SWIDTH 1040 0
DWIDTH 13 0
BBX 12 11 0 -1
BITMAP
EF70
2640
2640
2640
2640
2640
2640
2640
2640
2640
FFF0
ENDCHAR
STARTCHAR 0429
ENCODING 1065
SWIDTH 1040 0
DWIDTH 13 0
BBX 13 12 0 -2
BITMAP
EF70
2640
2640
2640
2640
2640
2640
2640
2640
2640
FFF0
0008
ENDCHAR
STARTCHAR 042A
ENCODING 1066
SWIDTH 1040 0
DWIDTH 13 0
BBX 11 11 1 -1
BITMAP
FE00
9000
9000
1000
1F80
1040
1020
1020
1020
1040
7F80
ENDCHAR
STARTCHAR 042B
ENCODING 1067
SWIDTH 1040 0
DWIDTH 13 0
BBX 12 11 0 -1
BITMAP
FBF0
2040
2040
2040
3E40
2340
2340
2340
2340
2340
FEF0
ENDCHAR
STARTCHAR 042C
ENCODING 1068
SWIDTH 1040 0
DWIDTH 13 0
BBX 10 11 1 -1
BITMAP
FC00
2000
2000
2000
3F00
2080
2040
2040
2040
2080
FF00
ENDCHAR
STARTCHAR 042D
ENCODING 1069
SWIDTH 1040 0
DWIDTH 13 0
BBX 9 11 2 -1
BITMAP
BE00
C100
8080
0080
1C80
2380
0080
8080
8080
C100
BE00
ENDCHAR
STARTCHAR 042E
ENCODING 1070
SWIDTH 1040 0
DWIDTH 13 0
BBX 12 11 0 -1
BITMAP
F0C0
2320
2610
2610
3E10
2610
2610
2610
2610
2320
F0C0
ENDCHAR
STARTCHAR 042F
ENCODING 1071
SWIDTH 1040 0
DWIDTH 13 0
BBX 11 11 1 -1
BITMAP
1FE0
2080
4080
4080
2080
1F80
0C80
1C80
1080
2080
C1E0
ENDCHAR
STARTCHAR 0430
ENCODING 1072
SWIDTH 1040 0
DWIDTH 13 0
BBX 8 9 3 -1
BITMAP
7C
82
02
3E
C2
82
82
86
7B
ENDCHAR
STARTCHAR 0431
ENCODING 1073
SWIDTH 1040 0
DWIDTH 13 0
BBX 7 12 3 -1
BITMAP
04
38
40
80
B8
C4
82
82
82
82
44
38
ENDCHAR
STARTCHAR 0432
ENCODING 1074
SWIDTH 1040 0
DWIDTH 13 0
BBX 8 9 2 -1
BITMAP
FC
42
42
7C
42
43
41
42
FC
ENDCHAR
STARTCHAR 0433
ENCODING 1075
SWIDTH 1040 0
DWIDTH 13 0
BBX 8 9 3 -1
BITMAP
FC
42
41
40
40
40
40
40
F8
ENDCHAR
STARTCHAR 0434
ENCODING 1076
SWIDTH 1040 0
DWIDTH 13 0
BBX 10 10 1 -2
BITMAP
7F80
1100
1100
1100
1100
2100
2100
3F80
4040
8040
ENDCHAR
STARTCHAR 0435
ENCODING 1077
SWIDTH 1040 0
DWIDTH 13 0
BBX 8 9 2 -1
BITMAP
3C
42
81
FF
80
80
80
41
3E
ENDCHAR
STARTCHAR 0436
ENCODING 1078
SWIDTH 1040 0
DWIDTH 13 0
BBX 10 9 1 -1
BITMAP
9E40
8C40
6D80
3F00
4C80
4C80
4C80
4C80
DEC0
ENDCHAR
STARTCHAR 0437
ENCODING 1079
SWIDTH 1040 0
DWIDTH 13 0
BBX 8 9 2 -1
BITMAP
7E
81
01
1E
01
81
81
C1
3E
ENDCHAR
STARTCHAR 0438
ENCODING 1080
SWIDTH 1040 0
DWIDTH 13 0
BBX 9 9 2 -1
BITMAP
E380
4300
4D00
4D00
5900
5900
5900
6100
E380
ENDCHAR
STARTCHAR 0439
ENCODING 1081
SWIDTH 1040 0
DWIDTH 13 0
BBX 9 12 2 -1
BITMAP
2200
1C00
0000
E380
4300
4D00
4D00
5900
5900
5900
6100
E380
ENDCHAR
STARTCHAR 043A
ENCODING 1082
SWIDTH 1040 0
DWIDTH 13 0
BBX 9 9 2 -1
BITMAP
E300
4C80
4C00
5800
6C00
4E00
4200
4100
E380
ENDCHAR
STARTCHAR 043B
ENCODING 1083
SWIDTH 1040 0
DWIDTH 13 0
BBX 9 9 2 -1
BITMAP
7F80
1900
1900
1900
1900
9900
9900
9900
6380
ENDCHAR
STARTCHAR 043C
ENCODING 1084
SWIDTH 1040 0
DWIDTH 13 0
BBX 10 9 1 -1
BITMAP
E1C0
6180
5680
5680
5680
5480
4C80
4C80
E1C0
ENDCHAR
STARTCHAR 043D
ENCODING 1085
SWIDTH 1040 0
DWIDTH 13 0
BBX 9 9 2 -1
BITMAP
E380
4100
4100
7F00
4100
4100
4100
4100
E380
ENDCHAR
STARTCHAR 043E
ENCODING 1086
SWIDTH 1040 0
DWIDTH 13 0
BBX 9 9 2 -1
BITMAP
3E00
4100
8080
8080
8080
8080
8080
4100
3E00
ENDCHAR
STARTCHAR 043F
ENCODING 1087
SWIDTH 1040 0
DWIDTH 13 0
BBX 9 9 2 -1
BITMAP
FF80
4100
4100
4100
4100
4100
4100
4100
E380
ENDCHAR
STARTCHAR 0440
ENCODING 1088
SWIDTH 1040 0
DWIDTH 13 0
BBX 9 10 2 -2
BITMAP
DE00
6100
4080
4080
4080
6180
6100
5E00
4000
E000
ENDCHAR
STARTCHAR 0441
ENCODING 1089
SWIDTH 1040 0
DWIDTH 13 0
BBX 8 9 2 -1
BITMAP
3E
41
81
80
80
80
80
41
3E
ENDCHAR
STARTCHAR 0442
ENCODING 1090
SWIDTH 1040 0
DWIDTH 13 0
BBX 10 9 1 -1
BITMAP
7F80
4C80
8C40
0C00
0C00
0C00
0C00
0C00
1E00
ENDCHAR
STARTCHAR 0443
ENCODING 1091
SWIDTH 1040 0
DWIDTH 13 0
BBX 8 10 3 -2
BITMAP
F7
42
42
34
34
38
18
98
98
70
ENDCHAR
STARTCHAR 0444
ENCODING 1092
SWIDTH 1040 0
DWIDTH 13 0
BBX 10 11 1 -1
BITMAP
1C00
0C00
6D80
9E40
8C40
8C40
9E40
FDC0
6D80
0C00
1E00
ENDCHAR
STARTCHAR 0445
ENCODING 1093
SWIDTH 1040 0
DWIDTH 13 0
BBX 8 9 2 -1
BITMAP
EF
42
2C
18
18
3C
2C
42
EF
ENDCHAR
STARTCHAR 0446
ENCODING 1094
SWIDTH 1040 0
DWIDTH 13 0
BBX 9 10 2 -2
BITMAP
EF00
4200
4200
4200
4200
4200
4200
4200
FF00
0080
ENDCHAR
STARTCHAR 0447
ENCODING 1095
SWIDTH 1040 0
DWIDTH 13 0
BBX 8 9 2 -1
BITMAP
EF
42
42
42
4E
7E
3A
02
0F
ENDCHAR
STARTCHAR 0448
ENCODING 1096
SWIDTH 1040 0
DWIDTH 13 0
BBX 10 9 1 -1
BITMAP
DEC0
4C80
4C80
4C80
4C80
4C80
4C80
4C80
FFC0
ENDCHAR
STARTCHAR 0449
ENCODING 1097
SWIDTH 1040 0
DWIDTH 13 0
BBX 11 10 1 -2
BITMAP
DEC0
4C80
4C80
4C80
4C80
4C80
4C80
4C80
FFC0
0020
ENDCHAR
STARTCHAR 044A
ENCODING 1098
SWIDTH 1040 0
DWIDTH 13 0
BBX 9 9 2 -1
BITMAP
7C00
9800
9800
1F00
1880
1880
1880
1880
7F00
ENDCHAR
STARTCHAR 044B
ENCODING 1099
SWIDTH 1040 0
DWIDTH 13 0
BBX 10 9 1 -1
BITMAP
E1C0
4080
4080
7C80
4680
4680
4680
4680
FDC0
ENDCHAR
STARTCHAR 044C
ENCODING 1100
SWIDTH 1040 0
DWIDTH 13 0
BBX 7 9 3 -1
BITMAP
F0
40
40
7C
42
42
42
42
FC
ENDCHAR
STARTCHAR 044D
ENCODING 1101
SWIDTH 1040 0
DWIDTH 13 0
BBX 8 9 2 -1
BITMAP
7C
82
01
39
4F
4F
01
82
7C
ENDCHAR
STARTCHAR 044E
ENCODING 1102
SWIDTH 1040 0
DWIDTH 13 0
BBX 9 9 2 -1
BITMAP
EF00
5880
5880
7880
5880
5880
5880
5880
EF00
ENDCHAR
STARTCHAR 044F
ENCODING 1103
SWIDTH 1040 0
DWIDTH 13 0
BBX 8 9 2 -1
BITMAP
7F
82
82
7E
1A
3A
22
22
CF
ENDCHAR
STARTCHAR 0451
ENCODING 1105
SWIDTH 1040 0
DWIDTH 13 0
BBX 8 12 2 -1
BITMAP
C3
00
00
3C
42
81
FF
80
80
80
41
3E
ENDCHAR
STARTCHAR 2000
ENCODING 8192
SWIDTH 1040 0
DWIDTH 13 0
BBX 0 0 0 0
BITMAP
ENDCHAR
STARTCHAR 2001
ENCODING 8193
SWIDTH 1040 0
DWIDTH 13 0
BBX 0 0 0 0
BITMAP
ENDCHAR
STARTCHAR 2002
ENCODING 8194
SWIDTH 1040 0
DWIDTH 13 0
BBX 0 0 0 0
BITMAP
ENDCHAR
STARTCHAR 2003
ENCODING 8195
SWIDTH 1040 0
DWIDTH 13 0
BBX 0 0 0 0
BITMAP
ENDCHAR
STARTCHAR 2004
ENCODING 8196
SWIDTH 1040 0
DWIDTH 13 0
BBX 0 0 0 0
BITMAP
ENDCHAR
STARTCHAR 2005
ENCODING 8197
SWIDTH 1040 0
DWIDTH 13 0
BBX 0 0 0 0
BITMAP
ENDCHAR
STARTCHAR 2006
ENCODING 8198
SWIDTH 1040 0
DWIDTH 13 0
BBX 0 0 0 0
BITMAP
ENDCHAR
STARTCHAR 2007
ENCODING 8199
SWIDTH 1040 0
DWIDTH 13 0
BBX 0 0 0 0
BITMAP
ENDCHAR
STARTCHAR 2008
ENCODING 8200
SWIDTH 1040 0
DWIDTH 13 0
BBX 0 0 0 0
BITMAP
ENDCHAR
STARTCHAR 2009
ENCODING 8201
SWIDTH 1040 0
DWIDTH 13 0
BBX 0 0 0 0
BITMAP
ENDCHAR
STARTCHAR 200A
ENCODING 8202
SWIDTH 1040 0
DWIDTH 13 0
BBX 0 0 0 0
BITMAP
ENDCHAR
STARTCHAR 200B
ENCODING 8203
SWIDTH 560 0
DWIDTH 7 0
BBX 0 0 0 0
BITMAP
ENDCHAR
STARTCHAR 200C
ENCODING 8204
SWIDTH 560 0
DWIDTH 7 0
BBX 0 0 0 0
BITMAP
ENDCHAR
STARTCHAR 200D
ENCODING 8205
SWIDTH 560 0
DWIDTH 7 0
BBX 0 0 0 0
BITMAP
ENDCHAR
STARTCHAR 200E
ENCODING 8206
SWIDTH 560 0
DWIDTH 7 0
BBX 0 0 0 0
BITMAP
ENDCHAR
STARTCHAR 200F
ENCODING 8207
SWIDTH 560 0
DWIDTH 7 0
BBX 0 0 0 0
BITMAP
ENDCHAR
STARTCHAR 2010
ENCODING 8208
SWIDTH 1040 0
DWIDTH 13 0
BBX 4 1 4 4
BITMAP
F0
ENDCHAR
STARTCHAR 2014
ENCODING 8212
SWIDTH 1040 0
DWIDTH 13 0
BBX 13 1 0 4
BITMAP
FFF8
ENDCHAR
STARTCHAR 2015
ENCODING 8213
SWIDTH 1040 0
DWIDTH 13 0
BBX 13 1 0 4
BITMAP
FFF8
ENDCHAR
STARTCHAR 2016
ENCODING 8214
SWIDTH 1040 0
DWIDTH 13 0
BBX 4 14 4 -3
BITMAP
B0
B0
B0
B0
B0
B0
B0
B0
B0
B0
B0
B0
B0
B0
ENDCHAR
STARTCHAR 2018
ENCODING 8216
SWIDTH 1040 0
DWIDTH 13 0
BBX 3 3 8 8
BITMAP
60
C0
C0
ENDCHAR
STARTCHAR 2019
ENCODING 8217
SWIDTH 1040 0
DWIDTH 13 0
BBX 3 3 1 8
BITMAP
60
60
C0
ENDCHAR
STARTCHAR 201C
ENCODING 8220
SWIDTH 1040 0
DWIDTH 13 0
BBX 7 3 4 8
BITMAP
76
EC
EC
ENDCHAR
STARTCHAR 201D
ENCODING 8221
SWIDTH 1040 0
DWIDTH 13 0
BBX 7 3 1 8
BITMAP
6E
6E
DC
ENDCHAR
STARTCHAR 2020
ENCODING 8224
SWIDTH 1040 0
DWIDTH 13 0
BBX 6 13 3 -2
BITMAP
30
30
FC
30
30
78
78
78
70
30
30
30
30
ENDCHAR
STARTCHAR 2021
ENCODING 8225
SWIDTH 1040 0
DWIDTH 13 0
BBX 6 13 3 -2
BITMAP
30
30
FC
30
78
30
30
78
70
30
FC
30
30
ENDCHAR
STARTCHAR 2025
ENCODING 8229
SWIDTH 1040 0
DWIDTH 13 0
BBX 8 3 2 2
BITMAP
C3
C3
C3
ENDCHAR
STARTCHAR 2026
ENCODING 8230
SWIDTH 1040 0
DWIDTH 13 0
BBX 11 3 1 2
BITMAP
CE60
CE60
CE60
ENDCHAR
STARTCHAR 2030
ENCODING 8240
SWIDTH 1040 0
DWIDTH 13 0
BBX 12 11 0 -1
BITMAP
6300
9300
9600
9600
6800
0F60
1890
1890
1890
2890
2760
ENDCHAR
STARTCHAR 2032
ENCODING 8242
SWIDTH 1040 0
DWIDTH 13 0
BBX 3 3 1 7
BITMAP
20
40
80
ENDCHAR
STARTCHAR 2033
ENCODING 8243
SWIDTH 1040 0
DWIDTH 13 0
BBX 7 3 1 7
BITMAP
26
4C
90
ENDCHAR
STARTCHAR 203B
ENCODING 8251
SWIDTH 1040 0
DWIDTH 13 0
BBX 12 12 0 -2
BITMAP
0600
4F20
2640
1080
4B20
E670
4B20
5BA0
1080
2640
4F20
0600
ENDCHAR
STARTCHAR 203E
ENCODING 8254
SWIDTH 1040 0
DWIDTH 13 0
BBX 13 1 0 10
BITMAP
FFF8
ENDCHAR
STARTCHAR 2103
ENCODING 8451
SWIDTH 1040 0
DWIDTH 13 0
BBX 10 12 1 -1
BITMAP
6000
9000
9000
6780
0C40
1000
1000
1000
1000
1000
0C40
0780
ENDCHAR
STARTCHAR 2116
ENCODING 8470
SWIDTH 1040 0
DWIDTH 13 0
BBX 12 10 0 -1
BITMAP
8800
C800
C800
A8C0
AB20
9B20
9B20
9B20
8B20
88D0
ENDCHAR
STARTCHAR 2121
ENCODING 8481
SWIDTH 1040 0
DWIDTH 13 0
BBX 12 10 0 -1
BITMAP
F840
2040
2F40
2840
2840
2F40
2840
2840
2840
2F70
ENDCHAR
STARTCHAR 212B
ENCODING 8491
SWIDTH 1040 0
DWIDTH 13 0
BBX 8 12 2 -1
BITMAP
1C
22
22
1C
18
2C
2C
42
42
7E
81
81
ENDCHAR
STARTCHAR 2160
ENCODING 8544
SWIDTH 1040 0
DWIDTH 13 0
BBX 6 11 3 -1
BITMAP
FC
30
30
30
30
30
30
30
30
30
FC
ENDCHAR
STARTCHAR 2161
ENCODING 8545
SWIDTH 1040 0
DWIDTH 13 0
BBX 7 11 3 -1
BITMAP
FE
44
44
44
44
44
44
44
44
44
FE
ENDCHAR
STARTCHAR 2162
ENCODING 8546
SWIDTH 1040 0
DWIDTH 13 0
BBX 10 11 1 -1
BITMAP
FFC0
4C80
4C80
4C80
4C80
4C80
4C80
4C80
4C80
4C80
FFC0
ENDCHAR
STARTCHAR 2163
ENCODING 8547
SWIDTH 1040 0
DWIDTH 13 0
BBX 10 11 1 -1
BITMAP
FDC0
5080
5080
5080
4D00
4D00
4D00
4E00
4600
4600
E600
ENDCHAR
STARTCHAR 2164
ENCODING 8548
SWIDTH 1040 0
DWIDTH 13 0
BBX 10 11 1 -1
BITMAP
E1C0
4080
4080
2100
2100
2100
1600
1600
1600
0C00
0C00
ENDCHAR
STARTCHAR 2165
ENCODING 8549
SWIDTH 1040 0
DWIDTH 13 0
BBX 10 11 1 -1
BITMAP
EFC0
4680
4680
4680
2C80
2C80
2C80
3080
1080
1080
11C0
ENDCHAR
STARTCHAR 2166
ENCODING 8550
SWIDTH 1040 0
DWIDTH 13 0
BBX 12 11 0 -1
BITMAP
EFF0
46A0
46A0
46A0
28A0
28A0
28A0
30A0
10A0
10A0
13F0
ENDCHAR
STARTCHAR 2167
ENCODING 8551
SWIDTH 1040 0
DWIDTH 13 0
BBX 12 11 0 -1
BITMAP
DFF0
56A0
56A0
56A0
56A0
56A0
26A0
26A0
26A0
26A0
2FF0
ENDCHAR
STARTCHAR 2168
ENCODING 8552
SWIDTH 1040 0
DWIDTH 13 0
BBX 10 11 1 -1
BITMAP
FDC0
5080
4D00
4D00
4600
4600
4D00
4D00
4D00
5080
FDC0
ENDCHAR
STARTCHAR 2169
ENCODING 8553
SWIDTH 1040 0
DWIDTH 13 0
BBX 10 11 1 -1
BITMAP
E1C0
4080
2100
1600
0C00
0C00
1600
3700
2100
4080
E1C0
ENDCHAR
STARTCHAR 2190
ENCODING 8592
SWIDTH 1040 0
DWIDTH 13 0
BBX 12 10 0 -1
BITMAP
0800
1000
2000
4000
FFF0
4000
6000
2000
1000
0800
ENDCHAR
STARTCHAR 2191
ENCODING 8593
SWIDTH 1040 0
DWIDTH 13 0
BBX 10 12 1 -2
BITMAP
0C00
1E00
2D00
4C80
8C40
0C00
0C00
0C00
0C00
0C00
0C00
0C00
ENDCHAR
STARTCHAR 2192
ENCODING 8594
SWIDTH 1040 0
DWIDTH 13 0
BBX 12 10 0 -1
BITMAP
0300
0080
0040
0020
FFF0
0020
0060
0040
0080
0300
ENDCHAR
STARTCHAR 2193
ENCODING 8595
SWIDTH 1040 0
DWIDTH 13 0
BBX 10 12 1 -2
BITMAP
0C00
0C00
0C00
0C00
0C00
0C00
8C40
CC80
4C80
2D00
1E00
0C00
ENDCHAR
STARTCHAR 21D2
ENCODING 8658
SWIDTH 1040 0
DWIDTH 13 0
BBX 12 8 0 0
BITMAP
0080
0040
FFE0
0010
FFE0
FFC0
0040
0080
ENDCHAR
STARTCHAR 21D4
ENCODING 8660
SWIDTH 1040 0
DWIDTH 13 0
BBX 12 8 0 0
BITMAP
1080
2040
7FE0
8010
7FE0
6040
2040
1080
ENDCHAR
STARTCHAR 2200
ENCODING 8704
SWIDTH 1040 0
DWIDTH 13 0
BBX 10 11 1 -1
BITMAP
8040
8040
4080
7F80
2100
2100
1600
1600
1600
0C00
0C00
ENDCHAR
STARTCHAR 2202
ENCODING 8706
SWIDTH 1040 0
DWIDTH 13 0
BBX 8 10 2 -1
BITMAP
1E
21
01
01
3D
42
C2
82
8C
78
ENDCHAR
STARTCHAR 2203
ENCODING 8707
SWIDTH 1040 0
DWIDTH 13 0
BBX 8 11 2 -1
BITMAP
FF
01
01
01
FF
01
01
01
01
01
FF
ENDCHAR
STARTCHAR 2207
ENCODING 8711
SWIDTH 1040 0
DWIDTH 13 0
BBX 10 10 1 -1
BITMAP
FFC0
FFC0
6080
6080
3100
3100
3200
1600
1E00
0C00
ENDCHAR
STARTCHAR 2208
ENCODING 8712
SWIDTH 1040 0
DWIDTH 13 0
BBX 10 8 1 0
BITMAP
3FC0
4000
8000
FFC0
8000
C000
4000
3FC0
ENDCHAR
STARTCHAR 220B
ENCODING 8715
SWIDTH 1040 0
DWIDTH 13 0
BBX 10 8 1 0
BITMAP
FF00
0080
0040
FFC0
0040
00C0
0080
FF00
ENDCHAR
STARTCHAR 2211
ENCODING 8721
SWIDTH 1040 0
DWIDTH 13 0
BBX 10 10 1 -1
BITMAP
FFC0
4000
2000
1000
0C00
1000
3000
2000
4000
FFC0
ENDCHAR
STARTCHAR 2212
ENCODING 8722
SWIDTH 1040 0
DWIDTH 13 0
BBX 10 1 1 4
BITMAP
FFC0
ENDCHAR
STARTCHAR 221A
ENCODING 8730
SWIDTH 1040 0
DWIDTH 13 0
BBX 12 12 0 -1
BITMAP
03F0
0300
0300
0600
0600
4600
4800
A800
A800
A800
1000
1000
ENDCHAR
STARTCHAR 221D
ENCODING 8733
SWIDTH 1040 0
DWIDTH 13 0
BBX 11 7 0 1
BITMAP
30C0
4B20
8600
8600
4B20
7BE0
30C0
ENDCHAR
STARTCHAR 221E
ENCODING 8734
SWIDTH 1040 0
DWIDTH 13 0
BBX 12 7 0 0
BITMAP
30C0
4B20
8610
8610
CF30
4B20
30C0
ENDCHAR
STARTCHAR 221F
ENCODING 8735
SWIDTH 1040 0
DWIDTH 13 0
BBX 9 9 2 0
BITMAP
8000
8000
8000
8000
8000
8000
8000
8000
FF80
ENDCHAR
STARTCHAR 2220
ENCODING 8736
SWIDTH 1040 0
DWIDTH 13 0
BBX 10 9 1 0
BITMAP
0080
0100
0600
0C00
1000
2000
4000
4000
FFC0
ENDCHAR
STARTCHAR 2225
ENCODING 8741
SWIDTH 1040 0
DWIDTH 13 0
BBX 4 14 4 -3
BITMAP
B0
B0
B0
B0
B0
B0
B0
B0
B0
B0
B0
B0
B0
B0
ENDCHAR
STARTCHAR 2227
ENCODING 8743
SWIDTH 1040 0
DWIDTH 13 0
BBX 10 11 1 -1
BITMAP
0C00
0C00
1600
1600
2100
2100
4080
4080
4080
8040
8040
ENDCHAR
STARTCHAR 2228
ENCODING 8744
SWIDTH 1040 0
DWIDTH 13 0
BBX 10 11 1 -1
BITMAP
8040
8040
4080
4080
2100
2100
1600
1600
1600
0C00
0C00
ENDCHAR
STARTCHAR 2229
ENCODING 8745
SWIDTH 1040 0
DWIDTH 13 0
BBX 8 10 2 -1
BITMAP
3C
42
81
81
81
81
81
81
81
81
ENDCHAR
STARTCHAR 222A
ENCODING 8746
SWIDTH 1040 0
DWIDTH 13 0
BBX 8 10 2 -1
BITMAP
81
81
81
81
81
81
81
81
42
3C
ENDCHAR
STARTCHAR 222B
ENCODING 8747
SWIDTH 1040 0
DWIDTH 13 0
BBX 4 13 4 -2
BITMAP
60
B0
80
80
80
60
60
30
30
30
30
B0
60
ENDCHAR
STARTCHAR 222C
ENCODING 8748
SWIDTH 1040 0
DWIDTH 13 0
BBX 8 13 2 -2
BITMAP
63
AD
8C
8C
8C
42
42
21
21
21
21
AD
CE
ENDCHAR
STARTCHAR 222E
ENCODING 8750
SWIDTH 1040 0
DWIDTH 13 0
BBX 6 13 3 -2
BITMAP
30
58
40
78
B4
B4
B4
B4
BC
78
18
58
30
ENDCHAR
STARTCHAR 2234
ENCODING 8756
SWIDTH 1040 0
DWIDTH 13 0
BBX 10 9 1 0
BITMAP
0C00
1E00
0C00
0000
0000
4080
60C0
E1C0
4080
ENDCHAR
STARTCHAR 2235
ENCODING 8757
SWIDTH 1040 0
DWIDTH 13 0
BBX 10 9 1 0
BITMAP
4080
E1C0
4080
0000
0000
0C00
0E00
1E00
0C00
ENDCHAR
STARTCHAR 223D
ENCODING 8765
SWIDTH 1040 0
DWIDTH 13 0
BBX 12 7 0 1
BITMAP
20C0
4320
8610
8610
4820
7840
3040
ENDCHAR
STARTCHAR 2252
ENCODING 8786
SWIDTH 1040 0
DWIDTH 13 0
BBX 10 12 1 -2
BITMAP
2000
7000
2000
0000
FFC0
0000
FFC0
FFC0
0000
0100
0780
0100
ENDCHAR
STARTCHAR 2260
ENCODING 8800
SWIDTH 1040 0
DWIDTH 13 0
BBX 10 9 1 -1
BITMAP
0080
0100
FFC0
0C00
1000
1FC0
FFC0
4000
8000
ENDCHAR
STARTCHAR 2261
ENCODING 8801
SWIDTH 1040 0
DWIDTH 13 0
BBX 10 8 1 0
BITMAP
FFC0
0000
0000
FFC0
0000
0000
0000
FFC0
ENDCHAR
STARTCHAR 2266
ENCODING 8806
SWIDTH 1040 0
DWIDTH 13 0
BBX 10 10 1 -1
BITMAP
01C0
1E00
E000
1E00
01C0
0000
FFC0
FFC0
0000
FFC0
ENDCHAR
STARTCHAR 2267
ENCODING 8807
SWIDTH 1040 0
DWIDTH 13 0
BBX 10 10 1 -1
BITMAP
E000
1E00
01C0
1E00
E000
0000
FFC0
FFC0
0000
FFC0
ENDCHAR
STARTCHAR 226A
ENCODING 8810
SWIDTH 1040 0
DWIDTH 13 0
BBX 10 10 1 -1
BITMAP
0C40
1080
2100
4600
8C00
4600
6700
2100
1080
0C40
ENDCHAR
STARTCHAR 226B
ENCODING 8811
SWIDTH 1040 0
DWIDTH 13 0
BBX 10 10 0 -1
BITMAP
8800
4600
2300
1080
0840
1080
3380
2300
4600
8800
ENDCHAR
STARTCHAR 2282
ENCODING 8834
SWIDTH 1040 0
DWIDTH 13 0
BBX 10 8 1 0
BITMAP
3FC0
4000
8000
8000
8000
C000
4000
3FC0
ENDCHAR
STARTCHAR 2283
ENCODING 8835
SWIDTH 1040 0
DWIDTH 13 0
BBX 10 8 1 0
BITMAP
FF00
0080
0040
0040
0040
00C0
0080
FF00
ENDCHAR
STARTCHAR 2286
ENCODING 8838
SWIDTH 1040 0
DWIDTH 13 0
BBX 10 10 1 -1
BITMAP
3FC0
4000
8000
8000
4000
3FC0
3FC0
0000
0000
FFC0
ENDCHAR
STARTCHAR 2287
ENCODING 8839
SWIDTH 1040 0
DWIDTH 13 0
BBX 10 10 1 -1
BITMAP
FF00
0080
0040
0040
0080
FF00
FF00
0000
0000
FFC0
ENDCHAR
STARTCHAR 22A5
ENCODING 8869
SWIDTH 1040 0
DWIDTH 13 0
BBX 10 9 1 0
BITMAP
0C00
0C00
0C00
0C00
0C00
0C00
0C00
0C00
FFC0
ENDCHAR
STARTCHAR 22BF
ENCODING 8895
SWIDTH 1040 0
DWIDTH 13 0
BBX 9 9 1 0
BITMAP
0080
0180
0680
0C80
1080
2080
4080
4080
FF80
ENDCHAR
STARTCHAR 2312
ENCODING 8978
SWIDTH 1040 0
DWIDTH 13 0
BBX 12 3 0 8
BITMAP
1F80
6060
8010
ENDCHAR
STARTCHAR 2460
ENCODING 9312
SWIDTH 1040 0
DWIDTH 13 0
BBX 12 12 0 -2
BITMAP
0F00
30C0
4620
4E20
9610
8610
8610
C630
4620
4620
30C0
0F00
ENDCHAR
STARTCHAR 2461
ENCODING 9313
SWIDTH 1040 0
DWIDTH 13 0
BBX 12 12 0 -2
BITMAP
0F00
30C0
4F20
50A0
8090
8710
8810
D030
5020
5FA0
30C0
0F00
ENDCHAR
STARTCHAR 2462
ENCODING 9314
SWIDTH 1040 0
DWIDTH 13 0
BBX 12 12 0 -2
BITMAP
0F00
30C0
4F20
50A0
8090
8710
8090
D0B0
50A0
4F20
30C0
0F00
ENDCHAR
STARTCHAR 2463
ENCODING 9315
SWIDTH 1040 0
DWIDTH 13 0
BBX 12 12 0 -2
BITMAP
0F00
30C0
4720
4720
8B10
8B10
9310
D3B0
5FA0
4320
30C0
0F00
ENDCHAR
STARTCHAR 2464
ENCODING 9316
SWIDTH 1040 0
DWIDTH 13 0
BBX 12 12 0 -2
BITMAP
0F00
30C0
5FA0
5020
9F10
8090
8090
D0A0
50A0
4F20
30C0
0F00
ENDCHAR
STARTCHAR 2465
ENCODING 9317
SWIDTH 1040 0
DWIDTH 13 0
BBX 12 12 0 -2
BITMAP
0F00
30C0
4F20
5020
9F10
9090
9090
D0B0
50A0
4F20
30C0
0F00
ENDCHAR
STARTCHAR 2466
ENCODING 9318
SWIDTH 1040 0
DWIDTH 13 0
BBX 12 12 0 -2
BITMAP
0F00
30C0
5FA0
40A0
8310
8610
8610
CE30
4820
4820
30C0
0F00
ENDCHAR
STARTCHAR 2467
ENCODING 9319
SWIDTH 1040 0
DWIDTH 13 0
BBX 12 12 0 -2
BITMAP
0F00
30C0
4F20
50A0
9090
8F10
9090
D0B0
50A0
4F20
30C0
0F00
ENDCHAR
STARTCHAR 2468
ENCODING 9320
SWIDTH 1040 0
DWIDTH 13 0
BBX 12 12 0 -2
BITMAP
0F00
30C0
4F20
50A0
9090
9090
8F90
CFB0
40A0
4F20
30C0
0F00
ENDCHAR
STARTCHAR 2469
ENCODING 9321
SWIDTH 1040 0
DWIDTH 13 0
BBX 12 12 0 -2
BITMAP
0F00
30C0
53A0
7660
9650
9650
9650
D670
5660
53A0
30C0
0F00
ENDCHAR
STARTCHAR 246A
ENCODING 9322
SWIDTH 1040 0
DWIDTH 13 0
BBX 12 12 0 -2
BITMAP
0F00
30C0
50A0
73A0
9090
9090
9090
D0B0
50A0
50A0
30C0
0F00
ENDCHAR
STARTCHAR 246B
ENCODING 9323
SWIDTH 1040 0
DWIDTH 13 0
BBX 12 12 0 -2
BITMAP
0F00
30C0
53A0
7660
9050
9090
9310
D230
5620
57E0
30C0
0F00
ENDCHAR
STARTCHAR 246C
ENCODING 9324
SWIDTH 1040 0
DWIDTH 13 0
BBX 12 12 0 -2
BITMAP
0F00
30C0
53A0
7660
9050
9390
9050
D670
5660
53A0
30C0
0F00
ENDCHAR
STARTCHAR 246D
ENCODING 9325
SWIDTH 1040 0
DWIDTH 13 0
BBX 12 12 0 -2
BITMAP
0F00
30C0
53A0
73A0
9690
9690
9690
D6F0
57E0
50A0
30C0
0F00
ENDCHAR
STARTCHAR 246E
ENCODING 9326
SWIDTH 1040 0
DWIDTH 13 0
BBX 12 12 0 -2
BITMAP
0F00
30C0
57E0
7620
9790
9050
9050
D660
5660
53A0
30C0
0F00
ENDCHAR
STARTCHAR 246F
ENCODING 9327
SWIDTH 1040 0
DWIDTH 13 0
BBX 12 12 0 -2
BITMAP
0F00
30C0
53A0
7620
9790
9650
9650
D670
5660
53A0
30C0
0F00
ENDCHAR
STARTCHAR 2470
ENCODING 9328
SWIDTH 1040 0
DWIDTH 13 0
BBX 12 12 0 -2
BITMAP
0F00
30C0
57E0
7060
9090
9090
9310
D330
5320
5320
30C0
0F00
ENDCHAR
STARTCHAR 2471
ENCODING 9329
SWIDTH 1040 0
DWIDTH 13 0
BBX 12 12 0 -2
BITMAP
0F00
30C0
53A0
7660
9650
9390
9650
D670
5660
53A0
30C0
0F00
ENDCHAR
STARTCHAR 2472
ENCODING 9330
SWIDTH 1040 0
DWIDTH 13 0
BBX 12 12 0 -2
BITMAP
0F00
30C0
53A0
7660
9650
9650
93D0
D3F0
5060
57A0
30C0
0F00
ENDCHAR
STARTCHAR 2473
ENCODING 9331
SWIDTH 1040 0
DWIDTH 13 0
BBX 12 12 0 -2
BITMAP
0F00
30C0
5EA0
5760
8750
8B50
9350
D370
5360
5EA0
30C0
0F00
ENDCHAR
STARTCHAR 2500
ENCODING 9472
SWIDTH 1040 0
DWIDTH 13 0
BBX 13 1 0 4
BITMAP
FFF8
ENDCHAR
STARTCHAR 2501
ENCODING 9473
SWIDTH 1040 0
DWIDTH 13 0
BBX 13 2 0 4
BITMAP
FFF8
FFF8
ENDCHAR
STARTCHAR 2502
ENCODING 9474
SWIDTH 1040 0
DWIDTH 13 0
BBX 2 14 5 -3
BITMAP
C0
C0
C0
C0
C0
C0
C0
C0
C0
C0
C0
C0
C0
C0
ENDCHAR
STARTCHAR 2503
ENCODING 9475
SWIDTH 1040 0
DWIDTH 13 0
BBX 3 14 5 -3
BITMAP
E0
E0
E0
E0
E0
E0
E0
E0
E0
E0
E0
E0
E0
E0
ENDCHAR
STARTCHAR 250C
ENCODING 9484
SWIDTH 1040 0
DWIDTH 13 0
BBX 8 8 5 -3
BITMAP
FF
C0
C0
C0
C0
C0
C0
C0
ENDCHAR
STARTCHAR 250F
ENCODING 9487
SWIDTH 1040 0
DWIDTH 13 0
BBX 8 9 5 -3
BITMAP
FF
FF
E0
E0
E0
E0
E0
E0
E0
ENDCHAR
STARTCHAR 2510
ENCODING 9488
SWIDTH 1040 0
DWIDTH 13 0
BBX 7 8 0 -3
BITMAP
FE
06
06
06
06
06
06
06
ENDCHAR
STARTCHAR 2513
ENCODING 9491
SWIDTH 1040 0
DWIDTH 13 0
BBX 8 9 0 -3
BITMAP
FF
FF
07
07
07
07
07
07
07
ENDCHAR
STARTCHAR 2514
ENCODING 9492
SWIDTH 1040 0
DWIDTH 13 0
BBX 8 7 5 4
BITMAP
C0
C0
C0
C0
C0
C0
FF
ENDCHAR
STARTCHAR 2517
ENCODING 9495
SWIDTH 1040 0
DWIDTH 13 0
BBX 8 7 5 4
BITMAP
E0
E0
E0
E0
E0
FF
FF
ENDCHAR
STARTCHAR 2518
ENCODING 9496
SWIDTH 1040 0
DWIDTH 13 0
BBX 7 7 0 4
BITMAP
06
06
06
06
06
06
FE
ENDCHAR
STARTCHAR 251B
ENCODING 9499
SWIDTH 1040 0
DWIDTH 13 0
BBX 8 7 0 4
BITMAP
07
07
07
07
07
FF
FF
ENDCHAR
STARTCHAR 251C
ENCODING 9500
SWIDTH 1040 0
DWIDTH 13 0
BBX 8 14 5 -3
BITMAP
C0
C0
C0
C0
C0
C0
FF
C0
C0
C0
C0
C0
C0
C0
ENDCHAR
STARTCHAR 251D
ENCODING 9501
SWIDTH 1040 0
DWIDTH 13 0
BBX 8 14 5 -3
BITMAP
C0
C0
C0
C0
C0
FF
FF
C0
C0
C0
C0
C0
C0
C0
ENDCHAR
STARTCHAR 2520
ENCODING 9504
SWIDTH 1040 0
DWIDTH 13 0
BBX 8 14 5 -3
BITMAP
E0
E0
E0
E0
E0
E0
FF
E0
E0
E0
E0
E0
E0
E0
ENDCHAR
STARTCHAR 2523
ENCODING 9507
SWIDTH 1040 0
DWIDTH 13 0
BBX 8 14 5 -3
BITMAP
E0
E0
E0
E0
E0
FF
FF
E0
E0
E0
E0
E0
E0
E0
ENDCHAR
STARTCHAR 2524
ENCODING 9508
SWIDTH 1040 0
DWIDTH 13 0
BBX 7 14 0 -3
BITMAP
06
06
06
06
06
06
FE
06
06
06
06
06
06
06
ENDCHAR
STARTCHAR 2525
ENCODING 9509
SWIDTH 1040 0
DWIDTH 13 0
BBX 7 14 0 -3
BITMAP
06
06
06
06
06
FE
FE
06
06
06
06
06
06
06
ENDCHAR
STARTCHAR 2528
ENCODING 9512
SWIDTH 1040 0
DWIDTH 13 0
BBX 8 14 0 -3
BITMAP
07
07
07
07
07
07
FF
07
07
07
07
07
07
07
ENDCHAR
STARTCHAR 252B
ENCODING 9515
SWIDTH 1040 0
DWIDTH 13 0
BBX 8 14 0 -3
BITMAP
07
07
07
07
07
FF
FF
07
07
07
07
07
07
07
ENDCHAR
STARTCHAR 252C
ENCODING 9516
SWIDTH 1040 0
DWIDTH 13 0
BBX 13 8 0 -3
BITMAP
FFF8
0600
0600
0600
0600
0600
0600
0600
ENDCHAR
STARTCHAR 252F
ENCODING 9519
SWIDTH 1040 0
DWIDTH 13 0
BBX 13 9 0 -3
BITMAP
FFF8
FFF8
0600
0600
0600
0600
0600
0600
0600
ENDCHAR
STARTCHAR 2530
ENCODING 9520
SWIDTH 1040 0
DWIDTH 13 0
BBX 13 8 0 -3
BITMAP
FFF8
0700
0700
0700
0700
0700
0700
0700
ENDCHAR
STARTCHAR 2533
ENCODING 9523
SWIDTH 1040 0
DWIDTH 13 0
BBX 13 9 0 -3
BITMAP
FFF8
FFF8
0700
0700
0700
0700
0700
0700
0700
ENDCHAR
STARTCHAR 2534
ENCODING 9524
SWIDTH 1040 0
DWIDTH 13 0
BBX 13 7 0 4
BITMAP
0600
0600
0600
0600
0600
0600
FFF8
ENDCHAR
STARTCHAR 2537
ENCODING 9527
SWIDTH 1040 0
DWIDTH 13 0
BBX 13 7 0 4
BITMAP
0600
0600
0600
0600
0600
FFF8
FFF8
ENDCHAR
STARTCHAR 2538
ENCODING 9528
SWIDTH 1040 0
DWIDTH 13 0
BBX 13 6 0 5
BITMAP
0700
0700
0700
0700
0700
FFF8
ENDCHAR
STARTCHAR 253B
ENCODING 9531
SWIDTH 1040 0
DWIDTH 13 0
BBX 13 7 0 4
BITMAP
0700
0700
0700
0700
0700
FFF8
FFF8
ENDCHAR
STARTCHAR 253C
ENCODING 9532
SWIDTH 1040 0
DWIDTH 13 0
BBX 13 14 0 -3
BITMAP
0600
0600
0600
0600
0600
0600
FFF8
0600
0600
0600
0600
0600
0600
0600
ENDCHAR
STARTCHAR 253F
ENCODING 9535
SWIDTH 1040 0
DWIDTH 13 0
BBX 13 14 0 -3
BITMAP
0600
0600
0600
0600
0600
FFF8
FFF8
0600
0600
0600
0600
0600
0600
0600
ENDCHAR
STARTCHAR 2542
ENCODING 9538
SWIDTH 1040 0
DWIDTH 13 0
BBX 13 14 0 -3
BITMAP
0700
0700
0700
0700
0700
0700
FFF8
0700
0700
0700
0700
0700
0700
0700
ENDCHAR
STARTCHAR 254B
ENCODING 9547
SWIDTH 1040 0
DWIDTH 13 0
BBX 13 14 0 -3
BITMAP
0700
0700
0700
0700
0700
FFF8
FFF8
0700
0700
0700
0700
0700
0700
0700
ENDCHAR
STARTCHAR 25A0
ENCODING 9632
SWIDTH 1040 0
DWIDTH 13 0
BBX 10 10 1 -1
BITMAP
FFC0
FFC0
FFC0
FFC0
FFC0
FFC0
FFC0
FFC0
FFC0
FFC0
ENDCHAR
STARTCHAR 25A1
ENCODING 9633
SWIDTH 1040 0
DWIDTH 13 0
BBX 10 10 1 -1
BITMAP
FFC0
8040
8040
8040
8040
8040
8040
8040
8040
FFC0
ENDCHAR
STARTCHAR 25B2
ENCODING 9650
SWIDTH 1040 0
DWIDTH 13 0
BBX 10 10 1 -1
BITMAP
0C00
1E00
1E00
3F00
3F00
7F80
7F80
7F80
FFC0
FFC0
ENDCHAR
STARTCHAR 25B3
ENCODING 9651
SWIDTH 1040 0
DWIDTH 13 0
BBX 10 10 1 -1
BITMAP
0C00
1600
1600
2100
2100
4080
4080
4080
8040
FFC0
ENDCHAR
STARTCHAR 25BC
ENCODING 9660
SWIDTH 1040 0
DWIDTH 13 0
BBX 10 10 1 -1
BITMAP
FFC0
FFC0
7F80
7F80
3F00
3F00
3E00
1E00
1E00
0C00
ENDCHAR
STARTCHAR 25BD
ENCODING 9661
SWIDTH 1040 0
DWIDTH 13 0
BBX 10 10 1 -1
BITMAP
FFC0
8040
4080
4080
2100
2100
3200
1600
1600
0C00
ENDCHAR
STARTCHAR 25C6
ENCODING 9670
SWIDTH 1040 0
DWIDTH 13 0
BBX 12 12 0 -2
BITMAP
0600
0F00
1F80
3FC0
7FE0
FFF0
7FE0
7FC0
3FC0
1F80
0F00
0600
ENDCHAR
STARTCHAR 25C7
ENCODING 9671
SWIDTH 1040 0
DWIDTH 13 0
BBX 12 12 0 -2
BITMAP
0600
0B00
1080
2040
4020
8010
4020
6040
2040
1080
0B00
0600
ENDCHAR
STARTCHAR 25CB
ENCODING 9675
SWIDTH 1040 0
DWIDTH 13 0
BBX 11 11 1 -1
BITMAP
0E00
3180
4040
4040
8020
8020
4040
4040
4040
3180
0E00
ENDCHAR
STARTCHAR 25CE
ENCODING 9678
SWIDTH 1040 0
DWIDTH 13 0
BBX 11 11 1 -1
BITMAP
0E00
3180
4040
4E40
9120
9120
4E40
4E40
4040
3180
0E00
ENDCHAR
STARTCHAR 25CF
ENCODING 9679
SWIDTH 1040 0
DWIDTH 13 0
BBX 11 11 1 -1
BITMAP
0E00
3F80
7FC0
7FC0
FFE0
FFE0
7FC0
7FC0
7FC0
3F80
0E00
ENDCHAR
STARTCHAR 25EF
ENCODING 9711
SWIDTH 1040 0
DWIDTH 13 0
BBX 12 12 0 -2
BITMAP
0F00
30C0
4020
4020
8010
8010
8010
C030
4020
4020
30C0
0F00
ENDCHAR
STARTCHAR 2605
ENCODING 9733
SWIDTH 1040 0
DWIDTH 13 0
BBX 12 12 0 -1
BITMAP
0600
0600
0F00
0F00
FFF0
3FC0
1F80
1F80
1BC0
3BC0
30C0
4020
ENDCHAR
STARTCHAR 2606
ENCODING 9734
SWIDTH 1040 0
DWIDTH 13 0
BBX 12 12 0 -1
BITMAP
0600
0600
0B00
0B00
FBF0
2040
1080
1680
3B40
2B40
30C0
4020
ENDCHAR
STARTCHAR 2640
ENCODING 9792
SWIDTH 1040 0
DWIDTH 13 0
BBX 8 11 2 -1
BITMAP
3C
42
42
42
3C
18
18
1F
FF
18
18
ENDCHAR
STARTCHAR 2642
ENCODING 9794
SWIDTH 1040 0
DWIDTH 13 0
BBX 10 10 1 -1
BITMAP
0FC0
00C0
0140
0640
7C40
8C00
8C00
8C00
8C00
7000
ENDCHAR
STARTCHAR 266A
ENCODING 9834
SWIDTH 1040 0
DWIDTH 13 0
BBX 8 11 2 -1
BITMAP
18
1C
1A
19
19
1A
18
18
78
F8
E0
ENDCHAR
STARTCHAR 266D
ENCODING 9837
SWIDTH 1040 0
DWIDTH 13 0
BBX 6 11 3 -1
BITMAP
80
80
80
B8
C4
84
84
9C
98
B0
C0
ENDCHAR
STARTCHAR 266F
ENCODING 9839
SWIDTH 1040 0
DWIDTH 13 0
BBX 9 11 2 -1
BITMAP
2200
2200
2380
3E00
E200
2380
3E00
2200
E200
2200
2200
ENDCHAR
STARTCHAR 3000
ENCODING 12288
SWIDTH 1040 0
DWIDTH 13 0
BBX 0 0 0 0
BITMAP
ENDCHAR
STARTCHAR 3001
ENCODING 12289
SWIDTH 1040 0
DWIDTH 13 0
BBX 2 2 1 -2
BITMAP
80
40
ENDCHAR
STARTCHAR 3002
ENCODING 12290
SWIDTH 1040 0
DWIDTH 13 0
BBX 4 5 1 -2
BITMAP
60
60
90
90
60
ENDCHAR
STARTCHAR 3003
ENCODING 12291
SWIDTH 1040 0
DWIDTH 13 0
BBX 6 7 3 1
BITMAP
44
44
44
98
98
98
98
ENDCHAR
STARTCHAR 3005
ENCODING 12293
SWIDTH 1040 0
DWIDTH 13 0
BBX 8 10 2 -1
BITMAP
40
40
7F
81
81
02
24
2C
18
0C
ENDCHAR
STARTCHAR 3006
ENCODING 12294
SWIDTH 1040 0
DWIDTH 13 0
BBX 10 10 1 -1
BITMAP
0040
0080
3D00
4600
8D00
9080
B0C0
A040
C000
8000
ENDCHAR
STARTCHAR 3007
ENCODING 12295
SWIDTH 1040 0
DWIDTH 13 0
BBX 12 10 0 -1
BITMAP
0F00
30C0
4020
8010
8010
8010
C030
4020
30C0
0F00
ENDCHAR
STARTCHAR 3008
ENCODING 12296
SWIDTH 1040 0
DWIDTH 13 0
BBX 3 12 8 -2
BITMAP
20
20
40
40
80
80
80
C0
40
40
20
20
ENDCHAR
STARTCHAR 3009
ENCODING 12297
SWIDTH 1040 0
DWIDTH 13 0
BBX 3 12 1 -2
BITMAP
80
80
40
40
20
20
20
60
40
40
80
80
ENDCHAR
STARTCHAR 300A
ENCODING 12298
SWIDTH 1040 0
DWIDTH 13 0
BBX 7 12 5 -2
BITMAP
12
12
64
64
C8
C8
C8
EC
64
64
12
12
ENDCHAR
STARTCHAR 300B
ENCODING 12299
SWIDTH 1040 0
DWIDTH 13 0
BBX 7 12 0 -2
BITMAP
90
90
48
48
26
26
26
6E
48
48
90
90
ENDCHAR
STARTCHAR 300C
ENCODING 12300
SWIDTH 1040 0
DWIDTH 13 0
BBX 5 9 6 2
BITMAP
F8
C0
C0
C0
C0
C0
C0
C0
C0
ENDCHAR
STARTCHAR 300D
ENCODING 12301
SWIDTH 1040 0
DWIDTH 13 0
BBX 4 9 1 -3
BITMAP
10
10
10
10
10
10
10
10
F0
ENDCHAR
STARTCHAR 300E
ENCODING 12302
SWIDTH 1040 0
DWIDTH 13 0
BBX 7 10 4 1
BITMAP
FE
82
BE
B0
B0
B0
B0
B0
B0
F0
ENDCHAR
STARTCHAR 300F
ENCODING 12303
SWIDTH 1040 0
DWIDTH 13 0
BBX 7 10 1 -3
BITMAP
1E
16
16
16
16
16
16
F6
86
FE
ENDCHAR
STARTCHAR 3010
ENCODING 12304
SWIDTH 1040 0
DWIDTH 13 0
BBX 5 14 6 -3
BITMAP
F8
F0
E0
E0
C0
C0
C0
C0
C0
C0
E0
E0
F0
F8
ENDCHAR
STARTCHAR 3011
ENCODING 12305
SWIDTH 1040 0
DWIDTH 13 0
BBX 4 14 1 -3
BITMAP
F0
70
30
30
10
10
10
10
10
10
30
30
70
F0
ENDCHAR
STARTCHAR 3012
ENCODING 12306
SWIDTH 1040 0
DWIDTH 13 0
BBX 10 11 1 -1
BITMAP
FFC0
0000
0000
0000
FFC0
0C00
0C00
0C00
0C00
0C00
0C00
ENDCHAR
STARTCHAR 3013
ENCODING 12307
SWIDTH 1040 0
DWIDTH 13 0
BBX 10 8 1 0
BITMAP
FFC0
FFC0
FFC0
0000
FFC0
FFC0
FFC0
FFC0
ENDCHAR
STARTCHAR 3014
ENCODING 12308
SWIDTH 1040 0
DWIDTH 13 0
BBX 3 14 8 -3
BITMAP
20
40
80
80
80
80
80
80
80
80
80
80
40
20
ENDCHAR
STARTCHAR 3015
ENCODING 12309
SWIDTH 1040 0
DWIDTH 13 0
BBX 3 14 1 -3
BITMAP
80
40
20
20
20
20
20
20
20
20
20
20
40
80
ENDCHAR
STARTCHAR 301C
ENCODING 12316
SWIDTH 1040 0
DWIDTH 13 0
BBX 10 4 1 2
BITMAP
7000
8C40
0780
0780
ENDCHAR
STARTCHAR 301D
ENCODING 12317
SWIDTH 1040 0
DWIDTH 13 0
BBX 5 4 6 7
BITMAP
28
28
D0
D0
ENDCHAR
STARTCHAR 301F
ENCODING 12319
SWIDTH 1040 0
DWIDTH 13 0
BBX 4 5 1 -1
BITMAP
50
50
50
A0
A0
ENDCHAR
STARTCHAR 3041
ENCODING 12353
SWIDTH 1040 0
DWIDTH 13 0
BBX 8 9 2 -2
BITMAP
18
FF
20
3E
2D
6D
AD
B9
62
ENDCHAR
STARTCHAR 3042
ENCODING 12354
SWIDTH 1040 0
DWIDTH 13 0
BBX 11 12 1 -2
BITMAP
0C00
0CC0
FF00
1000
1F80
3140
5120
D720
9620
9C20
6C40
0180
ENDCHAR
STARTCHAR 3043
ENCODING 12355
SWIDTH 1040 0
DWIDTH 13 0
BBX 8 7 2 -1
BITMAP
82
82
81
81
81
99
60
ENDCHAR
STARTCHAR 3044
ENCODING 12356
SWIDTH 1040 0
DWIDTH 13 0
BBX 11 9 1 -1
BITMAP
4000
4080
8040
8040
8020
8620
8620
4C00
3000
ENDCHAR
STARTCHAR 3045
ENCODING 12357
SWIDTH 1040 0
DWIDTH 13 0
BBX 7 9 3 -2
BITMAP
70
1C
00
3C
42
C2
02
04
38
ENDCHAR
STARTCHAR 3046
ENCODING 12358
SWIDTH 1040 0
DWIDTH 13 0
BBX 8 12 2 -2
BITMAP
78
0E
00
3C
C2
01
01
01
01
02
1C
60
ENDCHAR
STARTCHAR 3047
ENCODING 12359
SWIDTH 1040 0
DWIDTH 13 0
BBX 7 9 3 -2
BITMAP
70
1C
00
FC
F8
18
30
58
86
ENDCHAR
STARTCHAR 3048
ENCODING 12360
SWIDTH 1040 0
DWIDTH 13 0
BBX 10 12 1 -2
BITMAP
1C00
0700
0000
7F00
0100
0600
0C00
0C00
1C00
2600
4600
81C0
ENDCHAR
STARTCHAR 3049
ENCODING 12361
SWIDTH 1040 0
DWIDTH 13 0
BBX 9 9 2 -2
BITMAP
2000
2100
FC80
2000
3E00
7E00
A100
A100
CE00
ENDCHAR
STARTCHAR 304A
ENCODING 12362
SWIDTH 1040 0
DWIDTH 13 0
BBX 11 12 1 -2
BITMAP
1000
10C0
FE20
1000
1000
1F80
3040
7060
5020
9020
9040
6180
ENDCHAR
STARTCHAR 304B
ENCODING 12363
SWIDTH 1040 0
DWIDTH 13 0
BBX 11 12 1 -2
BITMAP
2000
2080
2080
FC40
2640
2620
4620
4620
4600
8600
8600
3C00
ENDCHAR
STARTCHAR 304C
ENCODING 12364
SWIDTH 1040 0
DWIDTH 13 0
BBX 11 12 1 -2
BITMAP
2040
2120
2080
FC00
2640
2640
4620
4620
4620
8600
8600
3C00
ENDCHAR
STARTCHAR 304D
ENCODING 12365
SWIDTH 1040 0
DWIDTH 13 0
BBX 10 12 1 -2
BITMAP
0C00
0D80
FE00
07C0
FE00
0100
3E80
7E80
4180
4000
2000
1F00
ENDCHAR
STARTCHAR 304E
ENCODING 12366
SWIDTH 1040 0
DWIDTH 13 0
BBX 11 13 1 -2
BITMAP
0040
0D20
0C80
FE00
07C0
FE00
0100
3E80
7E80
4180
4000
2000
1F00
ENDCHAR
STARTCHAR 304F
ENCODING 12367
SWIDTH 1040 0
DWIDTH 13 0
BBX 7 11 3 -2
BITMAP
04
18
30
40
80
80
F0
70
18
04
02
ENDCHAR
STARTCHAR 3050
ENCODING 12368
SWIDTH 1040 0
DWIDTH 13 0
BBX 10 11 2 -2
BITMAP
0C00
1880
2240
4100
8000
8000
E000
6000
1800
0C00
0200
ENDCHAR
STARTCHAR 3051
ENCODING 12369
SWIDTH 1040 0
DWIDTH 13 0
BBX 11 12 1 -2
BITMAP
0080
4080
4080
9FE0
8080
8080
8080
8080
8080
8080
4100
4E00
ENDCHAR
STARTCHAR 3052
ENCODING 12370
SWIDTH 1040 0
DWIDTH 13 0
BBX 12 12 0 -2
BITMAP
00A0
4090
40C0
9FA0
8080
8080
8080
8080
8080
8080
4300
4E00
ENDCHAR
STARTCHAR 3053
ENCODING 12371
SWIDTH 1040 0
DWIDTH 13 0
BBX 9 10 2 -1
BITMAP
7F00
0000
0000
0000
0000
4000
C000
8000
8080
7F00
ENDCHAR
STARTCHAR 3054
ENCODING 12372
SWIDTH 1040 0
DWIDTH 13 0
BBX 11 10 1 -1
BITMAP
7F40
0020
0080
0040
0000
4000
C000
8000
8080
7F00
ENDCHAR
STARTCHAR 3055
ENCODING 12373
SWIDTH 1040 0
DWIDTH 13 0
BBX 10 12 1 -2
BITMAP
0600
0600
06C0
FF00
0100
0100
3E80
7E80
4180
4000
2000
1F00
ENDCHAR
STARTCHAR 3056
ENCODING 12374
SWIDTH 1040 0
DWIDTH 13 0
BBX 12 12 0 -2
BITMAP
0820
0890
0F40
F800
0600
0300
3E80
7E80
4380
4000
2000
1F00
ENDCHAR
STARTCHAR 3057
ENCODING 12375
SWIDTH 1040 0
DWIDTH 13 0
BBX 8 11 3 -2
BITMAP
40
40
40
80
80
80
81
81
81
42
3C
ENDCHAR
STARTCHAR 3058
ENCODING 12376
SWIDTH 1040 0
DWIDTH 13 0
BBX 9 11 2 -2
BITMAP
4100
4C80
4200
8000
8000
8000
8100
8100
8100
4200
3C00
ENDCHAR
STARTCHAR 3059
ENCODING 12377
SWIDTH 1040 0
DWIDTH 13 0
BBX 12 12 0 -2
BITMAP
0300
0300
FFF0
0300
0F00
1300
1300
1300
0F00
0300
0600
1800
ENDCHAR
STARTCHAR 305A
ENCODING 12378
SWIDTH 1040 0
DWIDTH 13 0
BBX 12 12 0 -2
BITMAP
0300
0300
FFF0
0300
0F20
1310
1340
1360
0F20
0300
0600
1800
ENDCHAR
STARTCHAR 305B
ENCODING 12379
SWIDTH 1040 0
DWIDTH 13 0
BBX 11 12 1 -2
BITMAP
0080
2080
2080
27E0
FC80
2080
2080
2080
2780
2000
2000
1FC0
ENDCHAR
STARTCHAR 305C
ENCODING 12380
SWIDTH 1040 0
DWIDTH 13 0
BBX 12 12 0 -2
BITMAP
0080
20A0
2090
27C0
F8A0
2080
2080
2080
2780
2000
2000
1FC0
ENDCHAR
STARTCHAR 305D
ENCODING 12381
SWIDTH 1040 0
DWIDTH 13 0
BBX 11 11 1 -2
BITMAP
3F80
0100
0600
0C00
FFE0
0C00
1C00
1000
1000
1000
0F80
ENDCHAR
STARTCHAR 305E
ENCODING 12382
SWIDTH 1040 0
DWIDTH 13 0
BBX 12 11 0 -2
BITMAP
3F20
0390
0640
0800
FFE0
0800
1800
1000
1000
1000
0F80
ENDCHAR
STARTCHAR 305F
ENCODING 12383
SWIDTH 1040 0
DWIDTH 13 0
BBX 11 12 1 -2
BITMAP
2000
2000
FF80
2000
27C0
2000
4600
4E00
4C00
4C00
87E0
8000
ENDCHAR
STARTCHAR 3060
ENCODING 12384
SWIDTH 1040 0
DWIDTH 13 0
BBX 11 13 1 -2
BITMAP
0040
2120
2080
FF00
2000
27C0
2000
4600
4E00
4C00
4C00
87E0
8000
ENDCHAR
STARTCHAR 3061
ENCODING 12385
SWIDTH 1040 0
DWIDTH 13 0
BBX 11 12 1 -2
BITMAP
0C00
0C00
0DE0
FE00
1000
2F00
3080
30C0
0040
0040
0080
1F00
ENDCHAR
STARTCHAR 3062
ENCODING 12386
SWIDTH 1040 0
DWIDTH 13 0
BBX 12 13 0 -2
BITMAP
0020
0890
0840
0F80
F800
1000
2F00
3080
30C0
0040
0040
0080
1F00
ENDCHAR
STARTCHAR 3063
ENCODING 12387
SWIDTH 1040 0
DWIDTH 13 0
BBX 8 7 2 -2
BITMAP
3C
C2
C3
01
01
02
3C
ENDCHAR
STARTCHAR 3064
ENCODING 12388
SWIDTH 1040 0
DWIDTH 13 0
BBX 10 9 1 -1
BITMAP
1F00
E080
0040
0040
0040
00C0
0080
0700
3C00
ENDCHAR
STARTCHAR 3065
ENCODING 12389
SWIDTH 1040 0
DWIDTH 13 0
BBX 11 12 1 -1
BITMAP
0040
0120
0080
1F00
E080
0040
0040
0040
00C0
0080
0700
3C00
ENDCHAR
STARTCHAR 3066
ENCODING 12390
SWIDTH 1040 0
DWIDTH 13 0
BBX 11 10 0 -2
BITMAP
0FE0
F300
0600
0800
0800
0800
0800
0800
0600
03C0
ENDCHAR
STARTCHAR 3067
ENCODING 12391
SWIDTH 1040 0
DWIDTH 13 0
BBX 12 10 0 -2
BITMAP
0FE0
F300
0620
0890
0840
0840
0800
0800
0600
03C0
ENDCHAR
STARTCHAR 3068
ENCODING 12392
SWIDTH 1040 0
DWIDTH 13 0
BBX 8 12 2 -2
BITMAP
20
20
20
18
1F
38
40
C0
80
80
40
3F
ENDCHAR
STARTCHAR 3069
ENCODING 12393
SWIDTH 1040 0
DWIDTH 13 0
BBX 10 13 1 -2
BITMAP
0080
2640
2100
2000
1000
1F00
3000
4000
C000
8000
8000
4000
3F00
ENDCHAR
STARTCHAR 306A
ENCODING 12394
SWIDTH 1040 0
DWIDTH 13 0
BBX 12 12 0 -2
BITMAP
0800
0860
FF10
1000
1040
2040
2040
6040
47C0
4860
0850
0780
ENDCHAR
STARTCHAR 306B
ENCODING 12395
SWIDTH 1040 0
DWIDTH 13 0
BBX 11 11 1 -2
BITMAP
4000
47C0
8000
8000
8000
8600
8E00
8C00
8C00
47E0
4000
ENDCHAR
STARTCHAR 306C
ENCODING 12396
SWIDTH 1040 0
DWIDTH 13 0
BBX 11 12 1 -2
BITMAP
0600
0600
4600
5F80
6640
4620
AC20
ADA0
ADA0
9660
6640
01A0
ENDCHAR
STARTCHAR 306D
ENCODING 12397
SWIDTH 1040 0
DWIDTH 13 0
BBX 11 12 1 -2
BITMAP
2000
2000
2000
E780
2C40
3020
2020
21A0
61A0
A660
2640
21A0
ENDCHAR
STARTCHAR 306E
ENCODING 12398
SWIDTH 1040 0
DWIDTH 13 0
BBX 11 9 1 -1
BITMAP
1F80
2C40
4C20
8C20
9020
9020
9020
6040
0180
ENDCHAR
STARTCHAR 306F
ENCODING 12399
SWIDTH 1040 0
DWIDTH 13 0
BBX 11 12 1 -2
BITMAP
0080
4080
4080
9FE0
8080
8080
8080
8080
8F80
90C0
50A0
4F00
ENDCHAR
STARTCHAR 3070
ENCODING 12400
SWIDTH 1040 0
DWIDTH 13 0
BBX 12 12 0 -2
BITMAP
00A0
4090
40C0
9FA0
8080
8080
8080
8080
8F80
90C0
50A0
4F00
ENDCHAR
STARTCHAR 3071
ENCODING 12401
SWIDTH 1040 0
DWIDTH 13 0
BBX 12 12 0 -2
BITMAP
0060
4090
4090
9FE0
8080
8080
8080
8080
8F80
90C0
50A0
4F00
ENDCHAR
STARTCHAR 3072
ENCODING 12402
SWIDTH 1040 0
DWIDTH 13 0
BBX 11 11 1 -2
BITMAP
F100
1100
2080
40C0
40A0
8080
8180
8100
8100
4600
3C00
ENDCHAR
STARTCHAR 3073
ENCODING 12403
SWIDTH 1040 0
DWIDTH 13 0
BBX 11 12 1 -2
BITMAP
0040
F120
1080
2000
4080
40C0
80A0
81A0
8100
8100
4600
3C00
ENDCHAR
STARTCHAR 3074
ENCODING 12404
SWIDTH 1040 0
DWIDTH 13 0
BBX 11 12 1 -2
BITMAP
00C0
F120
1120
20C0
40A0
4080
8080
8180
8100
8100
4600
3C00
ENDCHAR
STARTCHAR 3075
ENCODING 12405
SWIDTH 1040 0
DWIDTH 13 0
BBX 11 11 1 -2
BITMAP
3F00
0100
0600
0C00
4C40
4C40
4E60
4620
8620
8620
1C00
ENDCHAR
STARTCHAR 3076
ENCODING 12406
SWIDTH 1040 0
DWIDTH 13 0
BBX 11 12 1 -2
BITMAP
0040
3F20
0180
0640
0C00
4C00
4C40
4E40
4640
8620
8620
1C00
ENDCHAR
STARTCHAR 3077
ENCODING 12407
SWIDTH 1040 0
DWIDTH 13 0
BBX 11 12 1 -2
BITMAP
00C0
3F20
0120
06C0
0C00
4C00
4C40
4E40
4640
8620
8620
1C00
ENDCHAR
STARTCHAR 3078
ENCODING 12408
SWIDTH 1040 0
DWIDTH 13 0
BBX 12 6 0 0
BITMAP
3800
4600
8300
83C0
00C0
0030
ENDCHAR
STARTCHAR 3079
ENCODING 12409
SWIDTH 1040 0
DWIDTH 13 0
BBX 12 9 0 0
BITMAP
0040
0320
0080
3800
4600
8300
83C0
00C0
0030
ENDCHAR
STARTCHAR 307A
ENCODING 12410
SWIDTH 1040 0
DWIDTH 13 0
BBX 12 9 0 0
BITMAP
00C0
0320
0320
38C0
4600
8300
83C0
00C0
0030
ENDCHAR
STARTCHAR 307B
ENCODING 12411
SWIDTH 1040 0
DWIDTH 13 0
BBX 11 11 1 -2
BITMAP
5FE0
4080
8080
9FE0
8080
8080
8080
8F80
90C0
50A0
4F00
ENDCHAR
STARTCHAR 307C
ENCODING 12412
SWIDTH 1040 0
DWIDTH 13 0
BBX 12 12 0 -2
BITMAP
0020
5F90
40C0
8080
9FE0
8080
8080
8080
8F80
90C0
50A0
4F00
ENDCHAR
STARTCHAR 307D
ENCODING 12413
SWIDTH 1040 0
DWIDTH 13 0
BBX 12 12 0 -2
BITMAP
0060
5F90
4090
80E0
9F80
8080
8080
8080
8F80
90C0
50A0
4F00
ENDCHAR
STARTCHAR 307E
ENCODING 12414
SWIDTH 1040 0
DWIDTH 13 0
BBX 10 12 1 -2
BITMAP
0600
0600
FFC0
0600
7FC0
0600
0600
0600
3E00
4780
4640
3C00
ENDCHAR
STARTCHAR 307F
ENCODING 12415
SWIDTH 1040 0
DWIDTH 13 0
BBX 12 11 0 -2
BITMAP
7E00
0640
0640
0640
3FC0
4860
C850
8850
9040
6080
0700
ENDCHAR
STARTCHAR 3080
ENCODING 12416
SWIDTH 1040 0
DWIDTH 13 0
BBX 11 12 1 -2
BITMAP
1000
1000
FEC0
1020
1000
7000
9000
9040
9040
7040
1040
0F80
ENDCHAR
STARTCHAR 3081
ENCODING 12417
SWIDTH 1040 0
DWIDTH 13 0
BBX 11 12 1 -2
BITMAP
0600
0600
4600
5F80
2640
6620
AC20
AC20
9C20
9020
6040
0180
ENDCHAR
STARTCHAR 3082
ENCODING 12418
SWIDTH 1040 0
DWIDTH 13 0
BBX 10 12 1 -2
BITMAP
1000
1000
FF80
1000
1000
FF80
2000
2040
2040
2040
1080
0F00
ENDCHAR
STARTCHAR 3083
ENCODING 12419
SWIDTH 1040 0
DWIDTH 13 0
BBX 8 9 2 -2
BITMAP
0C
4C
5E
ED
ED
21
22
18
18
ENDCHAR
STARTCHAR 3084
ENCODING 12420
SWIDTH 1040 0
DWIDTH 13 0
BBX 11 12 1 -2
BITMAP
0100
2100
21C0
2F20
3120
D020
0CC0
0CC0
0C00
0C00
0600
0600
ENDCHAR
STARTCHAR 3085
ENCODING 12421
SWIDTH 1040 0
DWIDTH 13 0
BBX 9 9 2 -2
BITMAP
0C00
8C00
9F00
A280
E280
C280
5F00
4200
0C00
ENDCHAR
STARTCHAR 3086
ENCODING 12422
SWIDTH 1040 0
DWIDTH 13 0
BBX 11 12 1 -2
BITMAP
0100
0100
8FC0
9120
A120
A120
4120
41E0
4FC0
4100
0100
0E00
ENDCHAR
STARTCHAR 3087
ENCODING 12423
SWIDTH 1040 0
DWIDTH 13 0
BBX 7 9 3 -2
BITMAP
18
18
1E
18
18
78
9C
9A
70
ENDCHAR
STARTCHAR 3088
ENCODING 12424
SWIDTH 1040 0
DWIDTH 13 0
BBX 9 12 1 -2
BITMAP
0C00
0C00
0C00
0F80
0C00
0C00
0C00
0C00
7C00
8F00
8C80
7000
ENDCHAR
STARTCHAR 3089
ENCODING 12425
SWIDTH 1040 0
DWIDTH 13 0
BBX 9 12 2 -2
BITMAP
3800
0E00
0000
8000
8000
9E00
E100
E180
0080
0080
0300
3C00
ENDCHAR
STARTCHAR 308A
ENCODING 12426
SWIDTH 1040 0
DWIDTH 13 0
BBX 7 11 3 -2
BITMAP
82
82
82
82
82
B2
F2
42
02
04
38
ENDCHAR
STARTCHAR 308B
ENCODING 12427
SWIDTH 1040 0
DWIDTH 13 0
BBX 9 11 2 -2
BITMAP
7F00
0200
0C00
1E00
6100
8080
B880
3880
4C80
4D00
3E00
ENDCHAR
STARTCHAR 308C
ENCODING 12428
SWIDTH 1040 0
DWIDTH 13 0
BBX 11 12 1 -2
BITMAP
2000
2000
2000
E780
2C40
3040
2040
20C0
6080
A080
2080
2060
ENDCHAR
STARTCHAR 308D
ENCODING 12429
SWIDTH 1040 0
DWIDTH 13 0
BBX 9 11 2 -2
BITMAP
7F00
0200
0C00
1E00
6100
8080
8080
0080
0080
0300
3C00
ENDCHAR
STARTCHAR 308E
ENCODING 12430
SWIDTH 1040 0
DWIDTH 13 0
BBX 8 9 2 -2
BITMAP
20
20
EE
39
21
21
61
A1
2E
ENDCHAR
STARTCHAR 308F
ENCODING 12431
SWIDTH 1040 0
DWIDTH 13 0
BBX 11 12 1 -2
BITMAP
2000
2000
2000
E780
2C40
3020
2020
2020
6020
A020
2040
2180
ENDCHAR
STARTCHAR 3090
ENCODING 12432
SWIDTH 1040 0
DWIDTH 13 0
BBX 11 11 1 -2
BITMAP
7E00
0600
0780
3C40
4C20
8C20
9C20
90E0
9120
6120
00C0
ENDCHAR
STARTCHAR 3091
ENCODING 12433
SWIDTH 1040 0
DWIDTH 13 0
BBX 11 12 1 -2
BITMAP
7FC0
0100
0600
1F80
6040
1E40
2180
2100
3F00
1000
71C0
8E20
ENDCHAR
STARTCHAR 3092
ENCODING 12434
SWIDTH 1040 0
DWIDTH 13 0
BBX 10 12 1 -2
BITMAP
1000
1000
FF80
2000
3C00
46C0
8F00
9E00
9600
2600
2000
1F80
ENDCHAR
STARTCHAR 3093
ENCODING 12435
SWIDTH 1040 0
DWIDTH 13 0
BBX 11 11 1 -2
BITMAP
0C00
0C00
1000
1000
2E00
3100
7100
4100
4120
8120
80C0
ENDCHAR
STARTCHAR 3094
ENCODING 12436
SWIDTH 1040 0
DWIDTH 13 0
BBX 10 13 1 -2
BITMAP
0080
6040
1D00
0080
3C00
C600
0100
0100
0100
0100
0600
1C00
6000
ENDCHAR
STARTCHAR 309B
ENCODING 12443
SWIDTH 1040 0
DWIDTH 13 0
BBX 4 3 1 8
BITMAP
20
90
40
ENDCHAR
STARTCHAR 309C
ENCODING 12444
SWIDTH 1040 0
DWIDTH 13 0
BBX 4 4 1 7
BITMAP
60
90
90
60
ENDCHAR
STARTCHAR 309D
ENCODING 12445
SWIDTH 1040 0
DWIDTH 13 0
BBX 5 7 4 1
BITMAP
80
60
30
30
08
08
F8
ENDCHAR
STARTCHAR 309E
ENCODING 12446
SWIDTH 1040 0
DWIDTH 13 0
BBX 8 9 3 1
BITMAP
02
19
84
40
30
30
18
18
F8
ENDCHAR
STARTCHAR 30A1
ENCODING 12449
SWIDTH 1040 0
DWIDTH 13 0
BBX 8 8 2 -2
BITMAP
FF
01
19
1A
1A
18
20
40
ENDCHAR
STARTCHAR 30A2
ENCODING 12450
SWIDTH 1040 0
DWIDTH 13 0
BBX 11 11 1 -2
BITMAP
FFE0
0020
0040
0C80
0C00
0C00
0C00
0C00
0C00
1000
6000
ENDCHAR
STARTCHAR 30A3
ENCODING 12451
SWIDTH 1040 0
DWIDTH 13 0
BBX 7 8 3 -2
BITMAP
02
04
38
58
D8
18
18
18
ENDCHAR
STARTCHAR 30A4
ENCODING 12452
SWIDTH 1040 0
DWIDTH 13 0
BBX 10 11 1 -2
BITMAP
0040
0080
0100
0E00
3600
C600
C600
0600
0600
0600
0600
ENDCHAR
STARTCHAR 30A5
ENCODING 12453
SWIDTH 1040 0
DWIDTH 13 0
BBX 8 9 2 -2
BITMAP
18
18
FF
81
81
81
01
02
3C
ENDCHAR
STARTCHAR 30A6
ENCODING 12454
SWIDTH 1040 0
DWIDTH 13 0
BBX 10 12 1 -2
BITMAP
0C00
0C00
FFC0
8040
8040
8040
0080
0080
0080
0100
0E00
3000
ENDCHAR
STARTCHAR 30A7
ENCODING 12455
SWIDTH 1040 0
DWIDTH 13 0
BBX 8 7 2 -1
BITMAP
FF
18
18
18
18
18
FF
ENDCHAR
STARTCHAR 30A8
ENCODING 12456
SWIDTH 1040 0
DWIDTH 13 0
BBX 12 9 0 -1
BITMAP
7FE0
0600
0600
0600
0600
0600
0600
0600
FFF0
ENDCHAR
STARTCHAR 30A9
ENCODING 12457
SWIDTH 1040 0
DWIDTH 13 0
BBX 8 9 2 -2
BITMAP
0C
0C
FF
0C
0C
1C
2C
CC
1C
ENDCHAR
STARTCHAR 30AA
ENCODING 12458
SWIDTH 1040 0
DWIDTH 13 0
BBX 11 12 1 -2
BITMAP
0100
0100
0100
FFE0
0100
0700
0D00
1100
3100
C100
0100
0F00
ENDCHAR
STARTCHAR 30AB
ENCODING 12459
SWIDTH 1040 0
DWIDTH 13 0
BBX 11 12 1 -2
BITMAP
0C00
0C00
0C00
FFE0
0C20
0C20
0C20
1C20
1020
1020
2020
C1C0
ENDCHAR
STARTCHAR 30AC
ENCODING 12460
SWIDTH 1040 0
DWIDTH 13 0
BBX 12 13 0 -2
BITMAP
0020
0890
0840
0800
FFE0
0820
0820
0820
1820
1020
1020
2020
C3C0
ENDCHAR
STARTCHAR 30AD
ENCODING 12461
SWIDTH 1040 0
DWIDTH 13 0
BBX 11 12 1 -2
BITMAP
0C00
0C00
0C00
FFC0
0C00
0C00
0C00
0FE0
FFE0
0600
0600
0600
ENDCHAR
STARTCHAR 30AE
ENCODING 12462
SWIDTH 1040 0
DWIDTH 13 0
BBX 12 12 0 -2
BITMAP
0820
0890
0840
FF80
0800
0800
0800
0FE0
FFE0
0600
0600
0600
ENDCHAR
STARTCHAR 30AF
ENCODING 12463
SWIDTH 1040 0
DWIDTH 13 0
BBX 9 12 2 -2
BITMAP
1800
1800
1F80
2080
4080
8080
0100
0100
0100
0200
1C00
E000
ENDCHAR
STARTCHAR 30B0
ENCODING 12464
SWIDTH 1040 0
DWIDTH 13 0
BBX 11 13 1 -2
BITMAP
0040
1120
1080
1F80
2080
4080
8080
0100
0100
0100
0600
1C00
E000
ENDCHAR
STARTCHAR 30B1
ENCODING 12465
SWIDTH 1040 0
DWIDTH 13 0
BBX 11 12 1 -2
BITMAP
2000
2000
2000
3FE0
4100
8100
0100
0700
0600
0600
1C00
6000
ENDCHAR
STARTCHAR 30B2
ENCODING 12466
SWIDTH 1040 0
DWIDTH 13 0
BBX 12 13 0 -2
BITMAP
0020
2090
2040
2000
3FE0
4300
8300
0300
0700
0600
0600
1800
6000
ENDCHAR
STARTCHAR 30B3
ENCODING 12467
SWIDTH 1040 0
DWIDTH 13 0
BBX 10 10 1 -2
BITMAP
FFC0
0040
0040
0040
0040
0040
0040
0040
FFC0
0040
ENDCHAR
STARTCHAR 30B4
ENCODING 12468
SWIDTH 1040 0
DWIDTH 13 0
BBX 11 13 1 -2
BITMAP
0040
0620
0100
FFC0
0040
0040
0040
0040
0040
0040
0040
FFC0
0040
ENDCHAR
STARTCHAR 30B5
ENCODING 12469
SWIDTH 1040 0
DWIDTH 13 0
BBX 11 12 1 -2
BITMAP
2080
2080
2080
FFE0
2080
2080
2080
2180
0100
0100
0E00
3000
ENDCHAR
STARTCHAR 30B6
ENCODING 12470
SWIDTH 1040 0
DWIDTH 13 0
BBX 12 12 0 -2
BITMAP
20A0
2090
20C0
FFA0
2080
2080
2080
2380
0300
0300
0E00
3000
ENDCHAR
STARTCHAR 30B7
ENCODING 12471
SWIDTH 1040 0
DWIDTH 13 0
BBX 11 11 1 -2
BITMAP
6000
1C00
0020
C020
3040
0040
00C0
0080
0100
0E00
7000
ENDCHAR
STARTCHAR 30B8
ENCODING 12472
SWIDTH 1040 0
DWIDTH 13 0
BBX 11 13 1 -2
BITMAP
0040
0120
6080
1C00
0020
C020
3040
0040
00C0
0080
0100
0E00
7000
ENDCHAR
STARTCHAR 30B9
ENCODING 12473
SWIDTH 1040 0
DWIDTH 13 0
BBX 11 11 1 -2
BITMAP
7F80
0080
0080
0080
0100
0100
0100
0700
0C80
3040
C020
ENDCHAR
STARTCHAR 30BA
ENCODING 12474
SWIDTH 1040 0
DWIDTH 13 0
BBX 12 13 0 -2
BITMAP
0320
0090
7F80
0080
0080
0080
0300
0300
0300
0700
0880
3040
C020
ENDCHAR
STARTCHAR 30BB
ENCODING 12475
SWIDTH 1040 0
DWIDTH 13 0
BBX 12 12 0 -2
BITMAP
0800
0800
0870
0B90
1E20
E820
0840
0840
0800
0800
0800
07F0
ENDCHAR
STARTCHAR 30BC
ENCODING 12476
SWIDTH 1040 0
DWIDTH 13 0
BBX 12 13 0 -2
BITMAP
0020
0890
0840
0870
0B90
1E20
E820
0840
0840
0800
0800
0800
07F0
ENDCHAR
STARTCHAR 30BD
ENCODING 12477
SWIDTH 1040 0
DWIDTH 13 0
BBX 10 11 1 -2
BITMAP
8040
8040
4040
4040
0040
0080
0080
0080
0100
0E00
3000
ENDCHAR
STARTCHAR 30BE
ENCODING 12478
SWIDTH 1040 0
DWIDTH 13 0
BBX 12 13 0 -2
BITMAP
0020
0090
8040
8000
4040
4040
0040
0080
0080
0080
0300
0E00
3000
ENDCHAR
STARTCHAR 30BF
ENCODING 12479
SWIDTH 1040 0
DWIDTH 13 0
BBX 9 12 2 -2
BITMAP
1800
1800
1F80
2080
4080
9C80
0300
0300
0100
0200
1C00
E000
ENDCHAR
STARTCHAR 30C0
ENCODING 12480
SWIDTH 1040 0
DWIDTH 13 0
BBX 11 13 1 -2
BITMAP
0040
1120
1080
1F80
2080
4080
9C80
0700
0700
0100
0600
1C00
E000
ENDCHAR
STARTCHAR 30C1
ENCODING 12481
SWIDTH 1040 0
DWIDTH 13 0
BBX 12 11 0 -2
BITMAP
03E0
7E00
0600
0600
FFF0
0600
0600
0600
0600
0800
3000
ENDCHAR
STARTCHAR 30C2
ENCODING 12482
SWIDTH 1040 0
DWIDTH 13 0
BBX 12 12 0 -2
BITMAP
0020
0390
7E40
0600
0600
FFF0
0600
0600
0600
0600
0800
3000
ENDCHAR
STARTCHAR 30C3
ENCODING 12483
SWIDTH 1040 0
DWIDTH 13 0
BBX 8 8 2 -2
BITMAP
99
99
99
9B
02
02
1C
60
ENDCHAR
STARTCHAR 30C4
ENCODING 12484
SWIDTH 1040 0
DWIDTH 13 0
BBX 10 11 1 -2
BITMAP
9040
9040
4C40
4C40
0040
0080
0080
0080
0100
0E00
3000
ENDCHAR
STARTCHAR 30C5
ENCODING 12485
SWIDTH 1040 0
DWIDTH 13 0
BBX 12 13 0 -2
BITMAP
0020
0090
9040
9000
4840
4840
0040
0080
0080
0080
0300
0E00
3000
ENDCHAR
STARTCHAR 30C6
ENCODING 12486
SWIDTH 1040 0
DWIDTH 13 0
BBX 11 11 1 -2
BITMAP
7FC0
0000
0000
FFE0
0600
0600
0600
0600
0600
0C00
3000
ENDCHAR
STARTCHAR 30C7
ENCODING 12487
SWIDTH 1040 0
DWIDTH 13 0
BBX 12 13 0 -2
BITMAP
0020
0090
7F40
0000
0000
FFE0
0600
0600
0600
0600
0600
0800
3000
ENDCHAR
STARTCHAR 30C8
ENCODING 12488
SWIDTH 1040 0
DWIDTH 13 0
BBX 8 12 3 -2
BITMAP
80
80
80
80
F0
9C
83
83
80
80
80
80
ENDCHAR
STARTCHAR 30C9
ENCODING 12489
SWIDTH 1040 0
DWIDTH 13 0
BBX 9 12 2 -2
BITMAP
8100
8C80
8200
8000
E000
9C00
8300
8300
8000
8000
8000
8000
ENDCHAR
STARTCHAR 30CA
ENCODING 12490
SWIDTH 1040 0
DWIDTH 13 0
BBX 11 12 1 -2
BITMAP
0600
0600
0600
FFE0
0600
0600
0600
0E00
0C00
0C00
1000
6000
ENDCHAR
STARTCHAR 30CB
ENCODING 12491
SWIDTH 1040 0
DWIDTH 13 0
BBX 11 9 1 -1
BITMAP
7FC0
0000
0000
0000
0000
0000
0000
0000
FFE0
ENDCHAR
STARTCHAR 30CC
ENCODING 12492
SWIDTH 1040 0
DWIDTH 13 0
BBX 10 11 1 -2
BITMAP
7FC0
0040
0040
1080
0C80
0700
0700
0100
0680
1C40
E000
ENDCHAR
STARTCHAR 30CD
ENCODING 12493
SWIDTH 1040 0
DWIDTH 13 0
BBX 12 12 0 -2
BITMAP
0600
0600
7FC0
0040
0080
0300
0700
06C0
1EC0
E630
0600
0600
ENDCHAR
STARTCHAR 30CE
ENCODING 12494
SWIDTH 1040 0
DWIDTH 13 0
BBX 8 11 2 -2
BITMAP
01
01
01
01
01
02
02
02
0C
38
C0
ENDCHAR
STARTCHAR 30CF
ENCODING 12495
SWIDTH 1040 0
DWIDTH 13 0
BBX 11 11 1 -2
BITMAP
2000
2080
2080
2040
4040
4040
4060
4020
8020
8020
8020
ENDCHAR
STARTCHAR 30D0
ENCODING 12496
SWIDTH 1040 0
DWIDTH 13 0
BBX 11 12 1 -2
BITMAP
0040
0120
2080
2000
2000
2080
4080
40C0
4040
4040
8020
8020
ENDCHAR
STARTCHAR 30D1
ENCODING 12497
SWIDTH 1040 0
DWIDTH 13 0
BBX 11 12 1 -2
BITMAP
00C0
0120
2120
20C0
2000
2080
4080
40C0
4040
4040
8020
8020
ENDCHAR
STARTCHAR 30D2
ENCODING 12498
SWIDTH 1040 0
DWIDTH 13 0
BBX 9 12 2 -2
BITMAP
8000
8000
8000
8380
FC00
8000
8000
8000
8000
8000
8000
7F80
ENDCHAR
STARTCHAR 30D3
ENCODING 12499
SWIDTH 1040 0
DWIDTH 13 0
BBX 10 12 2 -2
BITMAP
0080
8240
8100
8000
8380
FC00
8000
8000
8000
8000
8000
7F80
ENDCHAR
STARTCHAR 30D4
ENCODING 12500
SWIDTH 1040 0
DWIDTH 13 0
BBX 11 12 1 -2
BITMAP
00C0
8120
8120
80C0
8E00
F000
8000
8000
8000
8000
8000
7F80
ENDCHAR
STARTCHAR 30D5
ENCODING 12501
SWIDTH 1040 0
DWIDTH 13 0
BBX 10 11 1 -2
BITMAP
FFC0
0040
0040
0040
0040
0080
0080
0080
0100
0E00
7000
ENDCHAR
STARTCHAR 30D6
ENCODING 12502
SWIDTH 1040 0
DWIDTH 13 0
BBX 12 13 0 -2
BITMAP
0020
0310
0080
FFC0
0040
0040
0040
0080
0080
0080
0300
0E00
3000
ENDCHAR
STARTCHAR 30D7
ENCODING 12503
SWIDTH 1040 0
DWIDTH 13 0
BBX 12 13 0 -2
BITMAP
0060
0090
FF90
0060
0040
0040
0040
0080
0080
0080
0300
0E00
3000
ENDCHAR
STARTCHAR 30D8
ENCODING 12504
SWIDTH 1040 0
DWIDTH 13 0
BBX 12 7 0 0
BITMAP
1E00
2300
4080
8040
8060
0020
0010
ENDCHAR
STARTCHAR 30D9
ENCODING 12505
SWIDTH 1040 0
DWIDTH 13 0
BBX 12 11 0 -1
BITMAP
0020
0090
0040
0000
1E00
2300
4080
80C0
8040
0020
0010
ENDCHAR
STARTCHAR 30DA
ENCODING 12506
SWIDTH 1040 0
DWIDTH 13 0
BBX 12 11 0 -1
BITMAP
0060
0090
0090
0060
1E00
2300
4080
80C0
8040
0020
0010
ENDCHAR
STARTCHAR 30DB
ENCODING 12507
SWIDTH 1040 0
DWIDTH 13 0
BBX 12 12 0 -2
BITMAP
0600
0600
0600
FFF0
0600
0600
2640
4660
4620
8610
0600
0E00
ENDCHAR
STARTCHAR 30DC
ENCODING 12508
SWIDTH 1040 0
DWIDTH 13 0
BBX 12 13 0 -2
BITMAP
0020
0690
0640
0600
FFF0
0600
0600
2640
4660
4620
8610
0600
0E00
ENDCHAR
STARTCHAR 30DD
ENCODING 12509
SWIDTH 1040 0
DWIDTH 13 0
BBX 12 12 0 -2
BITMAP
0660
0690
0690
FFE0
0600
0600
2640
4660
4620
8610
0600
0E00
ENDCHAR
STARTCHAR 30DE
ENCODING 12510
SWIDTH 1040 0
DWIDTH 13 0
BBX 11 10 1 -2
BITMAP
FFE0
0020
0040
0080
2100
3200
1600
0C00
0600
0100
ENDCHAR
STARTCHAR 30DF
ENCODING 12511
SWIDTH 1040 0
DWIDTH 13 0
BBX 8 11 2 -2
BITMAP
78
0F
00
00
78
0E
0E
00
00
F8
0F
ENDCHAR
STARTCHAR 30E0
ENCODING 12512
SWIDTH 1040 0
DWIDTH 13 0
BBX 11 12 0 -2
BITMAP
0800
0800
0800
0800
1000
1040
1040
3040
2040
27A0
F820
0020
ENDCHAR
STARTCHAR 30E1
ENCODING 12513
SWIDTH 1040 0
DWIDTH 13 0
BBX 11 12 1 -2
BITMAP
0100
0100
0100
0100
6100
1E00
0780
0660
0660
0C00
3000
C000
ENDCHAR
STARTCHAR 30E2
ENCODING 12514
SWIDTH 1040 0
DWIDTH 13 0
BBX 12 11 0 -2
BITMAP
7FC0
0800
0800
0800
FFF0
0800
0800
0800
0800
0800
07C0
ENDCHAR
STARTCHAR 30E3
ENCODING 12515
SWIDTH 1040 0
DWIDTH 13 0
BBX 8 9 2 -2
BITMAP
20
20
2F
F9
E3
22
1A
18
18
ENDCHAR
STARTCHAR 30E4
ENCODING 12516
SWIDTH 1040 0
DWIDTH 13 0
BBX 11 12 0 -2
BITMAP
1000
1000
10E0
1F20
E820
0840
0840
0840
0800
0600
0600
0600
ENDCHAR
STARTCHAR 30E5
ENCODING 12517
SWIDTH 1040 0
DWIDTH 13 0
BBX 9 7 1 -1
BITMAP
7E00
0600
0600
0600
0600
0600
FF80
ENDCHAR
STARTCHAR 30E6
ENCODING 12518
SWIDTH 1040 0
DWIDTH 13 0
BBX 12 9 0 -1
BITMAP
3F80
0080
0080
0080
0080
0080
0080
0080
FFF0
ENDCHAR
STARTCHAR 30E7
ENCODING 12519
SWIDTH 1040 0
DWIDTH 13 0
BBX 7 8 3 -2
BITMAP
FE
02
02
02
FE
02
02
FE
ENDCHAR
STARTCHAR 30E8
ENCODING 12520
SWIDTH 1040 0
DWIDTH 13 0
BBX 9 11 2 -2
BITMAP
FF80
0080
0080
0080
FF80
0080
0080
0080
0080
FF80
0080
ENDCHAR
STARTCHAR 30E9
ENCODING 12521
SWIDTH 1040 0
DWIDTH 13 0
BBX 10 11 1 -2
BITMAP
7F80
0000
0000
FFC0
0040
0040
00C0
0080
0100
0E00
3000
ENDCHAR
STARTCHAR 30EA
ENCODING 12522
SWIDTH 1040 0
DWIDTH 13 0
BBX 8 12 2 -2
BITMAP
81
81
81
81
81
81
01
03
02
02
0C
38
ENDCHAR
STARTCHAR 30EB
ENCODING 12523
SWIDTH 1040 0
DWIDTH 13 0
BBX 11 12 1 -2
BITMAP
0600
2600
2600
2600
2600
2620
2620
6660
4640
4640
8680
8700
ENDCHAR
STARTCHAR 30EC
ENCODING 12524
SWIDTH 1040 0
DWIDTH 13 0
BBX 9 11 2 -2
BITMAP
8000
8000
8000
8000
8000
8080
8180
8100
8200
9C00
E000
ENDCHAR
STARTCHAR 30ED
ENCODING 12525
SWIDTH 1040 0
DWIDTH 13 0
BBX 10 10 1 -2
BITMAP
FFC0
8040
8040
8040
8040
8040
8040
8040
FFC0
8040
ENDCHAR
STARTCHAR 30EE
ENCODING 12526
SWIDTH 1040 0
DWIDTH 13 0
BBX 8 8 2 -2
BITMAP
FF
81
81
81
01
01
02
3C
ENDCHAR
STARTCHAR 30EF
ENCODING 12527
SWIDTH 1040 0
DWIDTH 13 0
BBX 10 11 1 -2
BITMAP
FFC0
8040
8040
8040
0040
0080
0080
0080
0100
0E00
3000
ENDCHAR
STARTCHAR 30F0
ENCODING 12528
SWIDTH 1040 0
DWIDTH 13 0
BBX 11 12 1 -2
BITMAP
0100
0100
0100
7FC0
2100
2100
2100
21E0
FFE0
0100
0100
0100
ENDCHAR
STARTCHAR 30F1
ENCODING 12529
SWIDTH 1040 0
DWIDTH 13 0
BBX 11 9 1 -1
BITMAP
7FC0
0080
0100
0E00
0C00
0C00
0C00
0C00
FFE0
ENDCHAR
STARTCHAR 30F2
ENCODING 12530
SWIDTH 1040 0
DWIDTH 13 0
BBX 9 11 2 -2
BITMAP
FF80
0080
0080
FF80
0080
0100
0100
0100
0200
1C00
6000
ENDCHAR
STARTCHAR 30F3
ENCODING 12531
SWIDTH 1040 0
DWIDTH 13 0
BBX 10 11 2 -2
BITMAP
C000
3800
0040
0040
0080
0080
0180
0100
0200
1C00
E000
ENDCHAR
STARTCHAR 30F4
ENCODING 12532
SWIDTH 1040 0
DWIDTH 13 0
BBX 11 13 1 -2
BITMAP
0040
0D20
0C80
FFC0
8040
8040
8040
0080
0080
0080
0100
0E00
3000
ENDCHAR
STARTCHAR 30F5
ENCODING 12533
SWIDTH 1040 0
DWIDTH 13 0
BBX 8 9 2 -2
BITMAP
20
20
FF
21
21
21
21
41
4E
ENDCHAR
STARTCHAR 30F6
ENCODING 12534
SWIDTH 1040 0
DWIDTH 13 0
BBX 8 9 2 -2
BITMAP
40
40
7F
8C
8C
8C
0C
18
60
ENDCHAR
STARTCHAR 30FB
ENCODING 12539
SWIDTH 1040 0
DWIDTH 13 0
BBX 3 3 4 2
BITMAP
E0
E0
E0
ENDCHAR
STARTCHAR 30FC
ENCODING 12540
SWIDTH 1040 0
DWIDTH 13 0
BBX 10 2 1 4
BITMAP
8000
7FC0
ENDCHAR
STARTCHAR 30FD
ENCODING 12541
SWIDTH 1040 0
DWIDTH 13 0
BBX 5 7 3 1
BITMAP
80
40
30
30
18
18
18
ENDCHAR
STARTCHAR 30FE
ENCODING 12542
SWIDTH 1040 0
DWIDTH 13 0
BBX 9 9 2 1
BITMAP
0100
0C80
8200
4000
2000
2000
1800
1800
1800
ENDCHAR
STARTCHAR 3231
ENCODING 12849
SWIDTH 1040 0
DWIDTH 13 0
BBX 12 12 0 -2
BITMAP
2040
56A0
9690
FFF0
9690
B7F0
D890
90D0
93D0
96B0
50A0
2040
ENDCHAR
STARTCHAR 3232
ENCODING 12850
SWIDTH 1040 0
DWIDTH 13 0
BBX 12 12 0 -2
BITMAP
2040
4820
BFD0
8810
8F90
9890
AF90
A890
8890
8F90
48A0
2040
ENDCHAR
STARTCHAR 3239
ENCODING 12857
SWIDTH 1040 0
DWIDTH 13 0
BBX 12 12 0 -2
BITMAP
2040
4B20
8B50
9310
9FD0
B310
D310
9310
9310
9310
50A0
2040
ENDCHAR
STARTCHAR 32A4
ENCODING 12964
SWIDTH 1040 0
DWIDTH 13 0
BBX 12 12 0 -2
BITMAP
0F00
30C0
4620
4620
8790
8610
8610
87F0
7FE0
4020
30C0
0F00
ENDCHAR
STARTCHAR 32A5
ENCODING 12965
SWIDTH 1040 0
DWIDTH 13 0
BBX 12 12 0 -2
BITMAP
0F00
30C0
4620
7FE0
A650
A650
BFD0
FE30
4620
4620
30C0
0F00
ENDCHAR
STARTCHAR 32A6
ENCODING 12966
SWIDTH 1040 0
DWIDTH 13 0
BBX 12 12 0 -2
BITMAP
0F00
30C0
4020
7FE0
8610
8710
8690
C6B0
4620
4620
30C0
0F00
ENDCHAR
STARTCHAR 32A7
ENCODING 12967
SWIDTH 1040 0
DWIDTH 13 0
BBX 12 12 0 -2
BITMAP
0F00
30C0
4820
7FE0
8810
8F90
9310
F330
6320
4FE0
30C0
0F00
ENDCHAR
STARTCHAR 32A8
ENCODING 12968
SWIDTH 1040 0
DWIDTH 13 0
BBX 12 12 0 -2
BITMAP
0F00
30C0
4820
7FE0
8810
9F90
A890
E8B0
48A0
4FA0
30C0
0F00
ENDCHAR
STARTCHAR 3303
ENCODING 13059
SWIDTH 1040 0
DWIDTH 13 0
BBX 12 12 0 -2
BITMAP
FE00
0600
2800
23F0
2000
4000
1000
5000
5000
5300
5300
9E00
ENDCHAR
STARTCHAR 330D
ENCODING 13069
SWIDTH 1040 0
DWIDTH 13 0
BBX 12 12 0 -2
BITMAP
4000
FBF0
4B10
4B10
9BF0
0000
4800
4800
4800
4BF0
0800
3000
ENDCHAR
STARTCHAR 3314
ENCODING 13076
SWIDTH 1040 0
DWIDTH 13 0
BBX 12 12 0 -2
BITMAP
2000
F800
2000
2000
FE00
1000
13F0
1310
0310
0310
0310
03F0
ENDCHAR
STARTCHAR 3318
ENCODING 13080
SWIDTH 1040 0
DWIDTH 13 0
BBX 12 12 0 -2
BITMAP
56E0
7800
8BF0
0810
1010
E0E0
2000
2000
2000
4800
4600
FE00
ENDCHAR
STARTCHAR 3322
ENCODING 13090
SWIDTH 1040 0
DWIDTH 13 0
BBX 12 12 0 -2
BITMAP
4300
F890
4810
4020
3BC0
0000
7800
7000
1000
FE00
1000
6000
ENDCHAR
STARTCHAR 3323
ENCODING 13091
SWIDTH 1040 0
DWIDTH 13 0
BBX 12 12 0 -2
BITMAP
4300
F890
4810
4020
3BC0
0000
4000
4000
4000
7800
4000
4000
ENDCHAR
STARTCHAR 3326
ENCODING 13094
SWIDTH 1040 0
DWIDTH 13 0
BBX 11 12 1 -2
BITMAP
AC00
AC00
8000
F000
8000
8680
8680
8680
0680
06A0
06A0
0CC0
ENDCHAR
STARTCHAR 3327
ENCODING 13095
SWIDTH 1040 0
DWIDTH 13 0
BBX 11 12 1 -2
BITMAP
8000
8000
8000
F000
8000
8000
8E20
8F20
0120
0020
0040
0F80
ENDCHAR
STARTCHAR 332B
ENCODING 13099
SWIDTH 1040 0
DWIDTH 13 0
BBX 12 12 0 -2
BITMAP
5300
5680
5300
48F0
8800
0000
48A0
56A0
F6A0
50B0
40A0
7720
ENDCHAR
STARTCHAR 3336
ENCODING 13110
SWIDTH 1040 0
DWIDTH 13 0
BBX 12 12 0 -2
BITMAP
0080
60F0
9390
8810
0620
40C0
7020
90A0
90A0
50A0
2FA0
C0B0
ENDCHAR
STARTCHAR 333B
ENCODING 13115
SWIDTH 1040 0
DWIDTH 13 0
BBX 12 12 0 -2
BITMAP
0600
6B00
9600
88F0
0600
0000
C340
CB40
0B40
C800
1000
E000
ENDCHAR
STARTCHAR 3349
ENCODING 13129
SWIDTH 1040 0
DWIDTH 13 0
BBX 12 12 0 -2
BITMAP
E000
1800
E000
1800
E000
1B10
0310
0310
0310
0310
0020
00C0
ENDCHAR
STARTCHAR 334A
ENCODING 13130
SWIDTH 1040 0
DWIDTH 13 0
BBX 12 12 0 -2
BITMAP
F320
0320
F320
0020
F0C0
0000
A8A0
A8A0
80A0
AFA0
90A0
90B0
ENDCHAR
STARTCHAR 334D
ENCODING 13133
SWIDTH 1040 0
DWIDTH 13 0
BBX 12 12 0 -2
BITMAP
0800
4800
33F0
1800
E600
0000
4340
4340
4340
7B40
4350
4660
ENDCHAR
STARTCHAR 3351
ENCODING 13137
SWIDTH 1040 0
DWIDTH 13 0
BBX 12 12 0 -2
BITMAP
9000
9350
9350
1010
60E0
0000
8640
8640
8640
F640
8650
8660
ENDCHAR
STARTCHAR 3357
ENCODING 13143
SWIDTH 1040 0
DWIDTH 13 0
BBX 12 12 0 -2
BITMAP
F800
8B50
8B50
0810
70E0
0000
4000
4000
4000
7800
4000
4000
ENDCHAR
STARTCHAR 337B
ENCODING 13179
SWIDTH 1040 0
DWIDTH 13 0
BBX 12 12 0 -2
BITMAP
0050
FBF0
2340
AB50
AB50
ABA0
23A0
22A0
FEA0
26A0
2BD0
2850
ENDCHAR
STARTCHAR 337C
ENCODING 13180
SWIDTH 1040 0
DWIDTH 13 0
BBX 12 12 0 -2
BITMAP
7780
2B00
EB70
AFD0
BB50
E350
BF50
AB50
ABD0
AB50
EB50
3B70
ENDCHAR
STARTCHAR 337D
ENCODING 13181
SWIDTH 1040 0
DWIDTH 13 0
BBX 12 12 0 -2
BITMAP
2000
27F0
2040
F840
2340
2370
5340
5340
5340
5340
8B40
8FF0
ENDCHAR
STARTCHAR 337E
ENCODING 13182
SWIDTH 1040 0
DWIDTH 13 0
BBX 12 12 0 -2
BITMAP
3840
EE40
AB40
B890
EE90
ABF0
B800
A8F0
E8F0
2B90
2E90
48F0
ENDCHAR
STARTCHAR 338E
ENCODING 13198
SWIDTH 1040 0
DWIDTH 13 0
BBX 12 9 0 -2
BITMAP
0030
F0C0
AB20
A8C0
ABC0
AB00
A8E0
AB10
00E0
ENDCHAR
STARTCHAR 338F
ENCODING 13199
SWIDTH 1040 0
DWIDTH 13 0
BBX 12 11 0 -2
BITMAP
8000
8000
8030
90C0
A320
C0C0
A3C0
A300
90E0
8B10
00E0
ENDCHAR
STARTCHAR 339C
ENCODING 13212
SWIDTH 1040 0
DWIDTH 13 0
BBX 12 7 0 -1
BITMAP
F3E0
AB50
AB50
AB50
AB50
AB50
AB50
ENDCHAR
STARTCHAR 339D
ENCODING 13213
SWIDTH 1040 0
DWIDTH 13 0
BBX 12 7 0 -1
BITMAP
73E0
8B50
8350
8350
8350
8B50
7350
ENDCHAR
STARTCHAR 339E
ENCODING 13214
SWIDTH 1040 0
DWIDTH 13 0
BBX 12 10 0 -1
BITMAP
8000
8000
8000
93E0
A350
C350
A350
A350
9350
8B50
ENDCHAR
STARTCHAR 33A1
ENCODING 13217
SWIDTH 1040 0
DWIDTH 13 0
BBX 12 11 0 -1
BITMAP
0060
0090
0020
0040
FEF0
9300
9300
9300
9300
9300
9300
ENDCHAR
STARTCHAR 33C4
ENCODING 13252
SWIDTH 1040 0
DWIDTH 13 0
BBX 12 7 0 -1
BITMAP
70E0
8B10
8300
8300
8300
8B10
70E0
ENDCHAR
STARTCHAR 33CD
ENCODING 13261
SWIDTH 1040 0
DWIDTH 13 0
BBX 10 10 1 -1
BITMAP
9640
9640
A680
A680
C700
A680
A680
A680
9640
9640
ENDCHAR
STARTCHAR 4E00
ENCODING 19968
SWIDTH 1040 0
DWIDTH 13 0
BBX 12 1 0 4
BITMAP
FFF0
ENDCHAR
STARTCHAR 4E01
ENCODING 19969
SWIDTH 1040 0
DWIDTH 13 0
BBX 12 12 0 -2
BITMAP
FFF0
0300
0300
0300
0300
0300
0300
0300
0300
0300
0300
1F00
ENDCHAR
STARTCHAR 4E03
ENCODING 19971
SWIDTH 1040 0
DWIDTH 13 0
BBX 12 13 0 -2
BITMAP
1000
1000
1000
1070
1F80
F000
1000
1000
1000
1000
1020
1020
0FE0
ENDCHAR
STARTCHAR 4E07
ENCODING 19975
SWIDTH 1040 0
DWIDTH 13 0
BBX 12 12 0 -2
BITMAP
FFF0
0800
0800
0800
0FE0
0820
1020
1020
1020
2020
2040
0780
ENDCHAR
STARTCHAR 4E08
ENCODING 19976
SWIDTH 1040 0
DWIDTH 13 0
BBX 12 13 0 -2
BITMAP
0300
0300
0300
FFF0
0300
0300
1300
0B00
0A00
0600
0B00
30C0
C030
ENDCHAR
STARTCHAR 4E09
ENCODING 19977
SWIDTH 1040 0
DWIDTH 13 0
BBX 12 11 0 -2
BITMAP
7FE0
0000
0000
0000
3FC0
0000
0000
0000
0000
0000
FFF0
ENDCHAR
STARTCHAR 4E0A
ENCODING 19978
SWIDTH 1040 0
DWIDTH 13 0
BBX 12 13 0 -2
BITMAP
0600
0600
0600
0600
07E0
0600
0600
0600
0600
0600
0600
0600
FFF0
ENDCHAR
STARTCHAR 4E0B
ENCODING 19979
SWIDTH 1040 0
DWIDTH 13 0
BBX 12 12 0 -2
BITMAP
FFF0
0600
0600
0600
0780
0660
0600
0600
0600
0600
0600
0600
ENDCHAR
STARTCHAR 4E0D
ENCODING 19981
SWIDTH 1040 0
DWIDTH 13 0
BBX 12 12 0 -2
BITMAP
FFF0
0080
0300
0600
0E80
3640
C620
C630
0610
0600
0600
0600
ENDCHAR
STARTCHAR 4E0E
ENCODING 19982
SWIDTH 1040 0
DWIDTH 13 0
BBX 12 13 0 -2
BITMAP
1000
1000
1FE0
1000
1000
1FC0
0040
FFF0
FFC0
0040
0040
0080
0F00
ENDCHAR
STARTCHAR 4E10
ENCODING 19984
SWIDTH 1040 0
DWIDTH 13 0
BBX 12 12 0 -2
BITMAP
FFF0
0600
0600
47E0
4600
4600
7FF0
FFF0
8010
8010
0020
03C0
ENDCHAR
STARTCHAR 4E11
ENCODING 19985
SWIDTH 1040 0
DWIDTH 13 0
BBX 12 12 0 -2
BITMAP
7FC0
0840
0840
0840
0840
FFF0
1080
1080
1080
1080
1080
FFF0
ENDCHAR
STARTCHAR 4E14
ENCODING 19988
SWIDTH 1040 0
DWIDTH 13 0
BBX 12 12 0 -2
BITMAP
3FC0
2040
2040
3FC0
2040
2040
3FC0
2040
2040
2040
2040
FFF0
ENDCHAR
STARTCHAR 4E15
ENCODING 19989
SWIDTH 1040 0
DWIDTH 13 0
BBX 12 12 0 -2
BITMAP
FFF0
0080
0300
0600
0E40
3620
C610
C610
0600
0600
0000
FFF0
ENDCHAR
STARTCHAR 4E16
ENCODING 19990
SWIDTH 1040 0
DWIDTH 13 0
BBX 12 13 0 -2
BITMAP
0600
2640
2640
2640
FFF0
2640
2640
2640
2640
27C0
2000
2000
3FE0
ENDCHAR
STARTCHAR 4E17
ENCODING 19991
SWIDTH 1040 0
DWIDTH 13 0
BBX 12 12 0 -2
BITMAP
4620
4620
4620
4620
FFF0
4620
4620
4620
4620
4620
4620
7FE0
ENDCHAR
STARTCHAR 4E18
ENCODING 19992
SWIDTH 1040 0
DWIDTH 13 0
BBX 12 12 0 -2
BITMAP
00C0
3F00
2000
2000
3FE0
2080
2080
2080
2080
2080
2080
FFF0
ENDCHAR
STARTCHAR 4E19
ENCODING 19993
SWIDTH 1040 0
DWIDTH 13 0
BBX 12 12 0 -2
BITMAP
FFF0
0600
0600
FFF0
8610
8610
8B10
9390
9090
A050
8010
8030
ENDCHAR
STARTCHAR 4E1E
ENCODING 19998
SWIDTH 1040 0
DWIDTH 13 0
BBX 12 12 0 -2
BITMAP
3FC0
0080
0300
F690
16A0
2640
4620
8630
8610
1E00
0000
FFF0
ENDCHAR
STARTCHAR 4E21
ENCODING 20001
SWIDTH 1040 0
DWIDTH 13 0
BBX 12 12 0 -2
BITMAP
FFF0
0600
0600
FFF0
8610
A650
A650
A650
A650
BFD0
8010
8030
ENDCHAR
STARTCHAR 4E26
ENCODING 20006
SWIDTH 1040 0
DWIDTH 13 0
BBX 11 13 1 -2
BITMAP
2080
1080
0100
FFE0
1100
1100
9120
5140
5140
1100
1100
1100
FFE0
ENDCHAR
STARTCHAR 4E2A
ENCODING 20010
SWIDTH 1040 0
DWIDTH 13 0
BBX 12 13 0 -2
BITMAP
0F00
1080
2040
4620
8610
0600
0600
0600
0600
0600
0600
0600
0600
ENDCHAR
STARTCHAR 4E2D
ENCODING 20013
SWIDTH 1040 0
DWIDTH 13 0
BBX 12 13 0 -2
BITMAP
0600
0600
0600
FFF0
8610
8610
8610
FFF0
FE00
0600
0600
0600
0600
ENDCHAR
STARTCHAR 4E31
ENCODING 20017
SWIDTH 1040 0
DWIDTH 13 0
BBX 12 13 0 -2
BITMAP
0080
0880
8890
8890
8890
8890
8890
F8F0
8890
8890
0880
1080
6080
ENDCHAR
STARTCHAR 4E32
ENCODING 20018
SWIDTH 1040 0
DWIDTH 13 0
BBX 12 13 0 -2
BITMAP
0600
0600
7FE0
4620
4620
7FE0
0600
FFF0
8610
8610
FFF0
0600
0600
ENDCHAR
STARTCHAR 4E36
ENCODING 20022
SWIDTH 1040 0
DWIDTH 13 0
BBX 6 4 3 2
BITMAP
C0
38
04
04
ENDCHAR
STARTCHAR 4E38
ENCODING 20024
SWIDTH 1040 0
DWIDTH 13 0
BBX 12 13 0 -2
BITMAP
1000
1000
1000
FF80
1080
1080
5080
3080
3080
1080
2890
4690
8070
ENDCHAR
STARTCHAR 4E39
ENCODING 20025
SWIDTH 1040 0
DWIDTH 13 0
BBX 12 12 0 -2
BITMAP
3FE0
2020
2620
2320
2020
FFF0
2020
2020
2020
2020
4020
40E0
ENDCHAR
STARTCHAR 4E3B
ENCODING 20027
SWIDTH 1040 0
DWIDTH 13 0
BBX 12 13 0 -2
BITMAP
0800
0600
0000
FFF0
0600
0600
0600
7FE0
7E00
0600
0600
0600
FFF0
ENDCHAR
STARTCHAR 4E3C
ENCODING 20028
SWIDTH 1040 0
DWIDTH 13 0
BBX 12 13 0 -2
BITMAP
1080
1080
1080
FFF0
1080
1880
1680
1080
10F0
FFF0
2080
4080
4080
ENDCHAR
STARTCHAR 4E3F
ENCODING 20031
SWIDTH 1040 0
DWIDTH 13 0
BBX 7 12 1 -2
BITMAP
06
06
06
06
06
06
06
0E
0C
0C
30
C0
ENDCHAR
STARTCHAR 4E42
ENCODING 20034
SWIDTH 1040 0
DWIDTH 13 0
BBX 12 12 0 -2
BITMAP
0040
2040
2040
1080
1080
0B00
0B00
0F00
0600
0B00
30C0
C030
ENDCHAR
STARTCHAR 4E43
ENCODING 20035
SWIDTH 1040 0
DWIDTH 13 0
BBX 11 12 1 -2
BITMAP
FF80
1080
1080
1080
10E0
2020
2020
6020
4020
4020
8040
8780
ENDCHAR
STARTCHAR 4E45
ENCODING 20037
SWIDTH 1040 0
DWIDTH 13 0
BBX 12 13 0 -2
BITMAP
1000
1000
1FC0
1040
2040
2080
0080
0300
0780
0680
0840
3020
C010
ENDCHAR
STARTCHAR 4E4B
ENCODING 20043
SWIDTH 1040 0
DWIDTH 13 0
BBX 12 13 0 -2
BITMAP
0600
0600
0600
7FE0
0020
0040
0080
2300
2700
2600
5800
8700
80F0
ENDCHAR
STARTCHAR 4E4D
ENCODING 20045
SWIDTH 1040 0
DWIDTH 13 0
BBX 12 13 0 -2
BITMAP
2000
2000
3FF0
2600
4600
47E0
8600
8600
87F0
07F0
0600
0600
0600
ENDCHAR
STARTCHAR 4E4E
ENCODING 20046
SWIDTH 1040 0
DWIDTH 13 0
BBX 12 12 0 -2
BITMAP
03E0
7E00
0600
4620
2640
0600
FFF0
FE00
0600
0600
0600
1E00
ENDCHAR
STARTCHAR 4E4F
ENCODING 20047
SWIDTH 1040 0
DWIDTH 13 0
BBX 12 12 0 -2
BITMAP
03E0
7E00
0600
0600
FFE0
0040
0080
2380
2300
2600
5800
87F0
ENDCHAR
STARTCHAR 4E55
ENCODING 20053
SWIDTH 1040 0
DWIDTH 13 0
BBX 12 12 0 -2
BITMAP
7FF0
4300
7FF0
4300
7FF0
4300
5FF0
5310
5310
9310
9330
0300
ENDCHAR
STARTCHAR 4E56
ENCODING 20054
SWIDTH 1040 0
DWIDTH 13 0
BBX 12 12 0 -2
BITMAP
7FE0
0600
FFF0
0600
1690
F6A0
16C0
1680
1680
3690
D670
0600
ENDCHAR
STARTCHAR 4E57
ENCODING 20055
SWIDTH 1040 0
DWIDTH 13 0
BBX 12 12 0 -2
BITMAP
7FE0
0600
7FE0
2640
FFF0
2640
2640
2660
7FE0
0E80
3640
C630
ENDCHAR
STARTCHAR 4E58
ENCODING 20056
SWIDTH 1040 0
DWIDTH 13 0
BBX 12 12 0 -2
BITMAP
7FE0
0600
FFF0
1680
F6B0
16C0
3690
F690
D670
0F00
36C0
C630
ENDCHAR
STARTCHAR 4E59
ENCODING 20057
SWIDTH 1040 0
DWIDTH 13 0
BBX 10 12 1 -2
BITMAP
FF80
0080
0100
0600
0C00
1000
2000
6040
4040
8040
8040
7F80
ENDCHAR
STARTCHAR 4E5D
ENCODING 20061
SWIDTH 1040 0
DWIDTH 13 0
BBX 12 13 0 -2
BITMAP
0800
0800
0800
FF80
0880
0880
0880
0880
1880
1080
1090
2090
C070
ENDCHAR
STARTCHAR 4E5E
ENCODING 20062
SWIDTH 1040 0
DWIDTH 13 0
BBX 12 13 0 -2
BITMAP
4000
4000
7FF0
4000
9FC0
8040
0380
0E00
3E10
3010
4010
4010
3FE0
ENDCHAR
STARTCHAR 4E5F
ENCODING 20063
SWIDTH 1040 0
DWIDTH 13 0
BBX 12 13 0 -2
BITMAP
0600
0600
2660
27A0
3E20
E620
2620
2660
2660
2600
2610
2010
1FF0
ENDCHAR
STARTCHAR 4E62
ENCODING 20066
SWIDTH 1040 0
DWIDTH 13 0
BBX 12 13 0 -2
BITMAP
0300
2300
2300
2300
AB00
AB00
AB00
AB00
AB10
AB10
AB10
FB10
00F0
ENDCHAR
STARTCHAR 4E71
ENCODING 20081
SWIDTH 1040 0
DWIDTH 13 0
BBX 12 12 0 -2
BITMAP
0E80
F080
2080
2080
FE80
2080
2080
3E80
FE80
8690
8690
FE70
ENDCHAR
STARTCHAR 4E73
ENCODING 20083
SWIDTH 1040 0
DWIDTH 13 0
BBX 12 12 0 -2
BITMAP
FB40
2340
9640
4640
0040
7840
0840
1840
1040
FF50
1050
3070
ENDCHAR
STARTCHAR 4E7E
ENCODING 20094
SWIDTH 1040 0
DWIDTH 13 0
BBX 12 13 0 -2
BITMAP
0300
2300
FBF0
2300
FE00
8BF0
F820
8840
8880
F880
2310
FE10
23F0
ENDCHAR
STARTCHAR 4E80
ENCODING 20096
SWIDTH 1040 0
DWIDTH 13 0
BBX 12 12 0 -2
BITMAP
3F80
4300
FFC0
4840
7FE0
4820
FFE0
8820
8820
FFE0
8810
07F0
ENDCHAR
STARTCHAR 4E82
ENCODING 20098
SWIDTH 1040 0
DWIDTH 13 0
BBX 12 12 0 -2
BITMAP
FF40
A640
9340
7E40
0840
FF40
A340
A340
FF40
AB50
9350
AF70
ENDCHAR
STARTCHAR 4E85
ENCODING 20101
SWIDTH 1040 0
DWIDTH 13 0
BBX 5 12 2 -2
BITMAP
18
18
18
18
18
18
18
18
18
18
18
F8
ENDCHAR
STARTCHAR 4E86
ENCODING 20102
SWIDTH 1040 0
DWIDTH 13 0
BBX 11 12 0 -2
BITMAP
FFE0
0040
0080
0300
0600
0600
0600
0600
0600
0600
0600
1E00
ENDCHAR
STARTCHAR 4E88
ENCODING 20104
SWIDTH 1040 0
DWIDTH 13 0
BBX 12 12 0 -2
BITMAP
7FC0
0080
0300
0600
FFF0
0620
0640
0640
0600
0600
0600
1E00
ENDCHAR
STARTCHAR 4E89
ENCODING 20105
SWIDTH 1040 0
DWIDTH 13 0
BBX 12 12 0 -2
BITMAP
1FC0
2080
4300
7FE0
0620
FFF0
0620
0620
7FE0
0600
0600
1E00
ENDCHAR
STARTCHAR 4E8A
ENCODING 20106
SWIDTH 1040 0
DWIDTH 13 0
BBX 12 13 0 -2
BITMAP
0600
0600
FFF0
2640
1680
7FE0
0620
FFF0
FE20
0620
7FE0
0600
1E00
ENDCHAR
STARTCHAR 4E8B
ENCODING 20107
SWIDTH 1040 0
DWIDTH 13 0
BBX 12 13 0 -2
BITMAP
0600
0600
FFF0
2640
2640
7FE0
0620
FFF0
FE20
0620
7FE0
0600
1E00
ENDCHAR
STARTCHAR 4E8C
ENCODING 20108
SWIDTH 1040 0
DWIDTH 13 0
BBX 12 9 0 -1
BITMAP
7FE0
0000
0000
0000
0000
0000
0000
0000
FFF0
ENDCHAR
STARTCHAR 4E8E
ENCODING 20110
SWIDTH 1040 0
DWIDTH 13 0
BBX 12 12 0 -2
BITMAP
7FE0
0600
0600
0600
0600
FFF0
0600
0600
0600
0600
0600
1E00
ENDCHAR
STARTCHAR 4E91
ENCODING 20113
SWIDTH 1040 0
DWIDTH 13 0
BBX 12 12 0 -2
BITMAP
7FE0
0000
0000
0000
FFF0
1000
1040
3040
2040
2040
43A0
7E20
ENDCHAR
STARTCHAR 4E92
ENCODING 20114
SWIDTH 1040 0
DWIDTH 13 0
BBX 12 12 0 -2
BITMAP
FFF0
0600
0800
0FC0
1040
1080
2080
3F80
3F00
0300
0600
FFF0
ENDCHAR
STARTCHAR 4E94
ENCODING 20116
SWIDTH 1040 0
DWIDTH 13 0
BBX 12 12 0 -2
BITMAP
7FE0
0600
0600
0600
3FC0
0840
0840
1040
1040
1040
1040
FFF0
ENDCHAR
STARTCHAR 4E95
ENCODING 20117
SWIDTH 1040 0
DWIDTH 13 0
BBX 12 13 0 -2
BITMAP
1080
1080
1080
FFF0
1080
1080
1080
FFF0
E080
2080
2080
4080
4080
ENDCHAR
STARTCHAR 4E98
ENCODING 20120
SWIDTH 1040 0
DWIDTH 13 0
BBX 12 12 0 -2
BITMAP
FFF0
0000
3FC0
2040
3FC0
2040
2040
2040
3FC0
0000
0000
FFF0
ENDCHAR
STARTCHAR 4E99
ENCODING 20121
SWIDTH 1040 0
DWIDTH 13 0
BBX 12 12 0 -2
BITMAP
FFF0
0800
0800
0FC0
1640
1340
2880
2E80
2680
0300
0300
FFF0
ENDCHAR
STARTCHAR 4E9B
ENCODING 20123
SWIDTH 1040 0
DWIDTH 13 0
BBX 12 13 0 -2
BITMAP
0300
2330
BBC0
A300
A310
BF10
E3F0
0000
3FC0
3FC0
0000
0000
FFF0
ENDCHAR
STARTCHAR 4E9C
ENCODING 20124
SWIDTH 1040 0
DWIDTH 13 0
BBX 12 12 0 -2
BITMAP
FFF0
0B00
0B00
7FE0
4B20
4B20
4B20
4B20
7FE0
0B00
0B00
FFF0
ENDCHAR
STARTCHAR 4E9E
ENCODING 20126
SWIDTH 1040 0
DWIDTH 13 0
BBX 12 12 0 -2
BITMAP
FFF0
0B00
0B00
7BE0
4020
4020
7BE0
7B00
0B00
0B00
0B00
FFF0
ENDCHAR
STARTCHAR 4E9F
ENCODING 20127
SWIDTH 1040 0
DWIDTH 13 0
BBX 12 12 0 -2
BITMAP
FFF0
0800
1000
1EF0
F610
9690
96A0
96A0
F660
0790
0800
FFF0
ENDCHAR
STARTCHAR 4EA0
ENCODING 20128
SWIDTH 1040 0
DWIDTH 13 0
BBX 12 5 0 4
BITMAP
0600
0600
0600
0600
FFF0
ENDCHAR
STARTCHAR 4EA1
ENCODING 20129
SWIDTH 1040 0
DWIDTH 13 0
BBX 12 13 0 -2
BITMAP
0600
0600
0600
FFF0
2000
2000
2000
2000
2000
2000
2000
2000
1FF0
ENDCHAR
STARTCHAR 4EA2
ENCODING 20130
SWIDTH 1040 0
DWIDTH 13 0
BBX 12 13 0 -2
BITMAP
0600
0600
FFF0
0000
0000
1F80
1080
1080
1080
1080
1090
2090
C070
ENDCHAR
STARTCHAR 4EA4
ENCODING 20132
SWIDTH 1040 0
DWIDTH 13 0
BBX 12 13 0 -2
BITMAP
0600
0600
FFF0
1080
2040
4020
1080
0B00
0A00
0600
0B00
30C0
C030
ENDCHAR
STARTCHAR 4EA5
ENCODING 20133
SWIDTH 1040 0
DWIDTH 13 0
BBX 12 13 0 -2
BITMAP
0600
0600
FFF0
1040
2080
1300
0E20
7040
70C0
0080
0700
18C0
E030
ENDCHAR
STARTCHAR 4EA6
ENCODING 20134
SWIDTH 1040 0
DWIDTH 13 0
BBX 12 13 0 -2
BITMAP
0600
0600
0600
FFF0
0880
0880
48A0
48A0
C8B0
8890
9090
1080
6380
ENDCHAR
STARTCHAR 4EA8
ENCODING 20136
SWIDTH 1040 0
DWIDTH 13 0
BBX 12 13 0 -2
BITMAP
0600
0600
FFF0
1080
1080
1F80
0000
FFF0
FF00
0300
0600
0600
1E00
ENDCHAR
STARTCHAR 4EAB
ENCODING 20139
SWIDTH 1040 0
DWIDTH 13 0
BBX 12 13 0 -2
BITMAP
0600
0600
FFF0
1080
1080
3FC0
0080
0300
03F0
FFF0
0600
0600
1E00
ENDCHAR
STARTCHAR 4EAC
ENCODING 20140
SWIDTH 1040 0
DWIDTH 13 0
BBX 12 13 0 -2
BITMAP
0600
0600
FFF0
0000
3FC0
2040
2040
3FC0
3E00
0600
4620
8610
1E00
ENDCHAR
STARTCHAR 4EAD
ENCODING 20141
SWIDTH 1040 0
DWIDTH 13 0
BBX 12 13 0 -2
BITMAP
0600
0600
FFF0
2040
3FC0
0000
FFF0
8010
BFD0
BFD0
0600
0600
1E00
ENDCHAR
STARTCHAR 4EAE
ENCODING 20142
SWIDTH 1040 0
DWIDTH 13 0
BBX 12 13 0 -2
BITMAP
0600
0600
FFF0
2040
2040
3FC0
0000
FFF0
9310
9310
1300
2310
C3F0
ENDCHAR
STARTCHAR 4EB0
ENCODING 20144
SWIDTH 1040 0
DWIDTH 13 0
BBX 12 13 0 -2
BITMAP
0600
0600
FFF0
0000
3FC0
2040
3FC0
2040
2040
3FC0
0600
4620
8E10
ENDCHAR
STARTCHAR 4EB3
ENCODING 20147
SWIDTH 1040 0
DWIDTH 13 0
BBX 12 13 0 -2
BITMAP
0600
0600
FFF0
1080
1F80
0000
FFF0
8310
8210
BE00
07E0
7E10
07F0
ENDCHAR
STARTCHAR 4EB6
ENCODING 20150
SWIDTH 1040 0
DWIDTH 13 0
BBX 12 13 0 -2
BITMAP
0600
0600
FFF0
50A0
5FA0
4020
7FE0
2040
2040
3FC0
2040
2040
FFF0
ENDCHAR
STARTCHAR 4EBA
ENCODING 20154
SWIDTH 1040 0
DWIDTH 13 0
BBX 12 12 0 -2
BITMAP
0600
0600
0600
0600
0B00
0B00
1080
1080
1080
2040
4020
8010
ENDCHAR
STARTCHAR 4EC0
ENCODING 20160
SWIDTH 1040 0
DWIDTH 13 0
BBX 13 13 0 -2
BITMAP
0040
2040
2040
4040
4FF8
C040
4040
4040
4040
4040
4040
4040
4040
ENDCHAR
STARTCHAR 4EC1
ENCODING 20161
SWIDTH 1040 0
DWIDTH 13 0
BBX 12 12 0 -2
BITMAP
2000
2FF0
4000
4000
C000
4000
4000
4000
4000
4000
4FF0
4000
ENDCHAR
STARTCHAR 4EC2
ENCODING 20162
SWIDTH 1040 0
DWIDTH 13 0
BBX 12 13 0 -2
BITMAP
0300
2300
2300
4FF0
4310
C310
4310
4610
4610
4610
4810
4820
40C0
ENDCHAR
STARTCHAR 4EC4
ENCODING 20164
SWIDTH 1040 0
DWIDTH 13 0
BBX 12 12 0 -2
BITMAP
7FF0
4000
4080
4080
4080
4080
4080
43C0
4340
8340
8620
1810
ENDCHAR
STARTCHAR 4EC6
ENCODING 20166
SWIDTH 1040 0
DWIDTH 13 0
BBX 13 13 0 -2
BITMAP
0080
1080
1080
2080
2080
60E0
A098
2080
2080
2080
2080
2080
2080
ENDCHAR
STARTCHAR 4EC7
ENCODING 20167
SWIDTH 1040 0
DWIDTH 13 0
BBX 12 13 0 -2
BITMAP
0300
2300
2300
5FE0
4320
C320
4320
4320
4720
4620
4620
4810
7010
ENDCHAR
STARTCHAR 4ECA
ENCODING 20170
SWIDTH 1040 0
DWIDTH 13 0
BBX 12 12 0 -2
BITMAP
0F80
1040
2020
5FD0
8000
0000
3FE0
3FE0
0020
0020
00C0
0F00
ENDCHAR
STARTCHAR 4ECB
ENCODING 20171
SWIDTH 1040 0
DWIDTH 13 0
BBX 12 12 0 -2
BITMAP
0F00
1080
2040
50A0
9090
1080
1080
3080
2080
2080
4080
4080
ENDCHAR
STARTCHAR 4ECD
ENCODING 20173
SWIDTH 1040 0
DWIDTH 13 0
BBX 12 12 0 -2
BITMAP
3FC0
2640
4640
4640
C670
4610
4610
4E10
4810
4810
5020
50C0
ENDCHAR
STARTCHAR 4ECE
ENCODING 20174
SWIDTH 1040 0
DWIDTH 13 0
BBX 12 12 0 -2
BITMAP
2080
2080
2080
2080
2080
5340
5340
5760
5620
8620
8810
8810
ENDCHAR
STARTCHAR 4ECF
ENCODING 20175
SWIDTH 1040 0
DWIDTH 13 0
BBX 12 12 0 -2
BITMAP
2300
2300
4300
4300
C300
4600
4620
4620
4620
4820
4850
4F90
ENDCHAR
STARTCHAR 4ED4
ENCODING 20180
SWIDTH 1040 0
DWIDTH 13 0
BBX 12 12 0 -2
BITMAP
27F0
2010
4020
4040
C040
4FF0
4040
4040
4040
4040
4040
43C0
ENDCHAR
STARTCHAR 4ED5
ENCODING 20181
SWIDTH 1040 0
DWIDTH 13 0
BBX 12 13 0 -2
BITMAP
0080
2080
2080
4080
4FF0
C080
4080
4080
4080
4080
4080
4080
4FF0
ENDCHAR
STARTCHAR 4ED6
ENCODING 20182
SWIDTH 1040 0
DWIDTH 13 0
BBX 12 13 0 -2
BITMAP
0300
2300
2B60
4BA0
4F20
DB20
4B20
4B60
4B60
4B00
4B10
4810
4FF0
ENDCHAR
STARTCHAR 4ED7
ENCODING 20183
SWIDTH 1040 0
DWIDTH 13 0
BBX 12 13 0 -2
BITMAP
0040
2040
2040
4FF0
4040
C040
4640
4340
4340
40C0
4040
43A0
4E10
ENDCHAR
STARTCHAR 4ED8
ENCODING 20184
SWIDTH 1040 0
DWIDTH 13 0
BBX 12 13 0 -2
BITMAP
0020
2020
2020
4FF0
4020
C020
4620
4320
4320
4020
4020
4020
40E0
ENDCHAR
STARTCHAR 4ED9
ENCODING 20185
SWIDTH 1040 0
DWIDTH 13 0
BBX 12 13 0 -2
BITMAP
0080
2080
2080
4080
4890
C890
4890
4890
4890
4890
4890
4890
4FF0
ENDCHAR
STARTCHAR 4EDD
ENCODING 20189
SWIDTH 1040 0
DWIDTH 13 0
BBX 12 12 0 -2
BITMAP
0F00
1080
2040
4020
8010
3FC0
0600
0600
0600
0600
0600
7FE0
ENDCHAR
STARTCHAR 4EDE
ENCODING 20190
SWIDTH 1040 0
DWIDTH 13 0
BBX 12 12 0 -2
BITMAP
2FF0
2310
4310
4B10
C710
4310
4690
4690
4690
4810
4820
40C0
ENDCHAR
STARTCHAR 4EDF
ENCODING 20191
SWIDTH 1040 0
DWIDTH 13 0
BBX 12 12 0 -2
BITMAP
2070
2F80
4080
4080
C080
5FF0
4080
4080
4080
4080
4080
4080
ENDCHAR
STARTCHAR 4EE3
ENCODING 20195
SWIDTH 1040 0
DWIDTH 13 0
BBX 12 13 0 -2
BITMAP
0300
2320
2310
4300
5FF0
C080
4080
4080
40C0
4040
4040
4020
4020
ENDCHAR
STARTCHAR 4EE4
ENCODING 20196
SWIDTH 1040 0
DWIDTH 13 0
BBX 12 12 0 -2
BITMAP
0F80
1040
2020
7FD0
8000
0000
7FE0
7E20
0620
0620
06C0
0600
ENDCHAR
STARTCHAR 4EE5
ENCODING 20197
SWIDTH 1040 0
DWIDTH 13 0
BBX 12 12 0 -2
BITMAP
2020
2620
2620
2320
2320
2020
2040
3840
3840
C0A0
0710
1810
ENDCHAR
STARTCHAR 4EED
ENCODING 20205
SWIDTH 1040 0
DWIDTH 13 0
BBX 12 12 0 -2
BITMAP
2FF0
2310
4B10
4710
C310
4390
4650
4650
4630
4810
4820
40C0
ENDCHAR
STARTCHAR 4EEE
ENCODING 20206
SWIDTH 1040 0
DWIDTH 13 0
BBX 12 12 0 -2
BITMAP
2FF0
2800
4800
4FE0
C820
4B20
48A0
58C0
5040
5040
43A0
4E10
ENDCHAR
STARTCHAR 4EF0
ENCODING 20208
SWIDTH 1040 0
DWIDTH 13 0
BBX 12 12 0 -2
BITMAP
2380
2E70
4890
4890
C890
4890
4890
4890
4890
4B90
5EB0
4080
ENDCHAR
STARTCHAR 4EF2
ENCODING 20210
SWIDTH 1040 0
DWIDTH 13 0
BBX 12 13 0 -2
BITMAP
0080
2080
2080
5FF0
5090
D090
5090
5FF0
5F80
4080
4080
4080
4080
ENDCHAR
STARTCHAR 4EF6
ENCODING 20214
SWIDTH 1040 0
DWIDTH 13 0
BBX 12 13 0 -2
BITMAP
0040
2640
2640
47F0
4840
C840
4040
5FF0
5FC0
4040
4040
4040
4040
ENDCHAR
STARTCHAR 4EF7
ENCODING 20215
SWIDTH 1040 0
DWIDTH 13 0
BBX 12 12 0 -2
BITMAP
23C0
2620
4810
5000
C620
4620
4620
4620
4620
4620
4820
4820
ENDCHAR
STARTCHAR 4EFB
ENCODING 20219
SWIDTH 1040 0
DWIDTH 13 0
BBX 12 12 0 -2
BITMAP
2060
2F80
4080
4080
C080
5FF0
4080
4080
4080
4080
4080
4FF0
ENDCHAR
STARTCHAR 4F01
ENCODING 20225
SWIDTH 1040 0
DWIDTH 13 0
BBX 12 12 0 -2
BITMAP
0F00
1080
2040
4620
8610
0600
27C0
2600
2600
2600
2600
FFF0
ENDCHAR
STARTCHAR 4F09
ENCODING 20233
SWIDTH 1040 0
DWIDTH 13 0
BBX 12 13 0 -2
BITMAP
0080
2080
2FF0
4000
4000
C7E0
4620
4620
4620
4620
4620
4820
4830
ENDCHAR
STARTCHAR 4F0A
ENCODING 20234
SWIDTH 1040 0
DWIDTH 13 0
BBX 12 12 0 -2
BITMAP
2FF0
2090
4090
5FF0
C090
4090
4FF0
4F80
4080
4080
4300
4E00
ENDCHAR
STARTCHAR 4F0D
ENCODING 20237
SWIDTH 1040 0
DWIDTH 13 0
BBX 12 12 0 -2
BITMAP
2FF0
2080
4080
4080
CFE0
4320
4320
4220
4620
4620
4620
5FF0
ENDCHAR
STARTCHAR 4F0E
ENCODING 20238
SWIDTH 1040 0
DWIDTH 13 0
BBX 12 13 0 -2
BITMAP
0080
2080
3FF0
4080
4080
CFE0
4020
4620
4620
4620
4340
43C0
5E30
ENDCHAR
STARTCHAR 4F0F
ENCODING 20239
SWIDTH 1040 0
DWIDTH 13 0
BBX 12 13 0 -2
BITMAP
0080
20A0
2090
4080
5FF0
C080
4080
4080
43C0
4340
4340
4620
5810
ENDCHAR
STARTCHAR 4F10
ENCODING 20240
SWIDTH 1040 0
DWIDTH 13 0
BBX 12 13 0 -2
BITMAP
0300
2320
2310
4300
5FF0
C080
4090
40A0
40C0
4040
40C0
4720
5810
ENDCHAR
STARTCHAR 4F11
ENCODING 20241
SWIDTH 1040 0
DWIDTH 13 0
BBX 12 13 0 -2
BITMAP
0080
2080
2080
5FF0
4080
C080
4380
46C0
48A0
48A0
5090
4080
4080
ENDCHAR
STARTCHAR 4F1A
ENCODING 20250
SWIDTH 1040 0
DWIDTH 13 0
BBX 12 12 0 -2
BITMAP
0F00
1080
2040
5FA0
8010
0000
FFF0
F040
1040
1040
23A0
3E20
ENDCHAR
STARTCHAR 4F1C
ENCODING 20252
SWIDTH 1040 0
DWIDTH 13 0
BBX 12 13 0 -2
BITMAP
0300
2300
2FE0
4320
4320
C630
4680
4080
40F0
5FF0
4080
4080
4080
ENDCHAR
STARTCHAR 4F1D
ENCODING 20253
SWIDTH 1040 0
DWIDTH 13 0
BBX 12 12 0 -2
BITMAP
27E0
2000
4000
4000
CFF0
4300
4300
4720
4620
4620
4850
4F90
ENDCHAR
STARTCHAR 4F2F
ENCODING 20271
SWIDTH 1040 0
DWIDTH 13 0
BBX 12 13 0 -2
BITMAP
0080
2080
2300
4FF0
4810
C810
4810
4FF0
4810
4810
4810
4810
4FF0
ENDCHAR
STARTCHAR 4F30
ENCODING 20272
SWIDTH 1040 0
DWIDTH 13 0
BBX 12 13 0 -2
BITMAP
0080
2080
2080
4FF0
4080
C080
4080
4FF0
4810
4810
4810
4810
4FF0
ENDCHAR
STARTCHAR 4F34
ENCODING 20276
SWIDTH 1040 0
DWIDTH 13 0
BBX 12 13 0 -2
BITMAP
0080
2080
2890
46A0
4080
CFF0
4080
4080
40F0
4FF0
4080
4080
4080
ENDCHAR
STARTCHAR 4F36
ENCODING 20278
SWIDTH 1040 0
DWIDTH 13 0
BBX 12 12 0 -2
BITMAP
23C0
2620
4810
4FE0
C000
4000
5FF0
5F10
4310
4310
4360
4300
ENDCHAR
STARTCHAR 4F38
ENCODING 20280
SWIDTH 1040 0
DWIDTH 13 0
BBX 12 13 0 -2
BITMAP
0080
2080
2FF0
4890
4890
CFF0
4890
4890
4890
4FF0
4080
4080
4080
ENDCHAR
STARTCHAR 4F3A
ENCODING 20282
SWIDTH 1040 0
DWIDTH 13 0
BBX 12 12 0 -2
BITMAP
2FF0
2010
4010
4F90
C010
4F90
4890
4890
4890
4F90
4010
4030
ENDCHAR
STARTCHAR 4F3C
ENCODING 20284
SWIDTH 1040 0
DWIDTH 13 0
BBX 12 12 0 -2
BITMAP
2820
2820
4B20
48A0
C820
4820
4840
4E40
4E40
70A0
4310
4E10
ENDCHAR
STARTCHAR 4F3D
ENCODING 20285
SWIDTH 1040 0
DWIDTH 13 0
BBX 12 13 0 -2
BITMAP
0800
2800
2870
5F50
4B50
CB50
4B50
4B50
5B50
5350
5350
4350
4E70
ENDCHAR
STARTCHAR 4F43
ENCODING 20291
SWIDTH 1040 0
DWIDTH 13 0
BBX 12 12 0 -2
BITMAP
2FF0
2890
4890
4890
C890
4FF0
4890
4890
4890
4890
4890
4FF0
ENDCHAR
STARTCHAR 4F46
ENCODING 20294
SWIDTH 1040 0
DWIDTH 13 0
BBX 12 12 0 -2
BITMAP
27F0
2610
4610
47F0
C610
4610
4610
4610
47F0
4000
4000
4FF0
ENDCHAR
STARTCHAR 4F47
ENCODING 20295
SWIDTH 1040 0
DWIDTH 13 0
BBX 12 13 0 -2
BITMAP
0080
2080
2FF0
4810
4810
C000
4FF0
4040
4040
4040
4040
4040
43C0
ENDCHAR
STARTCHAR 4F4D
ENCODING 20301
SWIDTH 1040 0
DWIDTH 13 0
BBX 12 13 0 -2
BITMAP
0080
2080
2080
5FF0
4000
C620
4620
4620
4620
4620
4640
4040
5FF0
ENDCHAR
STARTCHAR 4F4E
ENCODING 20302
SWIDTH 1040 0
DWIDTH 13 0
BBX 12 12 0 -2
BITMAP
2030
2FC0
4840
4840
CFF0
4820
4820
4830
4810
4F10
4000
5FF0
ENDCHAR
STARTCHAR 4F4F
ENCODING 20303
SWIDTH 1040 0
DWIDTH 13 0
BBX 12 13 0 -2
BITMAP
0300
2080
2000
5FF0
4080
C080
4080
4FF0
4F80
4080
4080
4080
5FF0
ENDCHAR
STARTCHAR 4F50
ENCODING 20304
SWIDTH 1040 0
DWIDTH 13 0
BBX 12 13 0 -2
BITMAP
0300
2300
3FF0
4600
4600
C600
4FF0
4840
5840
5040
5040
4040
4FF0
ENDCHAR
STARTCHAR 4F51
ENCODING 20305
SWIDTH 1040 0
DWIDTH 13 0
BBX 12 13 0 -2
BITMAP
0080
2080
2FF0
4080
4080
C300
47F0
4E10
5610
7610
4610
4610
47F0
ENDCHAR
STARTCHAR 4F53
ENCODING 20307
SWIDTH 1040 0
DWIDTH 13 0
BBX 12 13 0 -2
BITMAP
0080
2080
2080
5FF0
4080
C380
46C0
48A0
50B0
5090
4FE0
4080
4080
ENDCHAR
STARTCHAR 4F55
ENCODING 20309
SWIDTH 1040 0
DWIDTH 13 0
BBX 12 12 0 -2
BITMAP
2FF0
2020
4020
4F20
CB20
4B20
4B20
4B20
4F20
4020
4020
40E0
ENDCHAR
STARTCHAR 4F57
ENCODING 20311
SWIDTH 1040 0
DWIDTH 13 0
BBX 12 13 0 -2
BITMAP
0080
2080
2FF0
4810
4810
C600
4660
4780
4600
4600
4600
4610
43F0
ENDCHAR
STARTCHAR 4F59
ENCODING 20313
SWIDTH 1040 0
DWIDTH 13 0
BBX 12 12 0 -2
BITMAP
0F00
1080
2040
5FA0
8610
0600
7FE0
7E00
0600
4620
8610
1E00
ENDCHAR
STARTCHAR 4F5A
ENCODING 20314
SWIDTH 1040 0
DWIDTH 13 0
BBX 12 13 0 -2
BITMAP
0080
2880
2880
4FF0
5080
D080
4FF0
4080
4080
4080
4340
4620
5810
ENDCHAR
STARTCHAR 4F5B
ENCODING 20315
SWIDTH 1040 0
DWIDTH 13 0
BBX 12 13 0 -2
BITMAP
0340
2340
3FF0
4350
4FF0
CB40
4B40
4FF0
4F50
4350
4350
4660
5840
ENDCHAR
STARTCHAR 4F5C
ENCODING 20316
SWIDTH 1040 0
DWIDTH 13 0
BBX 12 13 0 -2
BITMAP
0600
2600
27F0
4680
4880
C8F0
4080
4080
40F0
40F0
4080
4080
4080
ENDCHAR
STARTCHAR 4F5D
ENCODING 20317
SWIDTH 1040 0
DWIDTH 13 0
BBX 12 13 0 -2
BITMAP
0600
2600
27F0
4810
4810
C790
4690
4690
4690
4790
4010
4020
40C0
ENDCHAR
STARTCHAR 4F5E
ENCODING 20318
SWIDTH 1040 0
DWIDTH 13 0
BBX 12 12 0 -2
BITMAP
2FE0
2000
4000
5FF0
C300
4300
5FF0
5E20
4620
4E40
43C0
5E30
ENDCHAR
STARTCHAR 4F69
ENCODING 20329
SWIDTH 1040 0
DWIDTH 13 0
BBX 12 12 0 -2
BITMAP
1FE0
3020
5FA0
D620
5620
5FA0
56A0
56A0
56A0
5690
6690
4610
ENDCHAR
STARTCHAR 4F6F
ENCODING 20335
SWIDTH 1040 0
DWIDTH 13 0
BBX 12 13 0 -2
BITMAP
0620
2320
2040
4FF0
4080
C080
4FF0
4080
4080
4080
5FF0
4080
4080
ENDCHAR
STARTCHAR 4F70
ENCODING 20336
SWIDTH 1040 0
DWIDTH 13 0
BBX 12 12 0 -2
BITMAP
2FF0
2040
4080
47F0
C610
4610
47F0
4610
4610
4610
4610
47F0
ENDCHAR
STARTCHAR 4F73
ENCODING 20339
SWIDTH 1040 0
DWIDTH 13 0
BBX 12 13 0 -2
BITMAP
0080
2080
2FF0
4080
4080
DFF0
4080
4080
40F0
4FF0
4080
4080
5FF0
ENDCHAR
STARTCHAR 4F75
ENCODING 20341
SWIDTH 1040 0
DWIDTH 13 0
BBX 12 13 0 -2
BITMAP
0820
2620
2040
5FF0
4620
C620
4620
5FF0
5E20
4620
4620
4820
4820
ENDCHAR
STARTCHAR 4F76
ENCODING 20342
SWIDTH 1040 0
DWIDTH 13 0
BBX 12 13 0 -2
BITMAP
0040
2040
2FF0
4040
4040
C7F0
4000
4000
47F0
47F0
4610
4610
47F0
ENDCHAR
STARTCHAR 4F7B
ENCODING 20347
SWIDTH 1040 0
DWIDTH 13 0
BBX 12 13 0 -2
BITMAP
0080
2680
2690
56A0
4E80
C680
46C0
4EA0
56B0
5690
4680
4890
7070
ENDCHAR
STARTCHAR 4F7C
ENCODING 20348
SWIDTH 1040 0
DWIDTH 13 0
BBX 12 13 0 -2
BITMAP
0080
2080
2FF0
4000
4620
C810
4000
4620
4740
4340
40C0
4720
5810
ENDCHAR
STARTCHAR 4F7F
ENCODING 20351
SWIDTH 1040 0
DWIDTH 13 0
BBX 12 13 0 -2
BITMAP
0080
2080
2FF0
4080
4FF0
C890
4890
4FF0
4F80
4080
4380
4640
5830
ENDCHAR
STARTCHAR 4F83
ENCODING 20355
SWIDTH 1040 0
DWIDTH 13 0
BBX 12 12 0 -2
BITMAP
2FF0
2810
4810
4810
CFF0
4000
46A0
46A0
46A0
46A0
48A0
50B0
ENDCHAR
STARTCHAR 4F86
ENCODING 20358
SWIDTH 1040 0
DWIDTH 13 0
BBX 12 13 0 -2
BITMAP
0600
0600
FFF0
0600
2640
2640
56A0
8610
8710
0F00
36C0
C630
0600
ENDCHAR
STARTCHAR 4F88
ENCODING 20360
SWIDTH 1040 0
DWIDTH 13 0
BBX 12 13 0 -2
BITMAP
0080
2080
23F0
4E10
4320
C0C0
4F00
43F0
4FF0
4E10
4320
40C0
5F00
ENDCHAR
STARTCHAR 4F8B
ENCODING 20363
SWIDTH 1040 0
DWIDTH 13 0
BBX 12 12 0 -2
BITMAP
3F90
2850
4850
4F50
D350
5350
4B50
4F50
4650
4610
4810
7030
ENDCHAR
STARTCHAR 4F8D
ENCODING 20365
SWIDTH 1040 0
DWIDTH 13 0
BBX 12 13 0 -2
BITMAP
0080
2080
2FF0
4080
4080
DFF0
4020
5FF0
5FE0
4020
4620
4320
4060
ENDCHAR
STARTCHAR 4F8F
ENCODING 20367
SWIDTH 1040 0
DWIDTH 13 0
BBX 12 13 0 -2
BITMAP
0080
2880
2880
4FF0
5080
D080
4FF0
4080
40C0
43C0
46A0
5890
4080
ENDCHAR
STARTCHAR 4F91
ENCODING 20369
SWIDTH 1040 0
DWIDTH 13 0
BBX 12 13 0 -2
BITMAP
0080
2080
2FF0
4300
4300
C7F0
4610
4FF0
5E10
5610
47F0
4610
4630
ENDCHAR
STARTCHAR 4F96
ENCODING 20374
SWIDTH 1040 0
DWIDTH 13 0
BBX 12 12 0 -2
BITMAP
1F80
2040
7FE0
8010
7FE0
4B20
4B20
4B20
7FE0
4B20
4B20
4B60
ENDCHAR
STARTCHAR 4F98
ENCODING 20376
SWIDTH 1040 0
DWIDTH 13 0
BBX 12 13 0 -2
BITMAP
0300
2300
3FF0
5010
50D0
CF00
4300
43F0
4300
5F00
4300
4310
43F0
ENDCHAR
STARTCHAR 4F9B
ENCODING 20379
SWIDTH 1040 0
DWIDTH 13 0
BBX 12 13 0 -2
BITMAP
0640
2640
2640
5FF0
4640
C640
4640
5FF0
5FF0
4000
4640
4820
5010
ENDCHAR
STARTCHAR 4F9D
ENCODING 20381
SWIDTH 1040 0
DWIDTH 13 0
BBX 12 13 0 -2
BITMAP
0080
2080
3FF0
4300
4300
C690
4890
58A0
68C0
6840
4840
4BA0
5E10
ENDCHAR
STARTCHAR 4FA0
ENCODING 20384
SWIDTH 1040 0
DWIDTH 13 0
BBX 12 13 0 -2
BITMAP
0080
2080
2FF0
4080
4890
C6A0
4080
5FF0
5F80
4080
4340
4620
5810
ENDCHAR
STARTCHAR 4FA1
ENCODING 20385
SWIDTH 1040 0
DWIDTH 13 0
BBX 12 12 0 -2
BITMAP
2FF0
2340
4340
4FF0
CB50
4B50
4B50
4B50
4B50
4B50
4B50
4FF0
ENDCHAR
STARTCHAR 4FAB
ENCODING 20395
SWIDTH 1040 0
DWIDTH 13 0
BBX 12 13 0 -2
BITMAP
0080
2080
3FF0
4800
4800
C7E0
4300
5FF0
5E20
4620
4E40
43C0
5E30
ENDCHAR
STARTCHAR 4FAD
ENCODING 20397
SWIDTH 1040 0
DWIDTH 13 0
BBX 12 12 0 -2
BITMAP
2FF0
2810
4810
4FF0
C820
4820
5320
53B0
5090
5010
4700
40E0
ENDCHAR
STARTCHAR 4FAE
ENCODING 20398
SWIDTH 1040 0
DWIDTH 13 0
BBX 12 13 0 -2
BITMAP
0600
2600
27F0
4800
4FE0
C6A0
46A0
5FF0
5B20
4B20
4B20
4FF0
4040
ENDCHAR
STARTCHAR 4FAF
ENCODING 20399
SWIDTH 1040 0
DWIDTH 13 0
BBX 12 12 0 -2
BITMAP
2FE0
2020
4020
5FF0
C600
47F0
4880
48F0
5FF0
4340
4620
5810
ENDCHAR
STARTCHAR 4FB5
ENCODING 20405
SWIDTH 1040 0
DWIDTH 13 0
BBX 12 12 0 -2
BITMAP
2FE0
2020
4FE0
4020
DFF0
5010
4FE0
4E20
4620
4640
43C0
5E30
ENDCHAR
STARTCHAR 4FB6
ENCODING 20406
SWIDTH 1040 0
DWIDTH 13 0
BBX 12 12 0 -2
BITMAP
2FF0
2810
4810
4FF0
C080
4300
4FF0
4810
4810
4810
4810
4FF0
ENDCHAR
STARTCHAR 4FBF
ENCODING 20415
SWIDTH 1040 0
DWIDTH 13 0
BBX 12 12 0 -2
BITMAP
2FF0
2080
4FF0
4890
CFF0
4890
4FF0
4E80
4680
4380
4640
5830
ENDCHAR
STARTCHAR 4FC2
ENCODING 20418
SWIDTH 1040 0
DWIDTH 13 0
BBX 12 12 0 -2
BITMAP
2FF0
2300
4620
4840
C680
4310
5FF0
5F80
4080
48A0
5090
4080
ENDCHAR
STARTCHAR 4FC3
ENCODING 20419
SWIDTH 1040 0
DWIDTH 13 0
BBX 12 12 0 -2
BITMAP
2FF0
2810
4810
4FF0
C080
4080
48F0
4880
4880
4880
4F80
7070
ENDCHAR
STARTCHAR 4FC4
ENCODING 20420
SWIDTH 1040 0
DWIDTH 13 0
BBX 12 13 0 -2
BITMAP
0040
2750
3850
4840
4BF0
FE40
4850
4F50
4860
7820
4820
48D0
5F10
ENDCHAR
STARTCHAR 4FCA
ENCODING 20426
SWIDTH 1040 0
DWIDTH 13 0
BBX 12 13 0 -2
BITMAP
0300
2320
2620
5FF0
4340
C650
5830
43E0
4220
4E20
4640
43C0
5E30
ENDCHAR
STARTCHAR 4FCE
ENCODING 20430
SWIDTH 1040 0
DWIDTH 13 0
BBX 12 12 0 -2
BITMAP
23F0
2310
2310
33F0
4B10
8310
23F0
2310
2310
3310
4B10
87F0
ENDCHAR
STARTCHAR 4FD0
ENCODING 20432
SWIDTH 1040 0
DWIDTH 13 0
BBX 12 12 0 -2
BITMAP
2390
3E50
4650
4650
DFD0
4650
4E50
4F50
4F10
5690
5610
4630
ENDCHAR
STARTCHAR 4FD1
ENCODING 20433
SWIDTH 1040 0
DWIDTH 13 0
BBX 12 12 0 -2
BITMAP
2FE0
2040
4080
4FF0
C890
4FF0
4890
4890
4FF0
4890
4890
48B0
ENDCHAR
STARTCHAR 4FD4
ENCODING 20436
SWIDTH 1040 0
DWIDTH 13 0
BBX 12 12 0 -2
BITMAP
2FF0
2810
4FF0
4810
CFF0
4810
4FF0
4F40
4340
4340
4650
5870
ENDCHAR
STARTCHAR 4FD7
ENCODING 20439
SWIDTH 1040 0
DWIDTH 13 0
BBX 12 12 0 -2
BITMAP
2620
2810
4000
40C0
C320
4610
4800
4FF0
47F0
4610
4610
47F0
ENDCHAR
STARTCHAR 4FD8
ENCODING 20440
SWIDTH 1040 0
DWIDTH 13 0
BBX 12 12 0 -2
BITMAP
27F0
2600
48A0
4890
C000
43F0
4020
4060
4040
4FF0
4040
40C0
ENDCHAR
STARTCHAR 4FDA
ENCODING 20442
SWIDTH 1040 0
DWIDTH 13 0
BBX 12 12 0 -2
BITMAP
2FF0
2890
4FF0
4890
C890
4FF0
4080
40F0
4FF0
4080
4080
4FF0
ENDCHAR
STARTCHAR 4FDB
ENCODING 20443
SWIDTH 1040 0
DWIDTH 13 0
BBX 12 12 0 -2
BITMAP
27C0
2840
5080
4FF0
C890
4890
4FF0
4F40
4340
4340
4650
5870
ENDCHAR
STARTCHAR 4FDD
ENCODING 20445
SWIDTH 1040 0
DWIDTH 13 0
BBX 12 12 0 -2
BITMAP
2FF0
2810
4810
4FF0
C080
4FF0
4080
40C0
43C0
46A0
5890
4080
ENDCHAR
STARTCHAR 4FDF
ENCODING 20447
SWIDTH 1040 0
DWIDTH 13 0
BBX 12 13 0 -2
BITMAP
0300
2340
2620
5FF0
4600
C7F0
4880
4880
48F0
5FF0
4340
4620
5810
ENDCHAR
STARTCHAR 4FE1
ENCODING 20449
SWIDTH 1040 0
DWIDTH 13 0
BBX 12 12 0 -2
BITMAP
27F0
2000
4FF0
4000
C7F0
4000
4000
47F0
47F0
4610
4610
47F0
ENDCHAR
STARTCHAR 4FE3
ENCODING 20451
SWIDTH 1040 0
DWIDTH 13 0
BBX 12 12 0 -2
BITMAP
2FF0
2810
4810
4FF0
C000
4FF0
4080
40F0
4FF0
4080
4740
5830
ENDCHAR
STARTCHAR 4FE4
ENCODING 20452
SWIDTH 1040 0
DWIDTH 13 0
BBX 12 13 0 -2
BITMAP
0840
2640
2080
5FE0
4320
DFE0
5300
5FF0
5F10
4710
4B10
5360
4300
ENDCHAR
STARTCHAR 4FE5
ENCODING 20453
SWIDTH 1040 0
DWIDTH 13 0
BBX 12 13 0 -2
BITMAP
0080
2080
2FF0
4080
4FF0
C890
4FF0
4890
4890
4FF0
4080
4FF0
4080
ENDCHAR
STARTCHAR 4FEE
ENCODING 20462
SWIDTH 1040 0
DWIDTH 13 0
BBX 12 13 0 -2
BITMAP
0600
2600
27F0
4820
4B20
C0C0
50B0
5700
5760
5060
5780
4030
4FC0
ENDCHAR
STARTCHAR 4FEF
ENCODING 20463
SWIDTH 1040 0
DWIDTH 13 0
BBX 12 13 0 -2
BITMAP
0300
2300
3FF0
5320
5320
D7F0
5E20
56A0
56A0
5660
5620
6620
4660
ENDCHAR
STARTCHAR 4FF3
ENCODING 20467
SWIDTH 1040 0
DWIDTH 13 0
BBX 12 13 0 -2
BITMAP
0040
2340
3F70
4340
4340
CF70
4340
4340
4340
5F40
4370
4640
5840
ENDCHAR
STARTCHAR 4FF5
ENCODING 20469
SWIDTH 1040 0
DWIDTH 13 0
BBX 12 13 0 -2
BITMAP
0080
2080
3FF0
4080
4FF0
C080
5FF0
4310
47B0
46A0
5E40
4620
4F90
ENDCHAR
STARTCHAR 4FF6
ENCODING 20470
SWIDTH 1040 0
DWIDTH 13 0
BBX 12 13 0 -2
BITMAP
0600
2670
2790
4610
4650
DFD0
4650
4620
56A0
56A0
56A0
4650
4E90
ENDCHAR
STARTCHAR 4FF8
ENCODING 20472
SWIDTH 1040 0
DWIDTH 13 0
BBX 12 13 0 -2
BITMAP
0080
2080
2FF0
4300
4FF0
C640
5FF0
48A0
58B0
57F0
4080
4FF0
4080
ENDCHAR
STARTCHAR 4FFA
ENCODING 20474
SWIDTH 1040 0
DWIDTH 13 0
BBX 12 13 0 -2
BITMAP
0080
2080
3FF0
4620
4890
DFF0
6890
4FF0
4890
4890
4FF0
4080
40F0
ENDCHAR
STARTCHAR 4FFE
ENCODING 20478
SWIDTH 1040 0
DWIDTH 13 0
BBX 12 13 0 -2
BITMAP
0080
2300
2FF0
4890
4FF0
C890
4890
4FF0
4F40
4340
4640
5FF0
4040
ENDCHAR
STARTCHAR 5005
ENCODING 20485
SWIDTH 1040 0
DWIDTH 13 0
BBX 12 13 0 -2
BITMAP
0080
2080
2FF0
4000
4620
C620
4B50
4080
4080
4080
5FF0
4080
4080
ENDCHAR
STARTCHAR 5006
ENCODING 20486
SWIDTH 1040 0
DWIDTH 13 0
BBX 12 12 0 -2
BITMAP
3FF0
2300
4300
5FF0
D310
53D0
5B50
5B50
5B50
57B0
5310
5330
ENDCHAR
STARTCHAR 5009
ENCODING 20489
SWIDTH 1040 0
DWIDTH 13 0
BBX 12 12 0 -2
BITMAP
0F80
1040
3FE0
6030
BFE0
2020
3FE0
2000
2000
5FE0
5020
1FE0
ENDCHAR
STARTCHAR 500B
ENCODING 20491
SWIDTH 1040 0
DWIDTH 13 0
BBX 12 12 0 -2
BITMAP
2FF0
2890
4890
4FF0
C890
4BD0
4B50
4B50
4B50
4BD0
4810
4FF0
ENDCHAR
STARTCHAR 500D
ENCODING 20493
SWIDTH 1040 0
DWIDTH 13 0
BBX 12 13 0 -2
BITMAP
0080
1080
1FF0
2320
2320
EFF0
2000
2000
27F0
27F0
2610
2610
27F0
ENDCHAR
STARTCHAR 500F
ENCODING 20495
SWIDTH 1040 0
DWIDTH 13 0
BBX 12 13 0 -2
BITMAP
0300
2300
23F0
5620
5B20
D3C0
5EB0
50A0
50B0
5FF0
5080
4740
5830
ENDCHAR
STARTCHAR 5011
ENCODING 20497
SWIDTH 1040 0
DWIDTH 13 0
BBX 12 12 0 -2
BITMAP
2F70
2B50
4F70
4B50
CB50
4F70
4810
4810
4810
4810
4810
4830
ENDCHAR
STARTCHAR 5012
ENCODING 20498
SWIDTH 1040 0
DWIDTH 13 0
BBX 12 12 0 -2
BITMAP
3F90
2650
4850
5050
DFD0
4650
4650
4750
5F50
4610
4610
5FB0
ENDCHAR
STARTCHAR 5014
ENCODING 20500
SWIDTH 1040 0
DWIDTH 13 0
BBX 12 12 0 -2
BITMAP
2FF0
2810
4FF0
4840
CB50
4B50
4BF0
4BC0
4840
5650
5650
47F0
ENDCHAR
STARTCHAR 5016
ENCODING 20502
SWIDTH 1040 0
DWIDTH 13 0
BBX 12 13 0 -2
BITMAP
0080
2080
2FF0
4080
5FF0
C620
4620
5FF0
5F80
4080
4FF0
4080
4080
ENDCHAR
STARTCHAR 5019
ENCODING 20505
SWIDTH 1040 0
DWIDTH 13 0
BBX 12 12 0 -2
BITMAP
27E0
2020
5020
5FF0
D300
53F0
5640
5670
57F0
5040
50A0
4710
ENDCHAR
STARTCHAR 501A
ENCODING 20506
SWIDTH 1040 0
DWIDTH 13 0
BBX 12 13 0 -2
BITMAP
0080
2080
2FF0
4340
4620
C810
5FF0
4010
4790
4790
4690
4790
4030
ENDCHAR
STARTCHAR 501F
ENCODING 20511
SWIDTH 1040 0
DWIDTH 13 0
BBX 12 13 0 -2
BITMAP
0320
2320
2FF0
4320
4320
CFF0
4000
47F0
4610
4610
47F0
4610
47F0
ENDCHAR
STARTCHAR 5021
ENCODING 20513
SWIDTH 1040 0
DWIDTH 13 0
BBX 12 12 0 -2
BITMAP
27E0
2620
47E0
4620
C7E0
4000
4FF0
4810
4810
4FF0
4810
4FF0
ENDCHAR
STARTCHAR 5023
ENCODING 20515
SWIDTH 1040 0
DWIDTH 13 0
BBX 12 13 0 -2
BITMAP
0880
2880
28F0
5F90
4890
C810
4F50
4B50
5B70
5320
5320
4350
4E90
ENDCHAR
STARTCHAR 5024
ENCODING 20516
SWIDTH 1040 0
DWIDTH 13 0
BBX 12 13 0 -2
BITMAP
0040
2040
2FF0
4040
43F0
CB10
4BF0
4B10
4B10
4B10
4BF0
4800
4FF0
ENDCHAR
STARTCHAR 5025
ENCODING 20517
SWIDTH 1040 0
DWIDTH 13 0
BBX 12 13 0 -2
BITMAP
0080
2080
3FF0
5350
5340
C350
4E70
4000
47E0
47E0
4080
4080
5FF0
ENDCHAR
STARTCHAR 5026
ENCODING 20518
SWIDTH 1040 0
DWIDTH 13 0
BBX 12 13 0 -2
BITMAP
0300
2890
2620
5FF0
4640
DFF0
4620
4FF0
7FE0
7020
4FE0
4810
4FF0
ENDCHAR
STARTCHAR 5028
ENCODING 20520
SWIDTH 1040 0
DWIDTH 13 0
BBX 12 12 0 -2
BITMAP
2FF0
2810
4FF0
4840
CFF0
4840
4840
4870
4FF0
5610
5610
47F0
ENDCHAR
STARTCHAR 5029
ENCODING 20521
SWIDTH 1040 0
DWIDTH 13 0
BBX 12 13 0 -2
BITMAP
0080
2080
2FF0
4080
4FF0
C080
5FF0
4890
4890
4890
4FF0
4810
4830
ENDCHAR
STARTCHAR 502A
ENCODING 20522
SWIDTH 1040 0
DWIDTH 13 0
BBX 12 13 0 -2
BITMAP
0080
2300
2E70
4810
4F70
C810
4810
4FF0
4F40
4340
4340
4650
5870
ENDCHAR
STARTCHAR 502B
ENCODING 20523
SWIDTH 1040 0
DWIDTH 13 0
BBX 12 12 0 -2
BITMAP
23C0
2620
4810
57F0
C000
4FF0
4B50
4B50
4B50
4FF0
4B50
4B50
ENDCHAR
STARTCHAR 502C
ENCODING 20524
SWIDTH 1040 0
DWIDTH 13 0
BBX 12 13 0 -2
BITMAP
0300
2300
23F0
4300
4FF0
C810
4FF0
4810
4810
4FF0
4080
5FF0
4080
ENDCHAR
STARTCHAR 502D
ENCODING 20525
SWIDTH 1040 0
DWIDTH 13 0
BBX 12 12 0 -2
BITMAP
2FF0
2080
5FF0
4380
C6A0
4890
5FF0
5E20
4620
4640
43C0
5E30
ENDCHAR
STARTCHAR 5036
ENCODING 20534
SWIDTH 1040 0
DWIDTH 13 0
BBX 12 12 0 -2
BITMAP
2FE0
2820
4FE0
4820
CFE0
4820
4820
4830
5FF0
4000
4820
5010
ENDCHAR
STARTCHAR 5039
ENCODING 20537
SWIDTH 1040 0
DWIDTH 13 0
BBX 12 12 0 -2
BITMAP
23C0
2620
4FF0
5080
CFF0
4890
4890
4890
4FF0
4080
4740
5830
ENDCHAR
STARTCHAR 5043
ENCODING 20547
SWIDTH 1040 0
DWIDTH 13 0
BBX 12 12 0 -2
BITMAP
2FF0
2B10
4BF0
4B10
CBF0
4840
4FF0
48A0
48A0
48E0
4B10
4FF0
ENDCHAR
STARTCHAR 5047
ENCODING 20551
SWIDTH 1040 0
DWIDTH 13 0
BBX 12 12 0 -2
BITMAP
2FF0
2890
4890
4FB0
C800
48F0
4F10
4850
4850
4F50
4860
4B90
ENDCHAR
STARTCHAR 5048
ENCODING 20552
SWIDTH 1040 0
DWIDTH 13 0
BBX 12 12 0 -2
BITMAP
2FE0
2820
4FE0
4820
CFE0
4600
4FF0
4890
5890
4B50
4F90
4060
ENDCHAR
STARTCHAR 5049
ENCODING 20553
SWIDTH 1040 0
DWIDTH 13 0
BBX 12 13 0 -2
BITMAP
0080
2080
2FF0
4310
5FF0
C820
4FE0
4080
40F0
4FF0
4880
5FF0
4080
ENDCHAR
STARTCHAR 504F
ENCODING 20559
SWIDTH 1040 0
DWIDTH 13 0
BBX 12 12 0 -2
BITMAP
2FF0
2000
4FF0
4810
CFF0
4800
5FF0
6B50
6B50
4FF0
4B50
4B50
ENDCHAR
STARTCHAR 5050
ENCODING 20560
SWIDTH 1040 0
DWIDTH 13 0
BBX 12 13 0 -2
BITMAP
0080
2080
2FF0
4620
43C0
C620
4FF0
4B10
4B20
4860
5380
5030
47C0
ENDCHAR
STARTCHAR 5055
ENCODING 20565
SWIDTH 1040 0
DWIDTH 13 0
BBX 12 13 0 -2
BITMAP
0040
2840
2F70
4840
4840
CF30
4080
4FF0
4810
4810
4FF0
4810
4FF0
ENDCHAR
STARTCHAR 5056
ENCODING 20566
SWIDTH 1040 0
DWIDTH 13 0
BBX 12 13 0 -2
BITMAP
0080
2080
2FF0
4090
40A0
DFF0
4320
47F0
4610
4E10
57F0
4610
47F0
ENDCHAR
STARTCHAR 505A
ENCODING 20570
SWIDTH 1040 0
DWIDTH 13 0
BBX 12 13 0 -2
BITMAP
0880
2880
28F0
5F90
4890
C810
4850
5F50
5370
5320
5320
5350
5F90
ENDCHAR
STARTCHAR 505C
ENCODING 20572
SWIDTH 1040 0
DWIDTH 13 0
BBX 12 13 0 -2
BITMAP
0300
2300
3FF0
4820
4FE0
C000
5FF0
5010
5010
4FF0
4080
4080
4780
ENDCHAR
STARTCHAR 5065
ENCODING 20581
SWIDTH 1040 0
DWIDTH 13 0
BBX 12 13 0 -2
BITMAP
0040
2040
3BF0
4850
4FF0
D050
5BF0
4840
6870
6FF0
5040
5800
67F0
ENDCHAR
STARTCHAR 506C
ENCODING 20588
SWIDTH 1040 0
DWIDTH 13 0
BBX 12 13 0 -2
BITMAP
0600
2600
2FF0
5350
4E50
CB90
5350
4020
4320
4300
48A0
6810
47C0
ENDCHAR
STARTCHAR 5072
ENCODING 20594
SWIDTH 1040 0
DWIDTH 13 0
BBX 12 12 0 -2
BITMAP
2FF0
2890
4FF0
4890
C890
4FF0
4300
43A0
40A0
5610
6600
43E0
ENDCHAR
STARTCHAR 5074
ENCODING 20596
SWIDTH 1040 0
DWIDTH 13 0
BBX 12 12 0 -2
BITMAP
1F10
3350
5F50
D350
5F50
5350
5350
5350
5F50
4010
5310
60B0
ENDCHAR
STARTCHAR 5075
ENCODING 20597
SWIDTH 1040 0
DWIDTH 13 0
BBX 12 13 0 -2
BITMAP
0300
2300
23F0
4300
4FF0
C810
4FF0
4810
4810
4FF0
4000
4620
5810
ENDCHAR
STARTCHAR 5076
ENCODING 20598
SWIDTH 1040 0
DWIDTH 13 0
BBX 12 12 0 -2
BITMAP
2FF0
2890
4FF0
4890
CFF0
4080
4FF0
4B10
4B10
4B50
4FD0
4830
ENDCHAR
STARTCHAR 5078
ENCODING 20600
SWIDTH 1040 0
DWIDTH 13 0
BBX 12 12 0 -2
BITMAP
2FC0
2620
4810
57F0
C000
5F50
5350
53F0
5FA0
53A0
5F50
5350
ENDCHAR
STARTCHAR 507D
ENCODING 20605
SWIDTH 1040 0
DWIDTH 13 0
BBX 12 13 0 -2
BITMAP
0840
2640
2080
5FC0
4640
CFE0
5020
7FF0
4010
4010
5690
5690
4060
ENDCHAR
STARTCHAR 5080
ENCODING 20608
SWIDTH 1040 0
DWIDTH 13 0
BBX 12 13 0 -2
BITMAP
0080
2300
2FF0
4890
4FF0
C890
4890
4FF0
4EA0
46A0
46A0
4890
4870
ENDCHAR
STARTCHAR 5085
ENCODING 20613
SWIDTH 1040 0
DWIDTH 13 0
BBX 12 13 0 -2
BITMAP
0080
2090
2FF0
4080
4FF0
C890
4FF0
4890
48B0
4020
5FF0
4620
4360
ENDCHAR
STARTCHAR 508D
ENCODING 20621
SWIDTH 1040 0
DWIDTH 13 0
BBX 12 13 0 -2
BITMAP
0080
2080
3FF0
4640
4640
DFF0
5310
4FF0
4E00
4600
47F0
4810
4860
ENDCHAR
STARTCHAR 5091
ENCODING 20625
SWIDTH 1040 0
DWIDTH 13 0
BBX 12 13 0 -2
BITMAP
0020
2F20
2BF0
5B20
47F0
C620
58A0
4080
40F0
5FF0
4380
46A0
5890
ENDCHAR
STARTCHAR 5098
ENCODING 20632
SWIDTH 1040 0
DWIDTH 13 0
BBX 12 12 0 -2
BITMAP
1F80
2040
56A0
A650
56A0
2640
56A0
96B0
8610
FFF0
0600
0600
ENDCHAR
STARTCHAR 5099
ENCODING 20633
SWIDTH 1040 0
DWIDTH 13 0
BBX 12 13 0 -2
BITMAP
0640
2640
3FF0
4640
4FF0
C800
4FF0
5890
7890
6FF0
4890
4FF0
4890
ENDCHAR
STARTCHAR 509A
ENCODING 20634
SWIDTH 1040 0
DWIDTH 13 0
BBX 12 13 0 -2
BITMAP
0640
2640
3FF0
4050
4B50
D090
4010
40A0
4920
4B20
4620
4B50
5090
ENDCHAR
STARTCHAR 50AC
ENCODING 20652
SWIDTH 1040 0
DWIDTH 13 0
BBX 12 13 0 -2
BITMAP
0080
2890
2890
4FF0
4620
CFF0
5840
6FF0
4840
4840
4FF0
4840
4FF0
ENDCHAR
STARTCHAR 50AD
ENCODING 20653
SWIDTH 1040 0
DWIDTH 13 0
BBX 12 13 0 -2
BITMAP
0080
2080
2FF0
4890
4FF0
C890
4BF0
4880
48F0
5FF0
6890
4FF0
4890
ENDCHAR
STARTCHAR 50B2
ENCODING 20658
SWIDTH 1040 0
DWIDTH 13 0
BBX 12 13 0 -2
BITMAP
0640
2640
3F70
4650
5FD0
C610
5FD0
4850
4F70
4F20
5320
4350
4E90
ENDCHAR
STARTCHAR 50B3
ENCODING 20659
SWIDTH 1040 0
DWIDTH 13 0
BBX 12 13 0 -2
BITMAP
0080
2080
3FF0
4890
4FF0
C890
5FF0
4020
4030
5FF0
4020
4620
4360
ENDCHAR
STARTCHAR 50B4
ENCODING 20660
SWIDTH 1040 0
DWIDTH 13 0
BBX 12 12 0 -2
BITMAP
2FF0
2800
4BE0
4B20
CBE0
4800
4F70
4B50
4B50
4F70
4800
4FF0
ENDCHAR
STARTCHAR 50B5
ENCODING 20661
SWIDTH 1040 0
DWIDTH 13 0
BBX 12 13 0 -2
BITMAP
0080
2080
3FF0
4080
4FF0
C080
5FF0
4820
4820
4FE0
4820
4FE0
7030
ENDCHAR
STARTCHAR 50B7
ENCODING 20663
SWIDTH 1040 0
DWIDTH 13 0
BBX 12 13 0 -2
BITMAP
0600
2600
2FF0
5820
4FE0
C820
4FF0
4600
47F0
5FF0
4890
5310
4660
ENDCHAR
STARTCHAR 50BE
ENCODING 20670
SWIDTH 1040 0
DWIDTH 13 0
BBX 12 12 0 -2
BITMAP
27F0
2040
53F0
5310
D7F0
5B10
53F0
5310
5310
5BF0
4320
4E10
ENDCHAR
STARTCHAR 50C2
ENCODING 20674
SWIDTH 1040 0
DWIDTH 13 0
BBX 12 13 0 -2
BITMAP
0080
2080
2FF0
4890
5FF0
C890
4FF0
4890
4890
5FF0
4620
47C0
5830
ENDCHAR
STARTCHAR 50C5
ENCODING 20677
SWIDTH 1040 0
DWIDTH 13 0
BBX 12 13 0 -2
BITMAP
0640
2640
3FF0
4640
4FF0
C890
4890
4FF0
4F80
4080
4FF0
4080
5FF0
ENDCHAR
STARTCHAR 50C9
ENCODING 20681
SWIDTH 1040 0
DWIDTH 13 0
BBX 12 12 0 -2
BITMAP
1F80
2040
7FE0
8010
7BE0
4B20
4B20
4B20
7BE0
2040
50A0
8B10
ENDCHAR
STARTCHAR 50CA
ENCODING 20682
SWIDTH 1040 0
DWIDTH 13 0
BBX 12 12 0 -2
BITMAP
2FF0
2340
4FF0
4B50
CFF0
4080
5FF0
5E20
4620
4FE0
5610
47F0
ENDCHAR
STARTCHAR 50CD
ENCODING 20685
SWIDTH 1040 0
DWIDTH 13 0
BBX 12 13 0 -2
BITMAP
0040
3FC0
2640
5FF0
5650
DFD0
5650
5FD0
5E50
4650
5F90
4610
5F60
ENDCHAR
STARTCHAR 50CF
ENCODING 20687
SWIDTH 1040 0
DWIDTH 13 0
BBX 12 12 0 -2
BITMAP
27E0
2840
5FF0
4890
C890
4FF0
4640
4850
58D0
4760
5850
4380
ENDCHAR
STARTCHAR 50D1
ENCODING 20689
SWIDTH 1040 0
DWIDTH 13 0
BBX 12 12 0 -2
BITMAP
2FF0
2300
5FF0
4640
CE60
57D0
6000
5FF0
5FF0
5650
57D0
5030
ENDCHAR
STARTCHAR 50D5
ENCODING 20693
SWIDTH 1040 0
DWIDTH 13 0
BBX 12 13 0 -2
BITMAP
0680
26A0
3FF0
4640
4640
DFF0
4080
4FF0
4F80
4080
5FF0
4640
5830
ENDCHAR
STARTCHAR 50D6
ENCODING 20694
SWIDTH 1040 0
DWIDTH 13 0
BBX 12 13 0 -2
BITMAP
0080
2080
3FF0
4080
4FF0
C810
4FF0
4620
4630
5FF0
4810
4810
4FF0
ENDCHAR
STARTCHAR 50DA
ENCODING 20698
SWIDTH 1040 0
DWIDTH 13 0
BBX 12 13 0 -2
BITMAP
0080
2080
3FF0
5620
4FF0
C810
5FF0
6810
4810
4FF0
4080
48A0
5390
ENDCHAR
STARTCHAR 50DE
ENCODING 20702
SWIDTH 1040 0
DWIDTH 13 0
BBX 12 12 0 -2
BITMAP
2FF0
2B20
5090
5FE0
C820
4FF0
4810
4810
4FF0
5010
5690
4B60
ENDCHAR
STARTCHAR 50E3
ENCODING 20707
SWIDTH 1040 0
DWIDTH 13 0
BBX 12 13 0 -2
BITMAP
0640
2640
3FF0
4640
5FF0
C8A0
5310
4FE0
4820
4820
4FE0
4820
4FE0
ENDCHAR
STARTCHAR 50E5
ENCODING 20709
SWIDTH 1040 0
DWIDTH 13 0
BBX 12 13 0 -2
BITMAP
0080
2080
2FF0
4080
5FF0
C620
5F70
4620
4630
5FF0
4340
4650
5870
ENDCHAR
STARTCHAR 50E7
ENCODING 20711
SWIDTH 1040 0
DWIDTH 13 0
BBX 12 13 0 -2
BITMAP
0620
2640
3FF0
5090
5FF0
D090
5FF0
4820
4820
4FE0
4820
4820
4FE0
ENDCHAR
STARTCHAR 50ED
ENCODING 20717
SWIDTH 1040 0
DWIDTH 13 0
BBX 12 13 0 -2
BITMAP
0640
2640
3FF0
5640
5FF0
C8A0
5330
4FE0
4820
4820
4FE0
4820
4FE0
ENDCHAR
STARTCHAR 50EE
ENCODING 20718
SWIDTH 1040 0
DWIDTH 13 0
BBX 12 13 0 -2
BITMAP
0080
2080
3FF0
4620
4620
DFF0
4890
4FF0
4890
4890
4FF0
4080
5FF0
ENDCHAR
STARTCHAR 50F5
ENCODING 20725
SWIDTH 1040 0
DWIDTH 13 0
BBX 12 12 0 -2
BITMAP
3FF0
2890
4FF0
4890
CFF0
4000
5FF0
5890
4890
4FF0
4890
5FF0
ENDCHAR
STARTCHAR 50F9
ENCODING 20729
SWIDTH 1040 0
DWIDTH 13 0
BBX 12 12 0 -2
BITMAP
3FF0
2340
5FF0
5350
DFF0
4820
4FE0
4820
4820
4FE0
4620
5810
ENDCHAR
STARTCHAR 50FB
ENCODING 20731
SWIDTH 1040 0
DWIDTH 13 0
BBX 12 13 0 -2
BITMAP
0040
1E40
37F0
56A0
D6A0
5EA0
53F0
5E40
5640
7640
57F0
5640
5E40
ENDCHAR
STARTCHAR 5100
ENCODING 20736
SWIDTH 1040 0
DWIDTH 13 0
BBX 12 13 0 -2
BITMAP
0620
2640
3FF0
4080
4FF0
C080
5FF0
4880
48F0
7FF0
4890
5E60
4B90
ENDCHAR
STARTCHAR 5101
ENCODING 20737
SWIDTH 1040 0
DWIDTH 13 0
BBX 12 13 0 -2
BITMAP
0640
2640
2FF0
4880
5FF0
C880
4FF0
4000
4F70
4F70
4B50
4BD0
4830
ENDCHAR
STARTCHAR 5102
ENCODING 20738
SWIDTH 1040 0
DWIDTH 13 0
BBX 12 13 0 -2
BITMAP
0340
2340
2FF0
4B50
4FF0
CB50
4FF0
4800
4FF0
4FF0
56A0
5640
4730
ENDCHAR
STARTCHAR 5104
ENCODING 20740
SWIDTH 1040 0
DWIDTH 13 0
BBX 12 13 0 -2
BITMAP
0080
2080
3FF0
4620
5FF0
C810
4FF0
4810
4810
4FF0
4680
5620
67D0
ENDCHAR
STARTCHAR 5109
ENCODING 20745
SWIDTH 1040 0
DWIDTH 13 0
BBX 12 12 0 -2
BITMAP
27E0
2810
57F0
4000
CF70
4B50
4B50
4B50
4F70
4620
4B50
5090
ENDCHAR
STARTCHAR 5112
ENCODING 20754
SWIDTH 1040 0
DWIDTH 13 0
BBX 12 12 0 -2
BITMAP
2FF0
2080
4FF0
4890
CBB0
4000
5FF0
5F80
4080
4FF0
4B50
4B50
ENDCHAR
STARTCHAR 5114
ENCODING 20756
SWIDTH 1040 0
DWIDTH 13 0
BBX 12 13 0 -2
BITMAP
0080
2080
2FF0
4080
5FF0
C010
4FE0
4080
40F0
5FF0
4B10
4B50
4F30
ENDCHAR
STARTCHAR 5115
ENCODING 20757
SWIDTH 1040 0
DWIDTH 13 0
BBX 12 13 0 -2
BITMAP
0300
2300
3FF0
56A0
57A0
EED0
4820
4FE0
4820
4820
4FE0
5020
5020
ENDCHAR
STARTCHAR 5116
ENCODING 20758
SWIDTH 1040 0
DWIDTH 13 0
BBX 12 12 0 -2
BITMAP
2FA0
2B40
4FF0
4880
CF80
4B70
4B00
4BF0
4FF0
4B50
4B50
5FF0
ENDCHAR
STARTCHAR 5118
ENCODING 20760
SWIDTH 1040 0
DWIDTH 13 0
BBX 12 13 0 -2
BITMAP
0080
2080
2FF0
4090
5FF0
C090
4FF0
4B20
5BB0
5090
4FF0
4B50
5FF0
ENDCHAR
STARTCHAR 511A
ENCODING 20762
SWIDTH 1040 0
DWIDTH 13 0
BBX 12 13 0 -2
BITMAP
0640
2640
3FF0
4640
4FF0
CB50
5FF0
5610
57F0
47E0
5B20
40C0
4F00
ENDCHAR
STARTCHAR 511F
ENCODING 20767
SWIDTH 1040 0
DWIDTH 13 0
BBX 12 13 0 -2
BITMAP
0080
26A0
3FF0
5650
5640
CFF0
4810
4FF0
4810
4810
4FF0
4620
5810
ENDCHAR
STARTCHAR 5121
ENCODING 20769
SWIDTH 1040 0
DWIDTH 13 0
BBX 12 12 0 -2
BITMAP
2FE0
28A0
4FE0
48A0
CFE0
4000
5FF0
5350
5350
5FF0
5350
5FF0
ENDCHAR
STARTCHAR 512A
ENCODING 20778
SWIDTH 1040 0
DWIDTH 13 0
BBX 12 12 0 -2
BITMAP
3FF0
2820
2FE0
4820
7FF0
CB50
5620
5630
47F0
5E20
43C0
5E30
ENDCHAR
STARTCHAR 5132
ENCODING 20786
SWIDTH 1040 0
DWIDTH 13 0
BBX 12 13 0 -2
BITMAP
0040
3E40
20F0
5E40
4050
DEF0
4040
40F0
4090
5F90
56F0
5690
5EF0
ENDCHAR
STARTCHAR 5137
ENCODING 20791
SWIDTH 1040 0
DWIDTH 13 0
BBX 12 12 0 -2
BITMAP
2F70
2000
5F70
4B50
C080
4FF0
4B50
4B50
4FF0
5640
57D0
4E70
ENDCHAR
STARTCHAR 513A
ENCODING 20794
SWIDTH 1040 0
DWIDTH 13 0
BBX 12 13 0 -2
BITMAP
0080
28A0
3FA0
48F0
5FA0
D6F0
5FA0
48A0
48B0
7FF0
48A0
56A0
63F0
ENDCHAR
STARTCHAR 513B
ENCODING 20795
SWIDTH 1040 0
DWIDTH 13 0
BBX 12 13 0 -2
BITMAP
0080
26A0
3FF0
4650
4FF0
C890
4FF0
4080
40F0
4FF0
4080
5FF0
4B50
ENDCHAR
STARTCHAR 513C
ENCODING 20796
SWIDTH 1040 0
DWIDTH 13 0
BBX 12 12 0 -2
BITMAP
2F70
2B50
5FF0
5640
DF70
5350
5F90
5350
5350
5F50
7360
4390
ENDCHAR
STARTCHAR 513F
ENCODING 20799
SWIDTH 1040 0
DWIDTH 13 0
BBX 12 12 0 -2
BITMAP
2300
2300
2300
2300
2300
2300
2300
6310
4310
4310
8310
83F0
ENDCHAR
STARTCHAR 5140
ENCODING 20800
SWIDTH 1040 0
DWIDTH 13 0
BBX 12 12 0 -2
BITMAP
FFF0
1300
1300
1300
1300
2300
2300
6310
4310
4310
8310
83F0
ENDCHAR
STARTCHAR 5141
ENCODING 20801
SWIDTH 1040 0
DWIDTH 13 0
BBX 12 13 0 -2
BITMAP
0800
0800
1040
1040
2020
FFE0
1310
1310
1310
1300
1300
2310
C0F0
ENDCHAR
STARTCHAR 5143
ENCODING 20803
SWIDTH 1040 0
DWIDTH 13 0
BBX 12 12 0 -2
BITMAP
7FE0
0000
0000
0000
FFF0
1300
1300
1300
1300
1310
2310
C3F0
ENDCHAR
STARTCHAR 5144
ENCODING 20804
SWIDTH 1040 0
DWIDTH 13 0
BBX 12 12 0 -2
BITMAP
3FC0
2040
2040
2040
2040
3FC0
1300
1300
1300
1310
2310
C3F0
ENDCHAR
STARTCHAR 5145
ENCODING 20805
SWIDTH 1040 0
DWIDTH 13 0
BBX 12 13 0 -2
BITMAP
0600
0600
FFF0
0800
0880
1040
7FE0
1310
1310
1300
1300
2310
C0F0
ENDCHAR
STARTCHAR 5146
ENCODING 20806
SWIDTH 1040 0
DWIDTH 13 0
BBX 12 13 0 -2
BITMAP
0300
1300
9310
5320
1340
1300
3340
5320
9330
9310
1300
2310
C3F0
ENDCHAR
STARTCHAR 5147
ENCODING 20807
SWIDTH 1040 0
DWIDTH 13 0
BBX 12 12 0 -2
BITMAP
50A0
4B20
4620
4B20
50A0
4020
7FE0
7300
1300
1310
2310
C0F0
ENDCHAR
STARTCHAR 5148
ENCODING 20808
SWIDTH 1040 0
DWIDTH 13 0
BBX 12 13 0 -2
BITMAP
0600
2600
2600
3FE0
4600
8600
FFF0
0880
0880
0880
0880
1090
E0F0
ENDCHAR
STARTCHAR 5149
ENCODING 20809
SWIDTH 1040 0
DWIDTH 13 0
BBX 12 13 0 -2
BITMAP
0600
0600
4620
2640
0600
0600
FFF0
1300
1300
1300
1310
2310
C3F0
ENDCHAR
STARTCHAR 514B
ENCODING 20811
SWIDTH 1040 0
DWIDTH 13 0
BBX 12 13 0 -2
BITMAP
0600
0600
FFF0
0600
3FC0
2040
2040
3FC0
3300
1300
1310
2310
C3F0
ENDCHAR
STARTCHAR 514C
ENCODING 20812
SWIDTH 1040 0
DWIDTH 13 0
BBX 12 12 0 -2
BITMAP
27C0
2040
4020
7FE0
A050
A050
3FC0
3300
1300
1310
2310
C3F0
ENDCHAR
STARTCHAR 514D
ENCODING 20813
SWIDTH 1040 0
DWIDTH 13 0
BBX 12 12 0 -2
BITMAP
1F80
2080
4300
FFE0
4620
4620
7FE0
7300
1300
1310
2310
C3F0
ENDCHAR
STARTCHAR 514E
ENCODING 20814
SWIDTH 1040 0
DWIDTH 13 0
BBX 12 12 0 -2
BITMAP
03F0
FE00
0600
7FE0
4620
4620
7FE0
7340
1340
1320
2310
C0F0
ENDCHAR
STARTCHAR 5150
ENCODING 20816
SWIDTH 1040 0
DWIDTH 13 0
BBX 12 12 0 -2
BITMAP
4FE0
4820
4820
4FE0
4820
4820
4FE0
4880
0880
0890
1090
E0F0
ENDCHAR
STARTCHAR 5152
ENCODING 20818
SWIDTH 1040 0
DWIDTH 13 0
BBX 12 13 0 -2
BITMAP
0600
0800
70E0
4020
7BE0
4020
4020
7FE0
7300
1300
1310
2310
C3F0
ENDCHAR
STARTCHAR 5154
ENCODING 20820
SWIDTH 1040 0
DWIDTH 13 0
BBX 12 12 0 -2
BITMAP
1F80
2080
4300
FFE0
4620
4620
7FE0
7680
1680
1650
2610
C7F0
ENDCHAR
STARTCHAR 515A
ENCODING 20826
SWIDTH 1040 0
DWIDTH 13 0
BBX 12 13 0 -2
BITMAP
0600
2620
2640
FFF0
8010
BFD0
2040
2040
2040
3FC0
1310
2310
C3F0
ENDCHAR
STARTCHAR 515C
ENCODING 20828
SWIDTH 1040 0
DWIDTH 13 0
BBX 12 13 0 -2
BITMAP
0600
0800
DFB0
9090
9F90
9090
9090
DFB0
DF30
0300
1300
1310
E3F0
ENDCHAR
STARTCHAR 5162
ENCODING 20834
SWIDTH 1040 0
DWIDTH 13 0
BBX 12 13 0 -2
BITMAP
2040
2040
FBF0
2040
FBF0
8B10
8B10
FBF0
D3A0
50A0
50A0
9320
9B30
ENDCHAR
STARTCHAR 5165
ENCODING 20837
SWIDTH 1040 0
DWIDTH 13 0
BBX 12 12 0 -2
BITMAP
3E00
0600
0600
0600
0600
0B00
0B00
1B80
1080
2080
4040
8030
ENDCHAR
STARTCHAR 5168
ENCODING 20840
SWIDTH 1040 0
DWIDTH 13 0
BBX 12 12 0 -2
BITMAP
0F00
1080
2040
4020
BFD0
0600
0600
07C0
3FC0
0600
0600
FFF0
ENDCHAR
STARTCHAR 5169
ENCODING 20841
SWIDTH 1040 0
DWIDTH 13 0
BBX 12 12 0 -2
BITMAP
FFF0
0600
0600
FFF0
8610
B6D0
9650
9650
B6D0
CF30
8610
8630
ENDCHAR
STARTCHAR 516A
ENCODING 20842
SWIDTH 1040 0
DWIDTH 13 0
BBX 12 12 0 -2
BITMAP
7F80
1040
3FB0
4000
F890
8890
EB20
8B20
8B20
EB20
8890
9890
ENDCHAR
STARTCHAR 516B
ENCODING 20843
SWIDTH 1040 0
DWIDTH 13 0
BBX 12 12 0 -2
BITMAP
1F80
0080
0080
2080
2040
2040
4040
4060
4020
4020
8010
8010
ENDCHAR
STARTCHAR 516C
ENCODING 20844
SWIDTH 1040 0
DWIDTH 13 0
BBX 12 12 0 -2
BITMAP
07C0
2040
2040
4020
4020
8810
8810
9850
1040
1040
23A0
3E20
ENDCHAR
STARTCHAR 516D
ENCODING 20845
SWIDTH 1040 0
DWIDTH 13 0
BBX 12 13 0 -2
BITMAP
0600
0600
0600
FFF0
0000
0000
2040
2040
6060
4020
4020
8010
8010
ENDCHAR
STARTCHAR 516E
ENCODING 20846
SWIDTH 1040 0
DWIDTH 13 0
BBX 12 12 0 -2
BITMAP
27C0
2040
4020
7FE0
9010
9010
1FC0
3FC0
2040
2040
0080
0700
ENDCHAR
STARTCHAR 5171
ENCODING 20849
SWIDTH 1040 0
DWIDTH 13 0
BBX 12 13 0 -2
BITMAP
1080
1080
1080
7FE0
1080
1080
1080
FFF0
FFF0
0000
1080
2040
4020
ENDCHAR
STARTCHAR 5175
ENCODING 20853
SWIDTH 1040 0
DWIDTH 13 0
BBX 12 12 0 -2
BITMAP
00C0
3F00
2000
3FE0
2080
2080
2080
20F0
FFF0
0000
30C0
C030
ENDCHAR
STARTCHAR 5176
ENCODING 20854
SWIDTH 1040 0
DWIDTH 13 0
BBX 12 13 0 -2
BITMAP
1080
1080
FFF0
1080
1F80
1080
1F80
1080
10F0
FFF0
0000
30C0
C030
ENDCHAR
STARTCHAR 5177
ENCODING 20855
SWIDTH 1040 0
DWIDTH 13 0
BBX 12 12 0 -2
BITMAP
3FC0
2040
3FC0
2040
3FC0
2040
2040
2070
FFF0
0000
30C0
C030
ENDCHAR
STARTCHAR 5178
ENCODING 20856
SWIDTH 1040 0
DWIDTH 13 0
BBX 12 13 0 -2
BITMAP
0B00
0B00
7FE0
4B20
4B20
7FE0
4B20
4B20
4B30
FFF0
0000
30C0
C030
ENDCHAR
STARTCHAR 517C
ENCODING 20860
SWIDTH 1040 0
DWIDTH 13 0
BBX 12 13 0 -2
BITMAP
1040
1080
FFF0
1300
7FC0
1340
FFF0
1340
1340
7FC0
1300
5320
9310
ENDCHAR
STARTCHAR 5180
ENCODING 20864
SWIDTH 1040 0
DWIDTH 13 0
BBX 12 13 0 -2
BITMAP
0B00
0B30
FBC0
0B10
FFF0
2640
3FC0
2640
2660
7FE0
1080
FFF0
2040
ENDCHAR
STARTCHAR 5182
ENCODING 20866
SWIDTH 1040 0
DWIDTH 13 0
BBX 12 12 0 -2
BITMAP
FFF0
8010
8010
8010
8010
8010
8010
8010
8010
8010
8010
8070
ENDCHAR
STARTCHAR 5185
ENCODING 20869
SWIDTH 1040 0
DWIDTH 13 0
BBX 12 13 0 -2
BITMAP
0600
0600
0600
FFF0
8610
8610
8B10
9090
A0D0
A050
8010
8010
8070
ENDCHAR
STARTCHAR 5186
ENCODING 20870
SWIDTH 1040 0
DWIDTH 13 0
BBX 12 12 0 -2
BITMAP
FFF0
8610
8610
8610
8610
FFF0
8010
8010
8010
8010
8010
8070
ENDCHAR
STARTCHAR 5189
ENCODING 20873
SWIDTH 1040 0
DWIDTH 13 0
BBX 12 13 0 -2
BITMAP
0600
0600
7FE0
4620
4620
7FE0
4620
4620
4630
FFF0
4020
4020
4060
ENDCHAR
STARTCHAR 518A
ENCODING 20874
SWIDTH 1040 0
DWIDTH 13 0
BBX 12 12 0 -2
BITMAP
7FE0
4B20
4B20
4B20
4B20
FFF0
4B20
4B20
4B20
4B20
4B20
4060
ENDCHAR
STARTCHAR 518C
ENCODING 20876
SWIDTH 1040 0
DWIDTH 13 0
BBX 12 12 0 -2
BITMAP
7BE0
4B20
4B20
4B20
FFF0
4B20
4B20
4B20
4B20
4B20
8B20
9B60
ENDCHAR
STARTCHAR 518D
ENCODING 20877
SWIDTH 1040 0
DWIDTH 13 0
BBX 12 12 0 -2
BITMAP
FFF0
0600
7FE0
4620
7FE0
4620
4620
4630
FFF0
4020
4020
4060
ENDCHAR
STARTCHAR 518F
ENCODING 20879
SWIDTH 1040 0
DWIDTH 13 0
BBX 12 12 0 -2
BITMAP
FFF0
8B10
8B10
9310
A0F0
DF90
9090
9090
9090
9F90
8010
8030
ENDCHAR
STARTCHAR 5190
ENCODING 20880
SWIDTH 1040 0
DWIDTH 13 0
BBX 12 12 0 -2
BITMAP
FFF0
8010
BFD0
8010
3FC0
2040
3FC0
2040
2040
3FC0
2040
20C0
ENDCHAR
STARTCHAR 5191
ENCODING 20881
SWIDTH 1040 0
DWIDTH 13 0
BBX 12 13 0 -2
BITMAP
0600
0600
FFF0
8610
FFF0
8610
FFF0
4020
5FA0
5FA0
4020
5FA0
4060
ENDCHAR
STARTCHAR 5192
ENCODING 20882
SWIDTH 1040 0
DWIDTH 13 0
BBX 11 12 1 -2
BITMAP
FFE0
8020
FFE0
8020
FFE0
0000
7FC0
4040
4040
7FC0
4040
7FC0
ENDCHAR
STARTCHAR 5193
ENCODING 20883
SWIDTH 1040 0
DWIDTH 13 0
BBX 12 13 0 -2
BITMAP
1080
1080
7FE0
1080
FFF0
0600
7FE0
4620
4620
7FE0
4620
FFF0
4020
ENDCHAR
STARTCHAR 5195
ENCODING 20885
SWIDTH 1040 0
DWIDTH 13 0
BBX 12 12 0 -2
BITMAP
7FE0
4020
5FA0
4020
5FA0
2300
FFE0
C620
4620
7FE0
1310
E3F0
ENDCHAR
STARTCHAR 5196
ENCODING 20886
SWIDTH 1040 0
DWIDTH 13 0
BBX 12 4 0 4
BITMAP
FFF0
8010
8010
8010
ENDCHAR
STARTCHAR 5197
ENCODING 20887
SWIDTH 1040 0
DWIDTH 13 0
BBX 12 12 0 -2
BITMAP
FFF0
8010
8010
1F80
1080
1080
1080
1080
1080
1090
2090
C0F0
ENDCHAR
STARTCHAR 5199
ENCODING 20889
SWIDTH 1040 0
DWIDTH 13 0
BBX 12 12 0 -2
BITMAP
FFF0
9010
9FD0
1000
2000
3FC0
0040
0070
FFF0
0040
0080
0F00
ENDCHAR
STARTCHAR 51A0
ENCODING 20896
SWIDTH 1040 0
DWIDTH 13 0
BBX 12 12 0 -2
BITMAP
FFF0
8010
0020
F020
07F0
0020
FB20
D3A0
50A0
5020
9010
8FF0
ENDCHAR
STARTCHAR 51A2
ENCODING 20898
SWIDTH 1040 0
DWIDTH 13 0
BBX 12 12 0 -2
BITMAP
FFF0
8010
BFD0
2600
0620
1B40
7380
7340
1740
1B20
E310
0E00
ENDCHAR
STARTCHAR 51A4
ENCODING 20900
SWIDTH 1040 0
DWIDTH 13 0
BBX 12 12 0 -2
BITMAP
FFF0
8010
9F90
2300
7FE0
C620
4620
4620
7FE0
0B40
3310
C0F0
ENDCHAR
STARTCHAR 51A5
ENCODING 20901
SWIDTH 1040 0
DWIDTH 13 0
BBX 12 12 0 -2
BITMAP
FFF0
8010
BFD0
2040
3FC0
2040
3FC0
3E00
0600
FFF0
2040
C030
ENDCHAR
STARTCHAR 51A6
ENCODING 20902
SWIDTH 1040 0
DWIDTH 13 0
BBX 12 12 0 -2
BITMAP
FFF0
8010
8090
F8E0
0080
07F0
FB20
D3E0
53C0
5630
9010
8FF0
ENDCHAR
STARTCHAR 51A8
ENCODING 20904
SWIDTH 1040 0
DWIDTH 13 0
BBX 12 12 0 -2
BITMAP
FFF0
8010
BFD0
1080
1F80
0000
7FE0
4620
4620
7FE0
4620
7FE0
ENDCHAR
STARTCHAR 51A9
ENCODING 20905
SWIDTH 1040 0
DWIDTH 13 0
BBX 12 12 0 -2
BITMAP
FFF0
8810
B3D0
2040
3BC0
2040
2040
2070
7FF0
8010
2B10
4B60
ENDCHAR
STARTCHAR 51AA
ENCODING 20906
SWIDTH 1040 0
DWIDTH 13 0
BBX 12 12 0 -2
BITMAP
FFF0
9090
7FE0
2040
3FC0
2040
FFF0
E640
2640
7FE0
A650
26C0
ENDCHAR
STARTCHAR 51AB
ENCODING 20907
SWIDTH 1040 0
DWIDTH 13 0
BBX 8 12 2 -2
BITMAP
40
20
18
00
00
00
01
03
02
0C
38
C0
ENDCHAR
STARTCHAR 51AC
ENCODING 20908
SWIDTH 1040 0
DWIDTH 13 0
BBX 12 13 0 -2
BITMAP
0800
0800
0FC0
1040
6880
0700
18C0
E630
E7B0
0380
0000
3800
07C0
ENDCHAR
STARTCHAR 51B0
ENCODING 20912
SWIDTH 1040 0
DWIDTH 13 0
BBX 12 13 0 -2
BITMAP
0080
0080
8080
5E90
06A0
06C0
06C0
08A0
48A0
48A0
5090
9090
8380
ENDCHAR
STARTCHAR 51B1
ENCODING 20913
SWIDTH 1040 0
DWIDTH 13 0
BBX 12 12 0 -2
BITMAP
1FF0
8300
4300
23E0
0620
0620
07E0
4620
4620
4020
8020
9FF0
ENDCHAR
STARTCHAR 51B2
ENCODING 20914
SWIDTH 1040 0
DWIDTH 13 0
BBX 12 13 0 -2
BITMAP
0080
0080
8080
4FF0
0890
0890
0890
0FF0
4F80
4080
4080
8080
8080
ENDCHAR
STARTCHAR 51B3
ENCODING 20915
SWIDTH 1040 0
DWIDTH 13 0
BBX 12 13 0 -2
BITMAP
0080
0080
8FF0
4090
0090
0090
1FF0
0080
4080
4080
4340
8620
9810
ENDCHAR
STARTCHAR 51B4
ENCODING 20916
SWIDTH 1040 0
DWIDTH 13 0
BBX 12 12 0 -2
BITMAP
1FF0
8620
4620
0620
1FF0
0020
0060
43E0
43A0
5E20
8020
80E0
ENDCHAR
STARTCHAR 51B5
ENCODING 20917
SWIDTH 1040 0
DWIDTH 13 0
BBX 12 12 0 -2
BITMAP
0FF0
8810
4810
0810
0FF0
0340
0340
4340
4340
4350
8650
9870
ENDCHAR
STARTCHAR 51B6
ENCODING 20918
SWIDTH 1040 0
DWIDTH 13 0
BBX 12 13 0 -2
BITMAP
0300
0300
8610
4810
2FF0
0000
0000
0FF0
0810
0810
2810
4810
8FF0
ENDCHAR
STARTCHAR 51B7
ENCODING 20919
SWIDTH 1040 0
DWIDTH 13 0
BBX 12 12 0 -2
BITMAP
07C0
8820
5010
0FE0
0000
0000
5FF0
5F10
4310
8310
8360
0300
ENDCHAR
STARTCHAR 51BD
ENCODING 20925
SWIDTH 1040 0
DWIDTH 13 0
BBX 12 12 0 -2
BITMAP
3F90
8850
4850
0F50
1350
1350
0B50
4F50
4650
4610
8810
B030
ENDCHAR
STARTCHAR 51C4
ENCODING 20932
SWIDTH 1040 0
DWIDTH 13 0
BBX 12 13 0 -2
BITMAP
0300
0300
9FF0
4320
1FF0
0320
0FE0
0300
43F0
5FF0
4620
87C0
9830
ENDCHAR
STARTCHAR 51C5
ENCODING 20933
SWIDTH 1040 0
DWIDTH 13 0
BBX 12 12 0 -2
BITMAP
0FF0
8890
4890
0FF0
0890
0BD0
0B50
4B50
4B50
4BD0
8810
8FF0
ENDCHAR
STARTCHAR 51C6
ENCODING 20934
SWIDTH 1040 0
DWIDTH 13 0
BBX 12 13 0 -2
BITMAP
0600
0640
8640
4FF0
0880
1FF0
0880
0880
48F0
4FF0
4880
8880
8FF0
ENDCHAR
STARTCHAR 51C9
ENCODING 20937
SWIDTH 1040 0
DWIDTH 13 0
BBX 12 13 0 -2
BITMAP
0080
0080
9FF0
4000
0FE0
0820
0820
0FE0
4F80
4080
48A0
9090
8380
ENDCHAR
STARTCHAR 51CB
ENCODING 20939
SWIDTH 1040 0
DWIDTH 13 0
BBX 12 12 0 -2
BITMAP
1FF0
9310
5310
1FD0
1310
1FD0
5010
57D0
57D0
9650
A7D0
2030
ENDCHAR
STARTCHAR 51CC
ENCODING 20940
SWIDTH 1040 0
DWIDTH 13 0
BBX 12 13 0 -2
BITMAP
0080
0080
9FF0
4080
1FF0
0640
1830
07E0
5FE0
5820
4640
83C0
9E30
ENDCHAR
STARTCHAR 51CD
ENCODING 20941
SWIDTH 1040 0
DWIDTH 13 0
BBX 12 13 0 -2
BITMAP
0080
0080
9FF0
4080
0FF0
0890
0FF0
0890
4890
4FF0
4380
86A0
9890
ENDCHAR
STARTCHAR 51D6
ENCODING 20950
SWIDTH 1040 0
DWIDTH 13 0
BBX 12 13 0 -2
BITMAP
0640
0640
8FF0
5880
0FE0
0880
4880
8FF0
8E00
0600
FFF0
0600
0600
ENDCHAR
STARTCHAR 51DB
ENCODING 20955
SWIDTH 1040 0
DWIDTH 13 0
BBX 12 13 0 -2
BITMAP
0080
0080
9FF0
4B50
0BD0
0810
0FF0
0000
5FF0
5FF0
4080
88A0
9390
ENDCHAR
STARTCHAR 51DC
ENCODING 20956
SWIDTH 1040 0
DWIDTH 13 0
BBX 12 13 0 -2
BITMAP
0080
0080
9FF0
4B50
0BD0
0810
0FF0
0080
40F0
5FF0
4380
86A0
9890
ENDCHAR
STARTCHAR 51DD
ENCODING 20957
SWIDTH 1040 0
DWIDTH 13 0
BBX 12 12 0 -2
BITMAP
13F0
9E20
5040
0FF0
1050
1F40
0840
4F70
5F70
4B40
9740
A3F0
ENDCHAR
STARTCHAR 51E0
ENCODING 20960
SWIDTH 1040 0
DWIDTH 13 0
BBX 12 12 0 -2
BITMAP
3F80
2080
2080
2080
2080
2080
2080
6080
4080
4090
8090
80F0
ENDCHAR
STARTCHAR 51E1
ENCODING 20961
SWIDTH 1040 0
DWIDTH 13 0
BBX 12 12 0 -2
BITMAP
3F80
2080
2080
2080
2880
2680
2080
6080
4080
4090
8090
80F0
ENDCHAR
STARTCHAR 51E6
ENCODING 20966
SWIDTH 1040 0
DWIDTH 13 0
BBX 12 13 0 -2
BITMAP
4000
4000
7BE0
4B20
4B20
8B20
9320
5620
7630
2630
6000
9800
87F0
ENDCHAR
STARTCHAR 51E7
ENCODING 20967
SWIDTH 1040 0
DWIDTH 13 0
BBX 12 12 0 -2
BITMAP
7FE0
4620
4620
5FA0
56A0
56A0
56A0
56A0
56A0
5790
8610
8610
ENDCHAR
STARTCHAR 51E9
ENCODING 20969
SWIDTH 1040 0
DWIDTH 13 0
BBX 12 12 0 -2
BITMAP
7FE0
4620
4620
7FE0
4620
4E20
4F20
5EA0
56A0
5650
8610
8610
ENDCHAR
STARTCHAR 51EA
ENCODING 20970
SWIDTH 1040 0
DWIDTH 13 0
BBX 12 12 0 -2
BITMAP
7FE0
4020
4620
4620
4620
57A0
5620
5620
5620
5610
BFD0
8010
ENDCHAR
STARTCHAR 51ED
ENCODING 20973
SWIDTH 1040 0
DWIDTH 13 0
BBX 12 12 0 -2
BITMAP
2FF0
2080
5FF0
C080
4080
4FF0
0000
1F80
1F80
1080
1090
E0F0
ENDCHAR
STARTCHAR 51F0
ENCODING 20976
SWIDTH 1040 0
DWIDTH 13 0
BBX 12 12 0 -2
BITMAP
7FE0
4620
5FA0
50A0
5FA0
50A0
5FA0
5E20
4620
5F90
8610
BFD0
ENDCHAR
STARTCHAR 51F1
ENCODING 20977
SWIDTH 1040 0
DWIDTH 13 0
BBX 12 13 0 -2
BITMAP
2000
ABE0
FB20
0320
FB20
0320
FB20
8B20
8B20
FB20
5320
5620
F830
ENDCHAR
STARTCHAR 51F5
ENCODING 20981
SWIDTH 1040 0
DWIDTH 13 0
BBX 12 12 0 -2
BITMAP
8010
8010
8010
8010
8010
8010
8010
8010
8010
8010
8010
FFF0
ENDCHAR
STARTCHAR 51F6
ENCODING 20982
SWIDTH 1040 0
DWIDTH 13 0
BBX 12 12 0 -2
BITMAP
8010
A050
9090
8B10
8610
8B10
9090
A0D0
A050
8010
8010
FFF0
ENDCHAR
STARTCHAR 51F8
ENCODING 20984
SWIDTH 1040 0
DWIDTH 13 0
BBX 12 12 0 -2
BITMAP
1F80
1080
1080
1080
1080
F0F0
8010
8010
8010
8010
8010
FFF0
ENDCHAR
STARTCHAR 51F9
ENCODING 20985
SWIDTH 1040 0
DWIDTH 13 0
BBX 12 12 0 -2
BITMAP
F0F0
9090
9090
9090
9090
9F90
8010
8010
8010
8010
8010
FFF0
ENDCHAR
STARTCHAR 51FA
ENCODING 20986
SWIDTH 1040 0
DWIDTH 13 0
BBX 12 13 0 -2
BITMAP
0600
0600
4620
4620
4620
7FE0
0600
0600
8610
8610
8610
8610
FFF0
ENDCHAR
STARTCHAR 51FD
ENCODING 20989
SWIDTH 1040 0
DWIDTH 13 0
BBX 12 12 0 -2
BITMAP
FFF0
0800
0E00
A650
9690
8610
9690
A6D0
A650
CE30
8010
FFF0
ENDCHAR
STARTCHAR 51FE
ENCODING 20990
SWIDTH 1040 0
DWIDTH 13 0
BBX 12 12 0 -2
BITMAP
7FE0
0300
8610
87F0
F610
9690
96B0
96D0
F6D0
8730
8810
FFF0
ENDCHAR
STARTCHAR 5200
ENCODING 20992
SWIDTH 1040 0
DWIDTH 13 0
BBX 12 12 0 -2
BITMAP
FFF0
0810
0810
0810
0810
0810
0810
1810
1010
1010
2020
C3C0
ENDCHAR
STARTCHAR 5203
ENCODING 20995
SWIDTH 1040 0
DWIDTH 13 0
BBX 12 12 0 -2
BITMAP
FFF0
0810
0810
2810
1810
0810
0E10
1F10
1310
1010
2020
C3C0
ENDCHAR
STARTCHAR 5204
ENCODING 20996
SWIDTH 1040 0
DWIDTH 13 0
BBX 12 12 0 -2
BITMAP
FFE0
0820
4820
4820
A820
9020
1E20
3E30
23F0
2020
4040
4380
ENDCHAR
STARTCHAR 5206
ENCODING 20998
SWIDTH 1040 0
DWIDTH 13 0
BBX 12 12 0 -2
BITMAP
27C0
2040
2020
4020
4010
BFD0
8840
8840
0840
1040
1040
6380
ENDCHAR
STARTCHAR 5207
ENCODING 20999
SWIDTH 1040 0
DWIDTH 13 0
BBX 12 12 0 -2
BITMAP
4FF0
4310
4310
F310
4310
4310
4610
4610
4610
3810
0820
00C0
ENDCHAR
STARTCHAR 5208
ENCODING 21000
SWIDTH 1040 0
DWIDTH 13 0
BBX 12 12 0 -2
BITMAP
0810
0890
8890
4890
3090
1090
1090
3890
2890
2610
4010
4030
ENDCHAR
STARTCHAR 520A
ENCODING 21002
SWIDTH 1040 0
DWIDTH 13 0
BBX 12 12 0 -2
BITMAP
FE10
2090
2090
2090
2090
FE90
2090
2090
2090
2010
2010
2030
ENDCHAR
STARTCHAR 520B
ENCODING 21003
SWIDTH 1040 0
DWIDTH 13 0
BBX 12 12 0 -2
BITMAP
0E10
F090
1090
1090
1090
FF90
1090
1090
1090
2010
2010
4030
ENDCHAR
STARTCHAR 520E
ENCODING 21006
SWIDTH 1040 0
DWIDTH 13 0
BBX 12 13 0 -2
BITMAP
4000
4010
7E90
D690
5690
5690
5690
9690
B690
A690
2610
4610
5830
ENDCHAR
STARTCHAR 5211
ENCODING 21009
SWIDTH 1040 0
DWIDTH 13 0
BBX 12 12 0 -2
BITMAP
FE10
4890
4890
4890
FE90
4890
4890
4890
4890
4810
8810
8830
ENDCHAR
STARTCHAR 5214
ENCODING 21012
SWIDTH 1040 0
DWIDTH 13 0
BBX 12 13 0 -2
BITMAP
2000
2010
FE90
2690
2690
2690
FF90
2090
2090
2090
5010
8810
8630
ENDCHAR
STARTCHAR 5217
ENCODING 21015
SWIDTH 1040 0
DWIDTH 13 0
BBX 12 12 0 -2
BITMAP
FE10
2090
2090
3E90
4690
6690
9690
9E90
0890
0810
3010
C030
ENDCHAR
STARTCHAR 521D
ENCODING 21021
SWIDTH 1040 0
DWIDTH 13 0
BBX 12 12 0 -2
BITMAP
4FF0
4310
F310
1310
1310
2310
4610
6610
E610
4810
4820
40C0
ENDCHAR
STARTCHAR 5224
ENCODING 21028
SWIDTH 1040 0
DWIDTH 13 0
BBX 12 13 0 -2
BITMAP
2000
2010
A690
A890
2090
FE90
2090
2090
3E90
FE90
2090
2010
2030
ENDCHAR
STARTCHAR 5225
ENCODING 21029
SWIDTH 1040 0
DWIDTH 13 0
BBX 12 12 0 -2
BITMAP
F810
8890
8890
F890
4090
7890
4890
C890
8890
8810
0810
7030
ENDCHAR
STARTCHAR 5227
ENCODING 21031
SWIDTH 1040 0
DWIDTH 13 0
BBX 12 13 0 -2
BITMAP
2000
27F0
F890
2090
2090
2090
F890
4310
4310
4310
8810
8820
F8C0
ENDCHAR
STARTCHAR 5229
ENCODING 21033
SWIDTH 1040 0
DWIDTH 13 0
BBX 12 12 0 -2
BITMAP
0E10
F090
1090
1090
FE90
1090
3090
7890
5890
9610
1010
1030
ENDCHAR
STARTCHAR 522A
ENCODING 21034
SWIDTH 1040 0
DWIDTH 13 0
BBX 12 12 0 -2
BITMAP
7E10
5690
5690
5690
5690
FF90
5690
5690
5690
5610
5610
5630
ENDCHAR
STARTCHAR 522E
ENCODING 21038
SWIDTH 1040 0
DWIDTH 13 0
BBX 12 12 0 -2
BITMAP
1810
E090
2090
2090
FE90
2090
2090
3890
F890
8810
8810
F830
ENDCHAR
STARTCHAR 5230
ENCODING 21040
SWIDTH 1040 0
DWIDTH 13 0
BBX 12 12 0 -2
BITMAP
FE10
2090
4090
8690
FE90
2090
2090
3E90
FE90
2010
2010
FE30
ENDCHAR
STARTCHAR 5233
ENCODING 21043
SWIDTH 1040 0
DWIDTH 13 0
BBX 12 13 0 -2
BITMAP
1000
1010
FE90
4890
8690
FE90
0090
FE90
C090
4090
FE10
8610
1830
ENDCHAR
STARTCHAR 5236
ENCODING 21046
SWIDTH 1040 0
DWIDTH 13 0
BBX 12 13 0 -2
BITMAP
2000
A010
FE90
A090
2090
FE90
2090
FE90
A690
A690
A610
AE10
2030
ENDCHAR
STARTCHAR 5237
ENCODING 21047
SWIDTH 1040 0
DWIDTH 13 0
BBX 12 12 0 -2
BITMAP
FE10
8690
8690
FE90
A090
A090
FE90
A690
A690
A610
AE10
2030
ENDCHAR
STARTCHAR 5238
ENCODING 21048
SWIDTH 1040 0
DWIDTH 13 0
BBX 12 13 0 -2
BITMAP
0600
2620
2640
7FE0
0880
FFF0
1040
3FE0
F850
C850
0840
1040
6380
ENDCHAR
STARTCHAR 5239
ENCODING 21049
SWIDTH 1040 0
DWIDTH 13 0
BBX 12 12 0 -2
BITMAP
4610
2890
1090
2890
C690
1090
FE90
F090
3090
5810
9610
1030
ENDCHAR
STARTCHAR 523A
ENCODING 21050
SWIDTH 1040 0
DWIDTH 13 0
BBX 12 13 0 -2
BITMAP
2000
2010
FE90
2090
2090
FE90
A690
A690
B690
3090
6810
A610
2030
ENDCHAR
STARTCHAR 523B
ENCODING 21051
SWIDTH 1040 0
DWIDTH 13 0
BBX 12 13 0 -2
BITMAP
1000
1010
FE90
1090
2090
4690
2890
1090
7690
6690
0810
3610
C330
ENDCHAR
STARTCHAR 5243
ENCODING 21059
SWIDTH 1040 0
DWIDTH 13 0
BBX 12 13 0 -2
BITMAP
4800
4810
1090
FE90
2690
FE90
A090
FE90
E690
2690
6610
A610
3830
ENDCHAR
STARTCHAR 5244
ENCODING 21060
SWIDTH 1040 0
DWIDTH 13 0
BBX 12 12 0 -2
BITMAP
FE10
5690
5690
A890
5690
5690
0090
FE90
FE90
2010
2010
FE30
ENDCHAR
STARTCHAR 5247
ENCODING 21063
SWIDTH 1040 0
DWIDTH 13 0
BBX 12 12 0 -2
BITMAP
F810
8890
F890
8890
F890
8890
8890
8890
F890
0010
4810
8630
ENDCHAR
STARTCHAR 524A
ENCODING 21066
SWIDTH 1040 0
DWIDTH 13 0
BBX 12 13 0 -2
BITMAP
2000
2010
A690
A890
2090
FE90
8690
FE90
8690
8690
FE10
8610
8E30
ENDCHAR
STARTCHAR 524B
ENCODING 21067
SWIDTH 1040 0
DWIDTH 13 0
BBX 12 13 0 -2
BITMAP
2000
2090
FE90
2090
F890
8890
8890
F810
D010
5030
5000
9010
8FF0
ENDCHAR
STARTCHAR 524C
ENCODING 21068
SWIDTH 1040 0
DWIDTH 13 0
BBX 12 13 0 -2
BITMAP
2000
2010
FE90
2090
FE90
A690
A690
FE90
F090
3090
6810
A610
2030
ENDCHAR
STARTCHAR 524D
ENCODING 21069
SWIDTH 1040 0
DWIDTH 13 0
BBX 12 13 0 -2
BITMAP
1040
1080
FFF0
0000
7E90
4690
7E90
4690
4690
7E90
4690
4610
4E30
ENDCHAR
STARTCHAR 524F
ENCODING 21071
SWIDTH 1040 0
DWIDTH 13 0
BBX 12 13 0 -2
BITMAP
8800
4FF0
1090
F890
5390
5090
50D0
FB30
D330
5310
5610
9620
90C0
ENDCHAR
STARTCHAR 5254
ENCODING 21076
SWIDTH 1040 0
DWIDTH 13 0
BBX 12 12 0 -2
BITMAP
F810
8890
F890
8890
F890
4090
FE90
D690
5690
9610
2610
5830
ENDCHAR
STARTCHAR 5256
ENCODING 21078
SWIDTH 1040 0
DWIDTH 13 0
BBX 12 13 0 -2
BITMAP
2000
2010
FE90
4890
4890
FE90
0090
0090
FE90
FE90
8610
8610
FE30
ENDCHAR
STARTCHAR 525B
ENCODING 21083
SWIDTH 1040 0
DWIDTH 13 0
BBX 12 12 0 -2
BITMAP
FF10
8350
AB50
AB50
FF50
A350
A350
AB50
AB50
FB10
8310
8730
ENDCHAR
STARTCHAR 525E
ENCODING 21086
SWIDTH 1040 0
DWIDTH 13 0
BBX 12 13 0 -2
BITMAP
1000
1010
FE90
1090
2890
4690
FF90
0690
E690
E690
A610
E610
0E30
ENDCHAR
STARTCHAR 5263
ENCODING 21091
SWIDTH 1040 0
DWIDTH 13 0
BBX 12 12 0 -2
BITMAP
7810
8690
FE90
2090
FE90
A690
A690
A690
FE90
2010
5810
8730
ENDCHAR
STARTCHAR 5264
ENCODING 21092
SWIDTH 1040 0
DWIDTH 13 0
BBX 12 13 0 -2
BITMAP
1000
1010
FF90
4690
4890
3890
C790
7E90
4690
4690
7E90
8610
8630
ENDCHAR
STARTCHAR 5265
ENCODING 21093
SWIDTH 1040 0
DWIDTH 13 0
BBX 12 12 0 -2
BITMAP
F810
0890
7890
0890
FE90
1090
D690
D890
5890
5610
9310
3030
ENDCHAR
STARTCHAR 5269
ENCODING 21097
SWIDTH 1040 0
DWIDTH 13 0
BBX 12 12 0 -2
BITMAP
FF10
1050
FF50
5650
D750
5650
D750
DF50
1850
3610
D310
1030
ENDCHAR
STARTCHAR 526A
ENCODING 21098
SWIDTH 1040 0
DWIDTH 13 0
BBX 12 13 0 -2
BITMAP
1080
1080
FFF0
4B20
6B20
5B20
4860
0000
FFF0
FFF0
0810
3010
C060
ENDCHAR
STARTCHAR 526F
ENCODING 21103
SWIDTH 1040 0
DWIDTH 13 0
BBX 12 12 0 -2
BITMAP
FE10
0090
7890
4890
7890
0090
FE90
A690
A690
FE10
A610
FE30
ENDCHAR
STARTCHAR 5270
ENCODING 21104
SWIDTH 1040 0
DWIDTH 13 0
BBX 12 12 0 -2
BITMAP
FE10
1090
FE90
5690
FE90
5690
5690
5690
FE90
1010
3610
D330
ENDCHAR
STARTCHAR 5271
ENCODING 21105
SWIDTH 1040 0
DWIDTH 13 0
BBX 12 12 0 -2
BITMAP
77F0
8890
F890
2390
F890
A8D0
A8B0
ABB0
FB10
2310
5020
8EC0
ENDCHAR
STARTCHAR 5272
ENCODING 21106
SWIDTH 1040 0
DWIDTH 13 0
BBX 12 13 0 -2
BITMAP
1000
1010
FF90
9090
FE90
1090
7E90
1090
1E90
FE90
4610
4610
7E30
ENDCHAR
STARTCHAR 5273
ENCODING 21107
SWIDTH 1040 0
DWIDTH 13 0
BBX 12 13 0 -2
BITMAP
4800
4810
FE90
4890
3090
4890
8690
F890
F890
0090
FE10
8610
FE30
ENDCHAR
STARTCHAR 5274
ENCODING 21108
SWIDTH 1040 0
DWIDTH 13 0
BBX 12 13 0 -2
BITMAP
2000
A610
FE90
0090
FE90
0090
FE90
8690
8690
FE90
4810
4810
FE30
ENDCHAR
STARTCHAR 5275
ENCODING 21109
SWIDTH 1040 0
DWIDTH 13 0
BBX 12 12 0 -2
BITMAP
3810
4690
FE90
4690
7E90
4690
7E90
4090
4090
BE10
A610
3E30
ENDCHAR
STARTCHAR 527D
ENCODING 21117
SWIDTH 1040 0
DWIDTH 13 0
BBX 12 12 0 -2
BITMAP
FF10
2850
FF50
AB50
FF50
0050
FF50
FF50
0050
FF10
5610
B330
ENDCHAR
STARTCHAR 527F
ENCODING 21119
SWIDTH 1040 0
DWIDTH 13 0
BBX 12 13 0 -2
BITMAP
5600
A810
5690
FE90
A690
FE90
A690
FE90
E090
2090
6810
A610
2030
ENDCHAR
STARTCHAR 5283
ENCODING 21123
SWIDTH 1040 0
DWIDTH 13 0
BBX 12 12 0 -2
BITMAP
FE10
2690
FE90
2690
FE90
2090
FF90
A690
A690
FE10
A610
FF30
ENDCHAR
STARTCHAR 5287
ENCODING 21127
SWIDTH 1040 0
DWIDTH 13 0
BBX 12 13 0 -2
BITMAP
1000
1E10
1090
FF90
9090
FE90
9090
BF90
F890
C890
3B10
CE10
3330
ENDCHAR
STARTCHAR 5288
ENCODING 21128
SWIDTH 1040 0
DWIDTH 13 0
BBX 12 13 0 -2
BITMAP
0080
F080
97F0
F320
8FF0
F080
97F0
9080
90F0
FFF0
0810
3010
C060
ENDCHAR
STARTCHAR 5289
ENCODING 21129
SWIDTH 1040 0
DWIDTH 13 0
BBX 12 12 0 -2
BITMAP
DF10
8B50
AB50
D750
3E50
4350
FED0
F0D0
1050
FF10
5610
FF30
ENDCHAR
STARTCHAR 528D
ENCODING 21133
SWIDTH 1040 0
DWIDTH 13 0
BBX 12 12 0 -2
BITMAP
7E10
8350
FE50
0050
EF50
AB50
AB50
AB50
EF50
4610
AB10
90B0
ENDCHAR
STARTCHAR 5291
ENCODING 21137
SWIDTH 1040 0
DWIDTH 13 0
BBX 12 13 0 -2
BITMAP
0800
0810
FFD0
5690
5ED0
B750
4350
7F50
4350
4350
7F10
8310
8330
ENDCHAR
STARTCHAR 5292
ENCODING 21138
SWIDTH 1040 0
DWIDTH 13 0
BBX 12 12 0 -2
BITMAP
77F0
8890
F890
0390
FE90
A890
A890
AB90
FB10
5310
A820
A6C0
ENDCHAR
STARTCHAR 5294
ENCODING 21140
SWIDTH 1040 0
DWIDTH 13 0
BBX 12 12 0 -2
BITMAP
77F0
8890
F890
0090
FB90
A8D0
A8B0
ABB0
FB10
5310
A820
A6C0
ENDCHAR
STARTCHAR 529B
ENCODING 21147
SWIDTH 1040 0
DWIDTH 13 0
BBX 12 13 0 -2
BITMAP
0800
0800
0800
FFF0
0810
0810
0810
0810
1810
1010
1010
2020
C3C0
ENDCHAR
STARTCHAR 529F
ENCODING 21151
SWIDTH 1040 0
DWIDTH 13 0
BBX 12 13 0 -2
BITMAP
0080
0080
F080
2FF0
2090
2090
2310
2310
2710
2610
3610
C020
00C0
ENDCHAR
STARTCHAR 52A0
ENCODING 21152
SWIDTH 1040 0
DWIDTH 13 0
BBX 12 13 0 -2
BITMAP
2000
2000
20F0
FE90
2690
2690
2690
4690
4690
4690
8690
8890
30F0
ENDCHAR
STARTCHAR 52A3
ENCODING 21155
SWIDTH 1040 0
DWIDTH 13 0
BBX 12 13 0 -2
BITMAP
0600
2640
2620
4E10
80C0
1F00
E600
3FF0
3E10
0610
0810
3020
C3C0
ENDCHAR
STARTCHAR 52A9
ENCODING 21161
SWIDTH 1040 0
DWIDTH 13 0
BBX 12 13 0 -2
BITMAP
0080
F080
9080
9FF0
F090
9090
9310
F310
9710
9610
9610
9020
F8C0
ENDCHAR
STARTCHAR 52AA
ENCODING 21162
SWIDTH 1040 0
DWIDTH 13 0
BBX 12 13 0 -2
BITMAP
2000
23F0
FE10
4890
48A0
3860
C790
0600
07E0
7FE0
0620
1820
60C0
ENDCHAR
STARTCHAR 52AB
ENCODING 21163
SWIDTH 1040 0
DWIDTH 13 0
BBX 12 13 0 -2
BITMAP
2080
2080
F880
27F0
2090
2090
F890
2310
2310
2310
4810
8820
F8C0
ENDCHAR
STARTCHAR 52AC
ENCODING 21164
SWIDTH 1040 0
DWIDTH 13 0
BBX 12 13 0 -2
BITMAP
4080
4080
7880
8FF0
8890
E890
A890
A890
AB90
EB10
0B10
1020
60C0
ENDCHAR
STARTCHAR 52AD
ENCODING 21165
SWIDTH 1040 0
DWIDTH 13 0
BBX 12 13 0 -2
BITMAP
0080
F880
4880
4FF0
8890
B090
0090
F890
8B90
8B10
8B10
8820
F8C0
ENDCHAR
STARTCHAR 52B1
ENCODING 21169
SWIDTH 1040 0
DWIDTH 13 0
BBX 12 13 0 -2
BITMAP
0080
FE80
8080
FFF0
A090
A090
BE90
A690
A690
A690
2710
4610
5860
ENDCHAR
STARTCHAR 52B4
ENCODING 21172
SWIDTH 1040 0
DWIDTH 13 0
BBX 12 13 0 -2
BITMAP
1000
0820
4640
2080
FFF0
8610
0600
7FE0
7820
0820
0820
1020
63C0
ENDCHAR
STARTCHAR 52B5
ENCODING 21173
SWIDTH 1040 0
DWIDTH 13 0
BBX 12 13 0 -2
BITMAP
0600
2640
4620
FFF0
0880
FFF0
1040
3FE0
F850
C850
0840
1040
6380
ENDCHAR
STARTCHAR 52B9
ENCODING 21177
SWIDTH 1040 0
DWIDTH 13 0
BBX 12 13 0 -2
BITMAP
2080
2080
F880
07F0
5090
8890
0090
5310
6310
2310
3010
4820
80C0
ENDCHAR
STARTCHAR 52BC
ENCODING 21180
SWIDTH 1040 0
DWIDTH 13 0
BBX 12 13 0 -2
BITMAP
2080
2080
F880
27F0
2090
F890
0090
0090
FB90
FB10
8B10
8820
F8C0
ENDCHAR
STARTCHAR 52BE
ENCODING 21182
SWIDTH 1040 0
DWIDTH 13 0
BBX 12 13 0 -2
BITMAP
2080
2080
F880
47F0
8890
5090
2310
4B10
9F10
9610
2610
5020
88C0
ENDCHAR
STARTCHAR 52C1
ENCODING 21185
SWIDTH 1040 0
DWIDTH 13 0
BBX 12 13 0 -2
BITMAP
0080
FE80
5080
57F0
A890
5690
5690
0090
FB90
FB10
2310
2020
F8C0
ENDCHAR
STARTCHAR 52C3
ENCODING 21187
SWIDTH 1040 0
DWIDTH 13 0
BBX 12 13 0 -2
BITMAP
2080
2080
F880
27F0
F890
8890
7090
1310
3310
2310
FE10
2620
60C0
ENDCHAR
STARTCHAR 52C5
ENCODING 21189
SWIDTH 1040 0
DWIDTH 13 0
BBX 12 13 0 -2
BITMAP
0080
2080
F880
27F0
F890
A890
A890
F890
E390
2310
7310
A820
20C0
ENDCHAR
STARTCHAR 52C7
ENCODING 21191
SWIDTH 1040 0
DWIDTH 13 0
BBX 12 12 0 -2
BITMAP
7FC0
0080
7FE0
4620
7FE0
4620
4620
4630
FFF0
0810
3010
C0E0
ENDCHAR
STARTCHAR 52C9
ENCODING 21193
SWIDTH 1040 0
DWIDTH 13 0
BBX 12 13 0 -2
BITMAP
0080
7080
9080
27F0
F890
A890
A890
FB10
D310
5310
5060
9000
8FF0
ENDCHAR
STARTCHAR 52CD
ENCODING 21197
SWIDTH 1040 0
DWIDTH 13 0
BBX 12 13 0 -2
BITMAP
1080
1080
F880
07F0
7890
4890
4890
7B10
7310
1310
5610
9620
30C0
ENDCHAR
STARTCHAR 52D2
ENCODING 21202
SWIDTH 1040 0
DWIDTH 13 0
BBX 12 13 0 -2
BITMAP
0080
5080
F880
57F0
7090
2090
F890
A890
AB90
FB10
2310
F820
20C0
ENDCHAR
STARTCHAR 52D5
ENCODING 21205
SWIDTH 1040 0
DWIDTH 13 0
BBX 12 13 0 -2
BITMAP
0080
F880
2080
FFF0
A890
F890
A890
F890
E390
2310
FB10
2020
F8C0
ENDCHAR
STARTCHAR 52D7
ENCODING 21207
SWIDTH 1040 0
DWIDTH 13 0
BBX 12 12 0 -2
BITMAP
3FC0
2040
3FC0
2040
3FC0
0080
FFF0
9090
9090
F090
9310
FE60
ENDCHAR
STARTCHAR 52D8
ENCODING 21208
SWIDTH 1040 0
DWIDTH 13 0
BBX 12 13 0 -2
BITMAP
0080
4880
F880
4FF0
7890
4890
4890
FE90
AB90
AB10
CF10
8020
FEC0
ENDCHAR
STARTCHAR 52D9
ENCODING 21209
SWIDTH 1040 0
DWIDTH 13 0
BBX 12 13 0 -2
BITMAP
0080
F880
08F0
5710
20A0
F8C0
2F30
2880
38F0
77F0
A090
2310
6660
ENDCHAR
STARTCHAR 52DD
ENCODING 21213
SWIDTH 1040 0
DWIDTH 13 0
BBX 12 13 0 -2
BITMAP
0080
E690
A6A0
AFF0
E340
AFF0
A620
E890
B890
B7F0
A090
A310
AE60
ENDCHAR
STARTCHAR 52DE
ENCODING 21214
SWIDTH 1040 0
DWIDTH 13 0
BBX 12 13 0 -2
BITMAP
1080
5690
96A0
2B40
4620
FFF0
8610
7FE0
7820
0820
0820
1020
63C0
ENDCHAR
STARTCHAR 52DF
ENCODING 21215
SWIDTH 1040 0
DWIDTH 13 0
BBX 12 13 0 -2
BITMAP
1080
1080
FFF0
1080
3FC0
2040
FFF0
2040
2060
7FE0
8850
1040
6380
ENDCHAR
STARTCHAR 52E0
ENCODING 21216
SWIDTH 1040 0
DWIDTH 13 0
BBX 12 13 0 -2
BITMAP
0080
FE80
A680
6FF0
B690
2690
3890
C690
CB10
1B10
6310
1820
E0C0
ENDCHAR
STARTCHAR 52E2
ENCODING 21218
SWIDTH 1040 0
DWIDTH 13 0
BBX 12 13 0 -2
BITMAP
2080
2080
FFE0
20A0
FEA0
4B20
F690
2610
27F0
FFE0
0820
1020
60C0
ENDCHAR
STARTCHAR 52E3
ENCODING 21219
SWIDTH 1040 0
DWIDTH 13 0
BBX 12 13 0 -2
BITMAP
2080
2080
F880
27F0
F890
2090
F890
8B10
8B10
FB10
8810
F820
8EC0
ENDCHAR
STARTCHAR 52E4
ENCODING 21220
SWIDTH 1040 0
DWIDTH 13 0
BBX 12 13 0 -2
BITMAP
0080
5080
F880
57F0
F890
A890
A890
F890
E390
2310
FB10
2020
F8C0
ENDCHAR
STARTCHAR 52E6
ENCODING 21222
SWIDTH 1040 0
DWIDTH 13 0
BBX 12 13 0 -2
BITMAP
5680
A880
5080
FFF0
A890
F890
A890
FB10
E310
2310
6810
A620
20C0
ENDCHAR
STARTCHAR 52E7
ENCODING 21223
SWIDTH 1040 0
DWIDTH 13 0
BBX 12 13 0 -2
BITMAP
4080
4080
7E80
A3F0
FE90
5090
7E90
D090
DF90
7F10
5310
5020
7EC0
ENDCHAR
STARTCHAR 52F2
ENCODING 21234
SWIDTH 1040 0
DWIDTH 13 0
BBX 12 13 0 -2
BITMAP
0080
F880
27F0
F890
A890
F890
AB10
FB10
E320
2060
F800
0320
9090
ENDCHAR
STARTCHAR 52F3
ENCODING 21235
SWIDTH 1040 0
DWIDTH 13 0
BBX 12 13 0 -2
BITMAP
0080
F880
2080
FFF0
A890
F890
2090
F890
E390
2310
FB10
5020
A8C0
ENDCHAR
STARTCHAR 52F5
ENCODING 21237
SWIDTH 1040 0
DWIDTH 13 0
BBX 12 13 0 -2
BITMAP
0080
FE80
8880
FFF0
9690
FE90
9690
FF10
9310
9310
FE10
A620
B6C0
ENDCHAR
STARTCHAR 52F8
ENCODING 21240
SWIDTH 1040 0
DWIDTH 13 0
BBX 12 13 0 -2
BITMAP
5080
5080
F880
AFF0
A890
F890
5090
F890
9390
9310
FB10
9020
F8C0
ENDCHAR
STARTCHAR 52F9
ENCODING 21241
SWIDTH 1040 0
DWIDTH 13 0
BBX 12 13 0 -2
BITMAP
2000
2000
3FF0
4010
4010
8010
8010
0010
0010
0010
0010
0020
03C0
ENDCHAR
STARTCHAR 52FA
ENCODING 21242
SWIDTH 1040 0
DWIDTH 13 0
BBX 12 13 0 -2
BITMAP
2000
2000
3FF0
4010
4010
8810
8810
0610
0610
0610
0010
0020
00C0
ENDCHAR
STARTCHAR 52FE
ENCODING 21246
SWIDTH 1040 0
DWIDTH 13 0
BBX 12 13 0 -2
BITMAP
2000
2000
3FF0
4010
4810
8810
9010
1310
2310
2310
3F10
0020
00C0
ENDCHAR
STARTCHAR 52FF
ENCODING 21247
SWIDTH 1040 0
DWIDTH 13 0
BBX 12 13 0 -2
BITMAP
2000
2000
3FF0
4890
4890
8890
9090
1310
2310
2310
4610
0820
00C0
ENDCHAR
STARTCHAR 5301
ENCODING 21249
SWIDTH 1040 0
DWIDTH 13 0
BBX 12 13 0 -2
BITMAP
2000
2000
3FF0
4310
5310
8B10
8610
0610
0F10
0B10
1090
2020
00C0
ENDCHAR
STARTCHAR 5302
ENCODING 21250
SWIDTH 1040 0
DWIDTH 13 0
BBX 12 13 0 -2
BITMAP
2000
2000
3FF0
4010
5010
9390
9E10
1010
1090
1090
0F90
0020
00C0
ENDCHAR
STARTCHAR 5305
ENCODING 21253
SWIDTH 1040 0
DWIDTH 13 0
BBX 12 13 0 -2
BITMAP
2000
2000
3FF0
4010
5F90
8090
8090
3F90
20A0
2060
2000
2010
3FF0
ENDCHAR
STARTCHAR 5306
ENCODING 21254
SWIDTH 1040 0
DWIDTH 13 0
BBX 12 13 0 -2
BITMAP
2000
2000
3FF0
4890
4890
8890
B090
1F10
3FD0
23D0
4610
0820
00C0
ENDCHAR
STARTCHAR 5308
ENCODING 21256
SWIDTH 1040 0
DWIDTH 13 0
BBX 12 13 0 -2
BITMAP
2000
2000
3FF0
4010
6310
9690
8890
5690
6690
6390
4090
7F90
0060
ENDCHAR
STARTCHAR 530D
ENCODING 21261
SWIDTH 1040 0
DWIDTH 13 0
BBX 12 13 0 -2
BITMAP
2000
2000
3FF0
4B10
7F90
8810
FF90
4890
4890
7F90
4890
4B90
0060
ENDCHAR
STARTCHAR 530F
ENCODING 21263
SWIDTH 1040 0
DWIDTH 13 0
BBX 12 13 0 -2
BITMAP
2300
2300
FBF0
5610
8BD0
FB50
0350
FBD0
C310
4330
FB00
8B10
30F0
ENDCHAR
STARTCHAR 5310
ENCODING 21264
SWIDTH 1040 0
DWIDTH 13 0
BBX 12 13 0 -2
BITMAP
2000
2000
3FF0
4010
7F90
A310
FF90
4890
4890
7F90
4890
7F90
0060
ENDCHAR
STARTCHAR 5315
ENCODING 21269
SWIDTH 1040 0
DWIDTH 13 0
BBX 12 13 0 -2
BITMAP
1000
1000
1000
1030
13C0
1E00
F000
1000
1010
1010
1010
1010
0FF0
ENDCHAR
STARTCHAR 5316
ENCODING 21270
SWIDTH 1040 0
DWIDTH 13 0
BBX 12 13 0 -2
BITMAP
0300
1300
1300
2310
2320
6340
A380
2300
2300
2300
2310
2310
23F0
ENDCHAR
STARTCHAR 5317
ENCODING 21271
SWIDTH 1040 0
DWIDTH 13 0
BBX 12 13 0 -2
BITMAP
0300
1300
1300
1330
F3C0
1300
1300
1300
1300
3300
D310
1310
13F0
ENDCHAR
STARTCHAR 5319
ENCODING 21273
SWIDTH 1040 0
DWIDTH 13 0
BBX 12 12 0 -2
BITMAP
FB00
8B30
FBC0
8B00
FB00
0310
FB10
E310
20F0
B800
E000
9FF0
ENDCHAR
STARTCHAR 531A
ENCODING 21274
SWIDTH 1040 0
DWIDTH 13 0
BBX 12 12 0 -2
BITMAP
FFF0
8000
8000
8000
8000
8000
8000
8000
8000
8000
8000
FFF0
ENDCHAR
STARTCHAR 531D
ENCODING 21277
SWIDTH 1040 0
DWIDTH 13 0
BBX 12 12 0 -2
BITMAP
FFF0
8300
8300
9FE0
9320
9320
9320
9320
9360
8300
8000
FFF0
ENDCHAR
STARTCHAR 5320
ENCODING 21280
SWIDTH 1040 0
DWIDTH 13 0
BBX 12 12 0 -2
BITMAP
FFF0
8000
9FC0
9000
9000
9FE0
9080
B080
A080
A080
8080
FFF0
ENDCHAR
STARTCHAR 5321
ENCODING 21281
SWIDTH 1040 0
DWIDTH 13 0
BBX 12 12 0 -2
BITMAP
FFF0
8000
BFF0
8300
8300
9FE0
8300
8300
8300
BFF0
8000
FFF0
ENDCHAR
STARTCHAR 5323
ENCODING 21283
SWIDTH 1040 0
DWIDTH 13 0
BBX 12 12 0 -2
BITMAP
FFF0
8000
9FE0
9320
9FE0
9320
9FE0
9F00
8300
8300
8300
FFF0
ENDCHAR
STARTCHAR 532A
ENCODING 21290
SWIDTH 1040 0
DWIDTH 13 0
BBX 12 12 0 -2
BITMAP
FFF0
8680
8680
BEF0
8680
9EE0
8680
86F0
BEF0
8880
9080
FFF0
ENDCHAR
STARTCHAR 532F
ENCODING 21295
SWIDTH 1040 0
DWIDTH 13 0
BBX 12 12 0 -2
BITMAP
FFF0
8300
A340
97E0
AE80
97E0
8680
9680
9680
A7E0
8000
FFF0
ENDCHAR
STARTCHAR 5331
ENCODING 21297
SWIDTH 1040 0
DWIDTH 13 0
BBX 12 12 0 -2
BITMAP
FFF0
8300
9FC0
9340
BFE0
9040
9FC0
9040
9040
9FC0
A020
FFF0
ENDCHAR
STARTCHAR 5333
ENCODING 21299
SWIDTH 1040 0
DWIDTH 13 0
BBX 12 12 0 -2
BITMAP
FFF0
8880
9FC0
A020
DEF0
96A0
9EE0
98C0
8840
96A0
A310
FFF0
ENDCHAR
STARTCHAR 5338
ENCODING 21304
SWIDTH 1040 0
DWIDTH 13 0
BBX 12 12 0 -2
BITMAP
FFF0
2000
2000
2000
2000
2000
2000
2000
2000
2000
2000
1FF0
ENDCHAR
STARTCHAR 5339
ENCODING 21305
SWIDTH 1040 0
DWIDTH 13 0
BBX 12 12 0 -2
BITMAP
FFF0
8880
8880
8880
9080
E0F0
8000
8000
8000
8000
FFF0
8000
ENDCHAR
STARTCHAR 533A
ENCODING 21306
SWIDTH 1040 0
DWIDTH 13 0
BBX 12 12 0 -2
BITMAP
FFF0
8000
9020
8840
8680
8300
8680
88C0
8840
9020
8000
FFF0
ENDCHAR
STARTCHAR 533B
ENCODING 21307
SWIDTH 1040 0
DWIDTH 13 0
BBX 12 12 0 -2
BITMAP
FFF0
9000
9FE0
9300
A300
BFE0
8680
88C0
8840
B020
8000
FFF0
ENDCHAR
STARTCHAR 533F
ENCODING 21311
SWIDTH 1040 0
DWIDTH 13 0
BBX 12 12 0 -2
BITMAP
FFF0
9080
BFE0
9080
8600
BFE0
8800
8FC0
9FC0
B040
9040
FFF0
ENDCHAR
STARTCHAR 5340
ENCODING 21312
SWIDTH 1040 0
DWIDTH 13 0
BBX 12 12 0 -2
BITMAP
FFF0
8000
8F80
8880
8F80
8000
BEE0
A6A0
A6A0
BEE0
8000
FFF0
ENDCHAR
STARTCHAR 5341
ENCODING 21313
SWIDTH 1040 0
DWIDTH 13 0
BBX 12 13 0 -2
BITMAP
0600
0600
0600
0600
0600
FFF0
0600
0600
0600
0600
0600
0600
0600
ENDCHAR
STARTCHAR 5343
ENCODING 21315
SWIDTH 1040 0
DWIDTH 13 0
BBX 12 12 0 -2
BITMAP
03E0
7E00
0600
0600
0600
FFF0
0600
0600
0600
0600
0600
0600
ENDCHAR
STARTCHAR 5345
ENCODING 21317
SWIDTH 1040 0
DWIDTH 13 0
BBX 12 12 0 -2
BITMAP
4620
4620
4620
4620
FFF0
4620
4620
4620
4620
4620
8620
8620
ENDCHAR
STARTCHAR 5346
ENCODING 21318
SWIDTH 1040 0
DWIDTH 13 0
BBX 12 13 0 -2
BITMAP
0800
0800
FF80
1080
1080
2090
C670
0600
07F0
FFF0
0600
0600
0600
ENDCHAR
STARTCHAR 5347
ENCODING 21319
SWIDTH 1040 0
DWIDTH 13 0
BBX 12 12 0 -2
BITMAP
0E40
7040
1040
1040
1040
FFF0
1040
3040
2040
2040
4040
4040
ENDCHAR
STARTCHAR 5348
ENCODING 21320
SWIDTH 1040 0
DWIDTH 13 0
BBX 12 13 0 -2
BITMAP
4000
4000
7FE0
8600
8600
0600
0600
FFF0
FE00
0600
0600
0600
0600
ENDCHAR
STARTCHAR 5349
ENCODING 21321
SWIDTH 1040 0
DWIDTH 13 0
BBX 12 13 0 -2
BITMAP
0600
0600
FFF0
0600
1640
1040
1040
FFF0
F040
1040
1040
2040
C040
ENDCHAR
STARTCHAR 534A
ENCODING 21322
SWIDTH 1040 0
DWIDTH 13 0
BBX 12 13 0 -2
BITMAP
0600
0600
4620
2640
0600
7FE0
0600
0600
07F0
FFF0
0600
0600
0600
ENDCHAR
STARTCHAR 534D
ENCODING 21325
SWIDTH 1040 0
DWIDTH 13 0
BBX 12 12 0 -2
BITMAP
FE10
0610
0610
0610
0610
FFF0
8600
8600
8600
8600
8600
87F0
ENDCHAR
STARTCHAR 5351
ENCODING 21329
SWIDTH 1040 0
DWIDTH 13 0
BBX 12 13 0 -2
BITMAP
0600
0800
7FE0
4620
7FE0
4620
4620
7FE0
7880
0880
1080
FFF0
0080
ENDCHAR
STARTCHAR 5352
ENCODING 21330
SWIDTH 1040 0
DWIDTH 13 0
BBX 12 13 0 -2
BITMAP
0600
0600
FFF0
1080
1080
2B40
4620
0600
07F0
FFF0
0600
0600
0600
ENDCHAR
STARTCHAR 5353
ENCODING 21331
SWIDTH 1040 0
DWIDTH 13 0
BBX 12 13 0 -2
BITMAP
0600
0600
07E0
0600
3FC0
2040
3FC0
2040
2040
3FC0
0600
FFF0
0600
ENDCHAR
STARTCHAR 5354
ENCODING 21332
SWIDTH 1040 0
DWIDTH 13 0
BBX 12 13 0 -2
BITMAP
0300
4300
4FE0
4320
F320
4620
5FF0
4B50
4B50
4B50
4B50
5390
5730
ENDCHAR
STARTCHAR 5357
ENCODING 21335
SWIDTH 1040 0
DWIDTH 13 0
BBX 12 13 0 -2
BITMAP
0600
0600
FFF0
0600
FFF0
9090
9310
BFD0
BE10
8610
BFD0
8610
8630
ENDCHAR
STARTCHAR 5358
ENCODING 21336
SWIDTH 1040 0
DWIDTH 13 0
BBX 12 13 0 -2
BITMAP
0820
4640
2080
7FE0
4620
7FE0
4620
4620
4620
7FE0
0600
FFF0
0600
ENDCHAR
STARTCHAR 535A
ENCODING 21338
SWIDTH 1040 0
DWIDTH 13 0
BBX 12 13 0 -2
BITMAP
0080
4090
5FF0
4080
EFF0
4890
4FF0
4890
4890
5FF0
4020
4620
4360
ENDCHAR
STARTCHAR 535C
ENCODING 21340
SWIDTH 1040 0
DWIDTH 13 0
BBX 7 12 3 -2
BITMAP
80
80
80
80
C0
B8
86
86
80
80
80
80
ENDCHAR
STARTCHAR 535E
ENCODING 21342
SWIDTH 1040 0
DWIDTH 13 0
BBX 12 13 0 -2
BITMAP
0600
0600
FFF0
0600
0600
0780
0660
0600
0600
0600
0600
0600
0600
ENDCHAR
STARTCHAR 5360
ENCODING 21344
SWIDTH 1040 0
DWIDTH 13 0
BBX 10 13 1 -2
BITMAP
0C00
0C00
0C00
0FC0
0C00
0C00
0C00
FFC0
8040
8040
8040
8040
FFC0
ENDCHAR
STARTCHAR 5366
ENCODING 21350
SWIDTH 1040 0
DWIDTH 13 0
BBX 13 13 0 -2
BITMAP
1000
1040
FE40
1040
1040
FF60
1050
1048
1E48
FE40
1040
1040
FF40
ENDCHAR
STARTCHAR 5369
ENCODING 21353
SWIDTH 1040 0
DWIDTH 13 0
BBX 8 12 2 -2
BITMAP
FF
81
81
81
81
81
81
81
81
9F
80
80
ENDCHAR
STARTCHAR 536E
ENCODING 21358
SWIDTH 1040 0
DWIDTH 13 0
BBX 12 12 0 -2
BITMAP
00E0
7F00
4000
7FF0
4000
4FC0
4840
4840
4840
88C0
8810
07F0
ENDCHAR
STARTCHAR 536F
ENCODING 21359
SWIDTH 1040 0
DWIDTH 13 0
BBX 12 12 0 -2
BITMAP
0EF0
7090
4090
4690
4690
4690
5E90
6690
E690
06B0
0880
3080
ENDCHAR
STARTCHAR 5370
ENCODING 21360
SWIDTH 1040 0
DWIDTH 13 0
BBX 12 12 0 -2
BITMAP
1800
E3F0
8310
8310
FB10
8310
8310
8310
8310
8310
FB70
0300
ENDCHAR
STARTCHAR 5371
ENCODING 21361
SWIDTH 1040 0
DWIDTH 13 0
BBX 12 12 0 -2
BITMAP
1F80
2080
4300
FFF0
4000
4FC0
4840
4840
4840
48C0
8810
8FF0
ENDCHAR
STARTCHAR 5373
ENCODING 21363
SWIDTH 1040 0
DWIDTH 13 0
BBX 12 12 0 -2
BITMAP
F8F0
8890
8890
F890
8890
8890
F890
8090
8090
9090
88B0
F680
ENDCHAR
STARTCHAR 5374
ENCODING 21364
SWIDTH 1040 0
DWIDTH 13 0
BBX 12 13 0 -2
BITMAP
2000
23F0
FB10
2310
2310
2310
FF10
4310
4310
4310
8B10
FB70
0B00
ENDCHAR
STARTCHAR 5375
ENCODING 21365
SWIDTH 1040 0
DWIDTH 13 0
BBX 12 12 0 -2
BITMAP
0EF0
7090
4090
66D0
56B0
4690
5E90
6690
E690
06B0
0880
3080
ENDCHAR
STARTCHAR 5377
ENCODING 21367
SWIDTH 1040 0
DWIDTH 13 0
BBX 12 13 0 -2
BITMAP
0600
2640
2640
5FA0
8890
FFF0
1040
3FA0
20B0
E090
2380
2020
3FE0
ENDCHAR
STARTCHAR 5378
ENCODING 21368
SWIDTH 1040 0
DWIDTH 13 0
BBX 12 13 0 -2
BITMAP
4000
4000
7EF0
9090
9090
FE90
1090
1E90
9090
9090
9090
9EB0
E080
ENDCHAR
STARTCHAR 537B
ENCODING 21371
SWIDTH 1040 0
DWIDTH 13 0
BBX 12 12 0 -2
BITMAP
70F0
8890
0690
0090
7090
8890
0690
FE90
F890
88B0
8880
F880
ENDCHAR
STARTCHAR 537F
ENCODING 21375
SWIDTH 1040 0
DWIDTH 13 0
BBX 12 12 0 -2
BITMAP
3F70
CB50
8F50
AB50
AB50
AF50
A850
AB50
EB50
2B70
4F40
4340
ENDCHAR
STARTCHAR 5382
ENCODING 21378
SWIDTH 1040 0
DWIDTH 13 0
BBX 12 12 0 -2
BITMAP
7FF0
4000
4000
4000
4000
4000
4000
4000
4000
4000
8000
8000
ENDCHAR
STARTCHAR 5384
ENCODING 21380
SWIDTH 1040 0
DWIDTH 13 0
BBX 12 12 0 -2
BITMAP
7FF0
4000
4000
4FE0
4820
4820
48E0
48E0
4800
4810
8810
87F0
ENDCHAR
STARTCHAR 5396
ENCODING 21398
SWIDTH 1040 0
DWIDTH 13 0
BBX 12 12 0 -2
BITMAP
7FF0
4810
4B60
7F00
4830
48C0
4E00
5E30
5630
96C0
A610
23F0
ENDCHAR
STARTCHAR 5398
ENCODING 21400
SWIDTH 1040 0
DWIDTH 13 0
BBX 12 12 0 -2
BITMAP
7FF0
4000
5FF0
5090
5FF0
5090
5FF0
5F80
4080
9FF0
8080
3FF0
ENDCHAR
STARTCHAR 539A
ENCODING 21402
SWIDTH 1040 0
DWIDTH 13 0
BBX 12 12 0 -2
BITMAP
7FF0
4000
4FF0
4810
4FF0
4810
4FF0
4FE0
4020
9FF0
8040
07C0
ENDCHAR
STARTCHAR 539F
ENCODING 21407
SWIDTH 1040 0
DWIDTH 13 0
BBX 12 12 0 -2
BITMAP
7FF0
4300
5FE0
5020
5FE0
5020
5020
5020
5FE0
8300
9320
2710
ENDCHAR
STARTCHAR 53A0
ENCODING 21408
SWIDTH 1040 0
DWIDTH 13 0
BBX 12 12 0 -2
BITMAP
7FF0
4000
5F10
5350
5F50
5350
5350
5350
5F50
8010
9310
20B0
ENDCHAR
STARTCHAR 53A5
ENCODING 21413
SWIDTH 1040 0
DWIDTH 13 0
BBX 12 12 0 -2
BITMAP
7FF0
4680
4880
7EF0
5350
5350
5640
56E0
7EA0
90A0
A310
2610
ENDCHAR
STARTCHAR 53A6
ENCODING 21414
SWIDTH 1040 0
DWIDTH 13 0
BBX 12 12 0 -2
BITMAP
7FF0
4300
5FF0
5010
5FF0
5010
5FF0
5820
4820
B620
87C0
3830
ENDCHAR
STARTCHAR 53A8
ENCODING 21416
SWIDTH 1040 0
DWIDTH 13 0
BBX 12 12 0 -2
BITMAP
7FF0
4000
7F90
4010
5FF0
5310
5F10
5E90
4690
9650
9610
3F30
ENDCHAR
STARTCHAR 53A9
ENCODING 21417
SWIDTH 1040 0
DWIDTH 13 0
BBX 12 12 0 -2
BITMAP
FFF0
8000
BEF0
A6A0
BEA0
A6A0
BFF0
A020
A020
A860
A6A0
BB30
ENDCHAR
STARTCHAR 53AD
ENCODING 21421
SWIDTH 1040 0
DWIDTH 13 0
BBX 12 12 0 -2
BITMAP
FFF0
A640
BE50
83F0
BE40
A640
BE60
A6E0
A6A0
BEA0
A710
AE10
ENDCHAR
STARTCHAR 53AE
ENCODING 21422
SWIDTH 1040 0
DWIDTH 13 0
BBX 12 12 0 -2
BITMAP
FFF0
A620
FFC0
A680
BEF0
A6A0
A6A0
A6A0
FFA0
80A0
A620
4320
ENDCHAR
STARTCHAR 53B0
ENCODING 21424
SWIDTH 1040 0
DWIDTH 13 0
BBX 12 12 0 -2
BITMAP
7FF0
5080
58F0
5690
5090
7F50
4350
7B70
7B20
AB20
BB50
0790
ENDCHAR
STARTCHAR 53B3
ENCODING 21427
SWIDTH 1040 0
DWIDTH 13 0
BBX 12 13 0 -2
BITMAP
0300
1320
7FF0
4880
7FF0
5310
5F50
5350
5370
5F20
9320
9F50
3390
ENDCHAR
STARTCHAR 53B6
ENCODING 21430
SWIDTH 1040 0
DWIDTH 13 0
BBX 12 12 0 -2
BITMAP
0800
0800
0800
0800
1040
1040
1020
3020
2020
20D0
FF10
0010
ENDCHAR
STARTCHAR 53BB
ENCODING 21435
SWIDTH 1040 0
DWIDTH 13 0
BBX 12 13 0 -2
BITMAP
0600
0600
7FE0
0600
0600
0600
FFF0
0800
0840
0840
1040
23A0
3E20
ENDCHAR
STARTCHAR 53C2
ENCODING 21442
SWIDTH 1040 0
DWIDTH 13 0
BBX 12 13 0 -2
BITMAP
0800
0880
1040
7FE0
0600
FFF0
0840
30A0
4130
C710
1840
0380
3E00
ENDCHAR
STARTCHAR 53C3
ENCODING 21443
SWIDTH 1040 0
DWIDTH 13 0
BBX 12 13 0 -2
BITMAP
0800
0880
1040
7FE0
50A0
FBF0
1340
2E20
4FB0
C390
1E40
0380
3E00
ENDCHAR
STARTCHAR 53C8
ENCODING 21448
SWIDTH 1040 0
DWIDTH 13 0
BBX 12 12 0 -2
BITMAP
7FE0
0020
0020
1020
1040
1040
0880
0B80
0B00
0700
18C0
E030
ENDCHAR
STARTCHAR 53C9
ENCODING 21449
SWIDTH 1040 0
DWIDTH 13 0
BBX 12 12 0 -2
BITMAP
7FE0
0020
0820
0620
0340
0040
1080
1900
0B00
0700
18C0
E030
ENDCHAR
STARTCHAR 53CA
ENCODING 21450
SWIDTH 1040 0
DWIDTH 13 0
BBX 11 12 1 -2
BITMAP
FF80
2080
2100
2600
27C0
4040
4C40
CE80
8680
8180
0E40
7020
ENDCHAR
STARTCHAR 53CB
ENCODING 21451
SWIDTH 1040 0
DWIDTH 13 0
BBX 12 13 0 -2
BITMAP
0800
0800
FFF0
0800
0FC0
1040
1040
2840
4EC0
4680
8380
0E40
7030
ENDCHAR
STARTCHAR 53CC
ENCODING 21452
SWIDTH 1040 0
DWIDTH 13 0
BBX 12 12 0 -2
BITMAP
FBF0
0810
0810
4B10
2B10
10A0
18A0
3EE0
2640
40C0
8720
1810
ENDCHAR
STARTCHAR 53CD
ENCODING 21453
SWIDTH 1040 0
DWIDTH 13 0
BBX 11 12 1 -2
BITMAP
7FE0
4000
4000
7FC0
4040
4C40
4C40
CEC0
8680
8180
0E40
7020
ENDCHAR
STARTCHAR 53CE
ENCODING 21454
SWIDTH 1040 0
DWIDTH 13 0
BBX 12 12 0 -2
BITMAP
17F0
5010
5010
5310
5310
50A0
50A0
50C0
7040
D0C0
1320
1E10
ENDCHAR
STARTCHAR 53D4
ENCODING 21460
SWIDTH 1040 0
DWIDTH 13 0
BBX 12 13 0 -2
BITMAP
2000
23F0
3810
2010
2310
FB10
20A0
A8A0
A8E0
A840
A8C0
2320
6E10
ENDCHAR
STARTCHAR 53D6
ENCODING 21462
SWIDTH 1040 0
DWIDTH 13 0
BBX 12 12 0 -2
BITMAP
FE00
4BF0
7810
4B10
4B10
78A0
48A0
48C0
4840
78C0
CB20
0E10
ENDCHAR
STARTCHAR 53D7
ENCODING 21463
SWIDTH 1040 0
DWIDTH 13 0
BBX 12 12 0 -2
BITMAP
7FA0
0820
4640
2080
FFF0
8010
BFD0
BFD0
0040
1080
0F00
70E0
ENDCHAR
STARTCHAR 53D9
ENCODING 21465
SWIDTH 1040 0
DWIDTH 13 0
BBX 12 12 0 -2
BITMAP
33F0
4810
8010
FB10
2310
20A0
F8A0
E0E0
2040
A840
A8A0
6710
ENDCHAR
STARTCHAR 53DB
ENCODING 21467
SWIDTH 1040 0
DWIDTH 13 0
BBX 12 12 0 -2
BITMAP
27F0
AE00
B600
27E0
F620
2620
28A0
28A0
E8A0
2040
43A0
4E10
ENDCHAR
STARTCHAR 53DF
ENCODING 21471
SWIDTH 1040 0
DWIDTH 13 0
BBX 12 13 0 -2
BITMAP
0800
1000
66E0
4620
76E0
4620
7FE0
0600
07F0
FFF0
2040
1F80
E070
ENDCHAR
STARTCHAR 53E1
ENCODING 21473
SWIDTH 1040 0
DWIDTH 13 0
BBX 12 13 0 -2
BITMAP
1000
1EF0
1010
FF10
9350
5650
AB50
7E50
4770
C720
7E20
4650
7F90
ENDCHAR
STARTCHAR 53E2
ENCODING 21474
SWIDTH 1040 0
DWIDTH 13 0
BBX 12 13 0 -2
BITMAP
0B00
2B40
FFF0
1080
7FE0
0600
FFF0
4820
4B20
7B20
4B40
78C0
CF30
ENDCHAR
STARTCHAR 53E3
ENCODING 21475
SWIDTH 1040 0
DWIDTH 13 0
BBX 11 11 1 -2
BITMAP
FFE0
8020
8020
8020
8020
8020
8020
8020
8020
FFE0
8020
ENDCHAR
STARTCHAR 53E4
ENCODING 21476
SWIDTH 1040 0
DWIDTH 13 0
BBX 12 13 0 -2
BITMAP
0600
0600
0600
FFF0
0600
0600
0600
3FC0
2040
2040
2040
2040
3FC0
ENDCHAR
STARTCHAR 53E5
ENCODING 21477
SWIDTH 1040 0
DWIDTH 13 0
BBX 12 13 0 -2
BITMAP
2000
2000
3FF0
4010
4010
9F10
9310
1310
1310
1310
1F10
0020
00C0
ENDCHAR
STARTCHAR 53E8
ENCODING 21480
SWIDTH 1040 0
DWIDTH 13 0
BBX 12 12 0 -2
BITMAP
0FF0
F090
9090
9090
9090
9310
9310
9710
9610
9610
F020
00C0
ENDCHAR
STARTCHAR 53E9
ENCODING 21481
SWIDTH 1040 0
DWIDTH 13 0
BBX 12 12 0 -2
BITMAP
F7F0
9610
9610
9610
9610
9610
9610
9610
9610
F670
0600
0600
ENDCHAR
STARTCHAR 53EA
ENCODING 21482
SWIDTH 1040 0
DWIDTH 13 0
BBX 12 12 0 -2
BITMAP
7FE0
4020
4020
4020
4020
4020
7FE0
7FE0
0000
2040
4020
8010
ENDCHAR
STARTCHAR 53EB
ENCODING 21483
SWIDTH 1040 0
DWIDTH 13 0
BBX 12 12 0 -2
BITMAP
0020
F320
9320
9320
9320
9320
9330
9320
93E0
9E20
F020
0020
ENDCHAR
STARTCHAR 53EC
ENCODING 21484
SWIDTH 1040 0
DWIDTH 13 0
BBX 11 12 1 -2
BITMAP
FFE0
0620
0C20
3020
C0C0
0000
7FC0
4040
4040
4040
4040
7FC0
ENDCHAR
STARTCHAR 53ED
ENCODING 21485
SWIDTH 1040 0
DWIDTH 13 0
BBX 12 12 0 -2
BITMAP
03E0
F020
9020
9320
9320
9320
9320
9730
9610
9610
F810
0810
ENDCHAR
STARTCHAR 53EE
ENCODING 21486
SWIDTH 1040 0
DWIDTH 13 0
BBX 12 12 0 -2
BITMAP
0FF0
F020
9020
9020
9020
9020
9020
9020
9020
9020
F020
00E0
ENDCHAR
STARTCHAR 53EF
ENCODING 21487
SWIDTH 1040 0
DWIDTH 13 0
BBX 12 12 0 -2
BITMAP
FFF0
0040
0040
7840
4840
4840
4840
4840
7840
0040
0040
03C0
ENDCHAR
STARTCHAR 53F0
ENCODING 21488
SWIDTH 1040 0
DWIDTH 13 0
BBX 12 13 0 -2
BITMAP
1000
1040
2040
2020
FFE0
0010
0010
3FC0
2040
2040
2040
2040
3FC0
ENDCHAR
STARTCHAR 53F1
ENCODING 21489
SWIDTH 1040 0
DWIDTH 13 0
BBX 12 13 0 -2
BITMAP
0300
0300
F300
9330
93C0
9F00
9300
9300
9300
9300
9310
F310
03F0
ENDCHAR
STARTCHAR 53F2
ENCODING 21490
SWIDTH 1040 0
DWIDTH 13 0
BBX 12 13 0 -2
BITMAP
0600
0600
7FE0
4620
4620
4620
7FE0
0600
3600
3600
0E00
3380
C070
ENDCHAR
STARTCHAR 53F3
ENCODING 21491
SWIDTH 1040 0
DWIDTH 13 0
BBX 12 13 0 -2
BITMAP
0600
0600
FFF0
0600
0600
0800
1FE0
3020
5020
D020
1020
1020
1FE0
ENDCHAR
STARTCHAR 53F6
ENCODING 21494
SWIDTH 1040 0
DWIDTH 13 0
BBX 12 13 0 -2
BITMAP
0040
0040
F040
9040
9FF0
9040
9040
9040
9040
9040
9040
F040
0040
ENDCHAR
STARTCHAR 53F7
ENCODING 21495
SWIDTH 1040 0
DWIDTH 13 0
BBX 12 12 0 -2
BITMAP
3FC0
2040
2040
3FC0
0000
FFF0
1000
1FE0
3FE0
2020
0040
0780
ENDCHAR
STARTCHAR 53F8
ENCODING 21496
SWIDTH 1040 0
DWIDTH 13 0
BBX 11 12 0 -2
BITMAP
FFE0
0020
0020
7E20
0020
0020
7E20
4620
4620
4620
7E20
0060
ENDCHAR
STARTCHAR 53FA
ENCODING 21498
SWIDTH 1040 0
DWIDTH 13 0
BBX 12 12 0 -2
BITMAP
07C0
F040
9040
9040
9040
90A0
90A0
93A0
9320
9310
F610
0610
ENDCHAR
STARTCHAR 5401
ENCODING 21505
SWIDTH 1040 0
DWIDTH 13 0
BBX 12 12 0 -2
BITMAP
07F0
F040
9040
9040
9040
9FF0
9040
9040
9040
9040
F040
03C0
ENDCHAR
STARTCHAR 5403
ENCODING 21507
SWIDTH 1040 0
DWIDTH 13 0
BBX 12 13 0 -2
BITMAP
0600
0600
F7F0
9800
9000
97E0
9040
9080
9380
9300
9610
F610
03F0
ENDCHAR
STARTCHAR 5404
ENCODING 21508
SWIDTH 1040 0
DWIDTH 13 0
BBX 12 13 0 -2
BITMAP
1000
1000
1FC0
2040
4880
0700
18C0
E030
FFF0
3FC0
2040
2040
3FC0
ENDCHAR
STARTCHAR 5408
ENCODING 21512
SWIDTH 1040 0
DWIDTH 13 0
BBX 12 12 0 -2
BITMAP
0F00
1080
2040
4020
BFD0
0000
0000
3FC0
3FC0
2040
2040
3FC0
ENDCHAR
STARTCHAR 5409
ENCODING 21513
SWIDTH 1040 0
DWIDTH 13 0
BBX 12 13 0 -2
BITMAP
0600
0600
FFF0
0600
0600
7FE0
0000
0000
3FC0
3FC0
2040
2040
3FC0
ENDCHAR
STARTCHAR 540A
ENCODING 21514
SWIDTH 1040 0
DWIDTH 13 0
BBX 12 12 0 -2
BITMAP
3FC0
2040
2040
3FC0
0600
0600
FFF0
8610
8610
8610
8630
0600
ENDCHAR
STARTCHAR 540B
ENCODING 21515
SWIDTH 1040 0
DWIDTH 13 0
BBX 12 13 0 -2
BITMAP
0020
0020
F020
9FF0
9020
9020
9620
9320
9320
9020
9020
F020
00E0
ENDCHAR
STARTCHAR 540C
ENCODING 21516
SWIDTH 1040 0
DWIDTH 13 0
BBX 12 12 0 -2
BITMAP
FFF0
8010
8010
BFD0
8010
8010
9F90
9090
9090
9090
9F90
8030
ENDCHAR
STARTCHAR 540D
ENCODING 21517
SWIDTH 1040 0
DWIDTH 13 0
BBX 12 13 0 -2
BITMAP
0600
0600
0FE0
1020
6840
0680
0300
0FF0
0810
3810
C810
0810
0FF0
ENDCHAR
STARTCHAR 540E
ENCODING 21518
SWIDTH 1040 0
DWIDTH 13 0
BBX 12 12 0 -2
BITMAP
00E0
7F00
4000
4000
7FF0
4000
4000
5FE0
5FE0
9020
9020
1FE0
ENDCHAR
STARTCHAR 540F
ENCODING 21519
SWIDTH 1040 0
DWIDTH 13 0
BBX 12 13 0 -2
BITMAP
0600
0600
FFF0
0600
7FE0
4620
4620
7FE0
7E00
0600
0E00
1380
E070
ENDCHAR
STARTCHAR 5410
ENCODING 21520
SWIDTH 1040 0
DWIDTH 13 0
BBX 12 13 0 -2
BITMAP
0080
0080
F080
9080
9FF0
9080
9080
9080
9080
9080
9080
F080
0FF0
ENDCHAR
STARTCHAR 5411
ENCODING 21521
SWIDTH 1040 0
DWIDTH 13 0
BBX 12 13 0 -2
BITMAP
0300
0600
0800
FFF0
8010
8010
9F90
9090
9090
9090
9F90
8010
8070
ENDCHAR
STARTCHAR 541B
ENCODING 21531
SWIDTH 1040 0
DWIDTH 13 0
BBX 12 12 0 -2
BITMAP
3FE0
0620
FFF0
0620
0620
7FE0
0800
0FE0
3FE0
D020
1020
1FE0
ENDCHAR
STARTCHAR 541D
ENCODING 21533
SWIDTH 1040 0
DWIDTH 13 0
BBX 12 13 0 -2
BITMAP
0600
0600
FFF0
2040
1080
0F00
30C0
C030
FFF0
3FC0
2040
2040
3FC0
ENDCHAR
STARTCHAR 541F
ENCODING 21535
SWIDTH 1040 0
DWIDTH 13 0
BBX 12 12 0 -2
BITMAP
03E0
F610
9800
97F0
9000
9000
97F0
97F0
9010
9010
F020
00C0
ENDCHAR
STARTCHAR 5420
ENCODING 21536
SWIDTH 1040 0
DWIDTH 13 0
BBX 12 13 0 -2
BITMAP
0080
00A0
E090
A080
BFF0
A080
A080
A080
A3C0
A340
A340
E620
1810
ENDCHAR
STARTCHAR 5426
ENCODING 21542
SWIDTH 1040 0
DWIDTH 13 0
BBX 12 12 0 -2
BITMAP
FFF0
0300
0600
1E40
E620
0610
0600
07C0
3FC0
2040
2040
3FC0
ENDCHAR
STARTCHAR 5429
ENCODING 21545
SWIDTH 1040 0
DWIDTH 13 0
BBX 12 12 0 -2
BITMAP
06E0
E620
A820
A810
A010
AFF0
A620
A620
A620
A620
E820
08C0
ENDCHAR
STARTCHAR 542B
ENCODING 21547
SWIDTH 1040 0
DWIDTH 13 0
BBX 12 12 0 -2
BITMAP
1F80
2040
5FA0
8010
3FC0
0080
0300
03C0
3FC0
2040
2040
3FC0
ENDCHAR
STARTCHAR 542C
ENCODING 21548
SWIDTH 1040 0
DWIDTH 13 0
BBX 12 12 0 -2
BITMAP
0030
F7C0
9600
9600
97F0
9620
9620
9620
9620
9620
F820
0820
ENDCHAR
STARTCHAR 542D
ENCODING 21549
SWIDTH 1040 0
DWIDTH 13 0
BBX 12 13 0 -2
BITMAP
0080
0080
FFF0
9000
9000
97E0
9620
9620
9620
9620
9620
F820
0830
ENDCHAR
STARTCHAR 542E
ENCODING 21550
SWIDTH 1040 0
DWIDTH 13 0
BBX 12 13 0 -2
BITMAP
0300
0300
E620
A620
BFD0
A010
A640
A640
A640
A640
E650
0850
3070
ENDCHAR
STARTCHAR 5436
ENCODING 21558
SWIDTH 1040 0
DWIDTH 13 0
BBX 12 13 0 -2
BITMAP
0780
0080
EFF0
A890
A890
A890
AB50
AE30
A830
A810
A810
E810
0830
ENDCHAR
STARTCHAR 5438
ENCODING 21560
SWIDTH 1040 0
DWIDTH 13 0
BBX 12 12 0 -2
BITMAP
1FE0
E620
A640
A680
A6E0
A820
AB20
BBA0
B0A0
A040
E3A0
0E10
ENDCHAR
STARTCHAR 5439
ENCODING 21561
SWIDTH 1040 0
DWIDTH 13 0
BBX 12 13 0 -2
BITMAP
0600
0600
F7F0
9690
9890
90A0
9080
9080
93C0
9340
F340
0620
1810
ENDCHAR
STARTCHAR 543B
ENCODING 21563
SWIDTH 1040 0
DWIDTH 13 0
BBX 12 13 0 -2
BITMAP
0800
0800
EFF0
AB50
B350
A650
A690
A890
AB90
AB10
A310
E020
00C0
ENDCHAR
STARTCHAR 543C
ENCODING 21564
SWIDTH 1040 0
DWIDTH 13 0
BBX 12 12 0 -2
BITMAP
1FA0
E0A0
A320
A620
A620
A7A0
BE20
A620
A620
A620
E620
0E30
ENDCHAR
STARTCHAR 543D
ENCODING 21565
SWIDTH 1040 0
DWIDTH 13 0
BBX 12 13 0 -2
BITMAP
0040
0840
E840
AFF0
A840
A840
A040
BFF0
A040
A040
A040
E040
0040
ENDCHAR
STARTCHAR 543E
ENCODING 21566
SWIDTH 1040 0
DWIDTH 13 0
BBX 12 12 0 -2
BITMAP
FFF0
0600
3FC0
0840
0840
FFF0
0000
3FC0
3FC0
2040
2040
3FC0
ENDCHAR
STARTCHAR 5440
ENCODING 21568
SWIDTH 1040 0
DWIDTH 13 0
BBX 12 12 0 -2
BITMAP
07F0
F020
9620
9620
9620
97F0
90A0
90A0
90A0
F320
0620
1860
ENDCHAR
STARTCHAR 5442
ENCODING 21570
SWIDTH 1040 0
DWIDTH 13 0
BBX 11 12 1 -2
BITMAP
7FC0
4040
4040
4040
7FC0
0C00
FFE0
8020
8020
8020
8020
FFE0
ENDCHAR
STARTCHAR 5446
ENCODING 21574
SWIDTH 1040 0
DWIDTH 13 0
BBX 12 12 0 -2
BITMAP
3FC0
2040
2040
3FC0
0600
FFF0
0600
0600
0E00
36C0
C630
0600
ENDCHAR
STARTCHAR 5448
ENCODING 21576
SWIDTH 1040 0
DWIDTH 13 0
BBX 12 12 0 -2
BITMAP
3FC0
2040
2040
3FC0
0000
7FE0
0600
07C0
3FC0
0600
0600
FFF0
ENDCHAR
STARTCHAR 5449
ENCODING 21577
SWIDTH 1040 0
DWIDTH 13 0
BBX 12 12 0 -2
BITMAP
1FC0
5040
5040
5FC0
4000
7FC0
0040
0070
FFF0
0000
30C0
C030
ENDCHAR
STARTCHAR 544A
ENCODING 21578
SWIDTH 1040 0
DWIDTH 13 0
BBX 12 13 0 -2
BITMAP
0300
2300
2300
3FE0
4300
8300
FFF0
0000
3FE0
3FE0
2020
2020
3FE0
ENDCHAR
STARTCHAR 544E
ENCODING 21582
SWIDTH 1040 0
DWIDTH 13 0
BBX 12 12 0 -2
BITMAP
07F0
F610
9610
9610
97F0
9640
9640
9660
9620
9620
F810
0810
ENDCHAR
STARTCHAR 5451
ENCODING 21585
SWIDTH 1040 0
DWIDTH 13 0
BBX 12 12 0 -2
BITMAP
03E0
7E00
0600
FFF0
0880
1040
3FE0
2050
E050
2040
2040
3FC0
ENDCHAR
STARTCHAR 545F
ENCODING 21599
SWIDTH 1040 0
DWIDTH 13 0
BBX 12 13 0 -2
BITMAP
0080
0080
F7F0
9040
9080
9310
9620
9340
9380
9080
9310
F610
07F0
ENDCHAR
STARTCHAR 5468
ENCODING 21608
SWIDTH 1040 0
DWIDTH 13 0
BBX 12 12 0 -2
BITMAP
7FF0
4610
4610
5F90
4610
5FD0
4010
5F90
5F90
5090
9F90
8030
ENDCHAR
STARTCHAR 546A
ENCODING 21610
SWIDTH 1040 0
DWIDTH 13 0
BBX 12 12 0 -2
BITMAP
07F0
F610
9610
9610
97F0
9340
9340
9340
9340
9350
F650
1870
ENDCHAR
STARTCHAR 5470
ENCODING 21616
SWIDTH 1040 0
DWIDTH 13 0
BBX 12 13 0 -2
BITMAP
0300
2300
BB30
A3C0
A300
BF10
E0F0
0000
3FC0
3FC0
2040
2040
3FC0
ENDCHAR
STARTCHAR 5471
ENCODING 21617
SWIDTH 1040 0
DWIDTH 13 0
BBX 12 12 0 -2
BITMAP
0FF0
EB40
AB40
AB40
AB40
AB20
AB20
AB20
AB20
AB50
F7D0
1010
ENDCHAR
STARTCHAR 5473
ENCODING 21619
SWIDTH 1040 0
DWIDTH 13 0
BBX 12 13 0 -2
BITMAP
0080
0080
EFF0
A080
A080
BFF0
A080
A080
A0C0
A3C0
E6A0
1890
0080
ENDCHAR
STARTCHAR 5475
ENCODING 21621
SWIDTH 1040 0
DWIDTH 13 0
BBX 12 12 0 -2
BITMAP
1FF0
E020
A020
AF20
AB20
AB20
AB20
AB20
AF20
A020
E020
00E0
ENDCHAR
STARTCHAR 5476
ENCODING 21622
SWIDTH 1040 0
DWIDTH 13 0
BBX 12 13 0 -2
BITMAP
0800
08F0
E810
BF50
AB50
AB50
AB50
AB50
AF70
BE20
A7A0
E850
0890
ENDCHAR
STARTCHAR 5477
ENCODING 21623
SWIDTH 1040 0
DWIDTH 13 0
BBX 12 12 0 -2
BITMAP
0FF0
E890
A890
AFF0
A890
A890
AFF0
AF80
A080
A080
E080
0080
ENDCHAR
STARTCHAR 547B
ENCODING 21627
SWIDTH 1040 0
DWIDTH 13 0
BBX 12 13 0 -2
BITMAP
0080
0080
EFF0
A890
A890
AFF0
A890
A890
A890
AFF0
A080
E080
0080
ENDCHAR
STARTCHAR 547C
ENCODING 21628
SWIDTH 1040 0
DWIDTH 13 0
BBX 12 12 0 -2
BITMAP
0070
EF80
A080
A890
A6A0
A080
BFF0
A080
A080
A080
E080
0780
ENDCHAR
STARTCHAR 547D
ENCODING 21629
SWIDTH 1040 0
DWIDTH 13 0
BBX 12 12 0 -2
BITMAP
0F80
1040
2020
7FD0
8000
7BF0
4B10
4B10
4B10
4B10
7B70
0300
ENDCHAR
STARTCHAR 5480
ENCODING 21632
SWIDTH 1040 0
DWIDTH 13 0
BBX 12 12 0 -2
BITMAP
03F0
F310
9310
93F0
9310
9310
93F0
9310
9310
9310
F310
07F0
ENDCHAR
STARTCHAR 5484
ENCODING 21636
SWIDTH 1040 0
DWIDTH 13 0
BBX 12 13 0 -2
BITMAP
0080
0080
E890
A890
A890
AFF0
A080
A080
A890
A890
A890
E890
0FF0
ENDCHAR
STARTCHAR 5486
ENCODING 21638
SWIDTH 1040 0
DWIDTH 13 0
BBX 12 13 0 -2
BITMAP
0600
0600
F7F0
9810
97D0
9650
9650
97D0
9610
9630
9600
F610
03F0
ENDCHAR
STARTCHAR 548B
ENCODING 21643
SWIDTH 1040 0
DWIDTH 13 0
BBX 12 13 0 -2
BITMAP
0600
0600
F7F0
9680
9880
90F0
9080
9080
90F0
90F0
9080
F080
0080
ENDCHAR
STARTCHAR 548C
ENCODING 21644
SWIDTH 1040 0
DWIDTH 13 0
BBX 12 12 0 -2
BITMAP
0E00
F0F0
1090
1090
FF90
1090
1890
1690
3690
5390
9090
10F0
ENDCHAR
STARTCHAR 548E
ENCODING 21646
SWIDTH 1040 0
DWIDTH 13 0
BBX 12 13 0 -2
BITMAP
0080
7880
4880
4B40
B620
9810
2780
C070
C040
3FC0
2040
2040
3FC0
ENDCHAR
STARTCHAR 548F
ENCODING 21647
SWIDTH 1040 0
DWIDTH 13 0
BBX 12 13 0 -2
BITMAP
0080
0040
F000
97C0
9050
9F60
9340
9340
9760
9660
9650
F850
08C0
ENDCHAR
STARTCHAR 5490
ENCODING 21648
SWIDTH 1040 0
DWIDTH 13 0
BBX 12 13 0 -2
BITMAP
0020
0620
E620
ABF0
B820
A820
AB20
A8A0
A8A0
A820
A820
E820
0860
ENDCHAR
STARTCHAR 5492
ENCODING 21650
SWIDTH 1040 0
DWIDTH 13 0
BBX 12 12 0 -2
BITMAP
7BE0
4B20
4B20
7BE0
0000
1F80
1080
1080
1080
1090
2090
C070
ENDCHAR
STARTCHAR 54A2
ENCODING 21666
SWIDTH 1040 0
DWIDTH 13 0
BBX 12 12 0 -2
BITMAP
7BE0
4B20
7BE0
0000
7FE0
0000
FFF0
F000
1000
3FE0
2020
00C0
ENDCHAR
STARTCHAR 54A4
ENCODING 21668
SWIDTH 1040 0
DWIDTH 13 0
BBX 12 13 0 -2
BITMAP
0300
0300
FFF0
9010
90D0
9F00
9300
93F0
9300
9F00
9300
F310
03F0
ENDCHAR
STARTCHAR 54A5
ENCODING 21669
SWIDTH 1040 0
DWIDTH 13 0
BBX 12 12 0 -2
BITMAP
0FF0
F080
9300
9610
97F0
9040
9040
9070
97F0
9040
F040
0FF0
ENDCHAR
STARTCHAR 54A8
ENCODING 21672
SWIDTH 1040 0
DWIDTH 13 0
BBX 12 13 0 -2
BITMAP
0600
0600
E7F0
0890
08A0
2380
4640
8830
8FF0
3FC0
2040
2040
3FC0
ENDCHAR
STARTCHAR 54AB
ENCODING 21675
SWIDTH 1040 0
DWIDTH 13 0
BBX 12 12 0 -2
BITMAP
7EF0
4690
4690
4690
7EF0
5000
50A0
5930
4B10
4800
8700
80F0
ENDCHAR
STARTCHAR 54AC
ENCODING 21676
SWIDTH 1040 0
DWIDTH 13 0
BBX 12 13 0 -2
BITMAP
0080
0080
FFF0
9000
9620
9810
9000
9620
9740
9340
90C0
F320
0E10
ENDCHAR
STARTCHAR 54AF
ENCODING 21679
SWIDTH 1040 0
DWIDTH 13 0
BBX 12 13 0 -2
BITMAP
0600
0600
E7E0
A820
B640
A380
A640
B830
A820
AFE0
A820
E820
0FE0
ENDCHAR
STARTCHAR 54B2
ENCODING 21682
SWIDTH 1040 0
DWIDTH 13 0
BBX 12 13 0 -2
BITMAP
0820
0620
E040
AFF0
A080
A080
BFF0
A080
A080
A080
E340
0620
1810
ENDCHAR
STARTCHAR 54B3
ENCODING 21683
SWIDTH 1040 0
DWIDTH 13 0
BBX 12 13 0 -2
BITMAP
0080
0080
FFF0
9080
9310
9620
9340
9090
97A0
9720
9040
F3A0
0E10
ENDCHAR
STARTCHAR 54B8
ENCODING 21688
SWIDTH 1040 0
DWIDTH 13 0
BBX 12 13 0 -2
BITMAP
0040
0050
7FF0
4040
7F40
4040
5E50
5650
5670
5620
5E20
80D0
8710
ENDCHAR
STARTCHAR 54BC
ENCODING 21692
SWIDTH 1040 0
DWIDTH 13 0
BBX 12 12 0 -2
BITMAP
3FC0
2040
27C0
2640
2640
FFF0
8010
9F90
9F90
9090
9F90
8030
ENDCHAR
STARTCHAR 54BD
ENCODING 21693
SWIDTH 1040 0
DWIDTH 13 0
BBX 12 12 0 -2
BITMAP
0FF0
E890
A890
AFF0
A890
A890
A890
ABD0
AB50
AE30
E810
0FF0
ENDCHAR
STARTCHAR 54BE
ENCODING 21694
SWIDTH 1040 0
DWIDTH 13 0
BBX 12 13 0 -2
BITMAP
0300
0300
FFF0
9320
9340
9FF0
9300
9E60
9680
9780
9600
F610
07F0
ENDCHAR
STARTCHAR 54C0
ENCODING 21696
SWIDTH 1040 0
DWIDTH 13 0
BBX 12 13 0 -2
BITMAP
0600
0600
FFF0
0000
3FC0
2040
2040
3FC0
3610
1610
E320
20C0
7E30
ENDCHAR
STARTCHAR 54C1
ENCODING 21697
SWIDTH 1040 0
DWIDTH 13 0
BBX 12 12 0 -2
BITMAP
1F80
1080
1080
1080
1F80
0000
FBF0
8B10
8B10
8B10
8B10
FBF0
ENDCHAR
STARTCHAR 54C2
ENCODING 21698
SWIDTH 1040 0
DWIDTH 13 0
BBX 12 12 0 -2
BITMAP
0FF0
E340
A340
AFF0
AB50
AB50
AB50
AB50
AB70
AE10
E810
0FF0
ENDCHAR
STARTCHAR 54C4
ENCODING 21700
SWIDTH 1040 0
DWIDTH 13 0
BBX 12 13 0 -2
BITMAP
0640
0640
E640
BFF0
A640
A640
A640
BFF0
A000
A000
A640
E820
1010
ENDCHAR
STARTCHAR 54C7
ENCODING 21703
SWIDTH 1040 0
DWIDTH 13 0
BBX 12 13 0 -2
BITMAP
0080
0080
F7F0
9080
9080
9FF0
9080
9080
90F0
97F0
9080
F080
0FF0
ENDCHAR
STARTCHAR 54C8
ENCODING 21704
SWIDTH 1040 0
DWIDTH 13 0
BBX 12 12 0 -2
BITMAP
03E0
F610
9800
9000
97F0
9000
9000
97F0
97F0
9610
F610
07F0
ENDCHAR
STARTCHAR 54C9
ENCODING 21705
SWIDTH 1040 0
DWIDTH 13 0
BBX 12 13 0 -2
BITMAP
2080
20A0
F890
2080
27F0
F880
00A0
00A0
F8C0
F840
8840
88A0
FF10
ENDCHAR
STARTCHAR 54D8
ENCODING 21720
SWIDTH 1040 0
DWIDTH 13 0
BBX 12 12 0 -2
BITMAP
06F0
E800
B000
A300
A6F0
AE20
B620
A620
A620
A620
E620
0660
ENDCHAR
STARTCHAR 54E1
ENCODING 21729
SWIDTH 1040 0
DWIDTH 13 0
BBX 12 12 0 -2
BITMAP
7FE0
4020
7FE0
0000
7FE0
4020
7FE0
4020
4020
7FE0
2040
C030
ENDCHAR
STARTCHAR 54E2
ENCODING 21730
SWIDTH 1040 0
DWIDTH 13 0
BBX 12 12 0 -2
BITMAP
0FF0
F080
97F0
9080
9FF0
9320
9320
9330
9FF0
9320
F620
0620
ENDCHAR
STARTCHAR 54E5
ENCODING 21733
SWIDTH 1040 0
DWIDTH 13 0
BBX 12 12 0 -2
BITMAP
FFF0
2640
2640
3E40
0040
FFF0
0040
3E40
3E40
2640
3E40
00C0
ENDCHAR
STARTCHAR 54E6
ENCODING 21734
SWIDTH 1040 0
DWIDTH 13 0
BBX 12 13 0 -2
BITMAP
0040
1F50
E650
A640
A7F0
BE40
A650
A750
A670
BE20
A620
E6D0
0F10
ENDCHAR
STARTCHAR 54E8
ENCODING 21736
SWIDTH 1040 0
DWIDTH 13 0
BBX 12 13 0 -2
BITMAP
0080
0080
E890
A6A0
A080
AFF0
A810
AFF0
A810
A810
AFF0
E810
0830
ENDCHAR
STARTCHAR 54E9
ENCODING 21737
SWIDTH 1040 0
DWIDTH 13 0
BBX 12 12 0 -2
BITMAP
0FF0
E890
AFF0
A890
A890
AFF0
A080
A0F0
AFF0
A080
E080
0FF0
ENDCHAR
STARTCHAR 54ED
ENCODING 21741
SWIDTH 1040 0
DWIDTH 13 0
BBX 12 12 0 -2
BITMAP
7BE0
4B20
4B20
7BE0
0640
0620
FFF0
FE00
0600
0B00
30C0
C030
ENDCHAR
STARTCHAR 54EE
ENCODING 21742
SWIDTH 1040 0
DWIDTH 13 0
BBX 12 13 0 -2
BITMAP
0080
0080
F7F0
9090
90A0
9FF0
9300
96E0
98E0
9820
97F0
F040
03C0
ENDCHAR
STARTCHAR 54F2
ENCODING 21746
SWIDTH 1040 0
DWIDTH 13 0
BBX 12 13 0 -2
BITMAP
2000
23F0
FB00
23F0
3B20
E620
2620
0000
3FE0
3FE0
2020
2020
3FE0
ENDCHAR
STARTCHAR 54FA
ENCODING 21754
SWIDTH 1040 0
DWIDTH 13 0
BBX 12 13 0 -2
BITMAP
0080
0090
EFF0
A080
AFF0
A890
AFF0
A890
A890
AFF0
A890
E890
08B0
ENDCHAR
STARTCHAR 54FD
ENCODING 21757
SWIDTH 1040 0
DWIDTH 13 0
BBX 12 12 0 -2
BITMAP
1FF0
E080
AFF0
A890
AFF0
A890
AFF0
AE80
A680
A380
E640
1830
ENDCHAR
STARTCHAR 5504
ENCODING 21764
SWIDTH 1040 0
DWIDTH 13 0
BBX 12 12 0 -2
BITMAP
07F0
F610
97F0
9610
97F0
9610
9610
9610
97F0
F000
0620
0810
ENDCHAR
STARTCHAR 5506
ENCODING 21766
SWIDTH 1040 0
DWIDTH 13 0
BBX 12 13 0 -2
BITMAP
0300
0320
E620
BFF0
A340
A350
AE30
A3E0
AFE0
AE20
A640
E3C0
1E30
ENDCHAR
STARTCHAR 5507
ENCODING 21767
SWIDTH 1040 0
DWIDTH 13 0
BBX 12 12 0 -2
BITMAP
7FF0
4000
7FF0
5320
90C0
BE30
0000
3FE0
3FE0
2020
2020
3FE0
ENDCHAR
STARTCHAR 550F
ENCODING 21775
SWIDTH 1040 0
DWIDTH 13 0
BBX 12 12 0 -2
BITMAP
0730
F0C0
9720
9080
9FF0
9300
97F0
9690
9E90
9690
F6B0
0080
ENDCHAR
STARTCHAR 5510
ENCODING 21776
SWIDTH 1040 0
DWIDTH 13 0
BBX 12 13 0 -2
BITMAP
0300
0300
7FF0
4310
7FF0
4310
5FF0
4000
5FE0
5FE0
9020
9020
1FE0
ENDCHAR
STARTCHAR 5514
ENCODING 21780
SWIDTH 1040 0
DWIDTH 13 0
BBX 12 12 0 -2
BITMAP
0FF0
F080
97F0
9310
9310
9FF0
9000
97F0
97F0
9610
F610
07F0
ENDCHAR
STARTCHAR 5516
ENCODING 21782
SWIDTH 1040 0
DWIDTH 13 0
BBX 12 12 0 -2
BITMAP
1FF0
E340
A340
AFF0
AB50
AB50
AB50
AB50
AFF0
A340
E340
1FF0
ENDCHAR
STARTCHAR 552E
ENCODING 21806
SWIDTH 1040 0
DWIDTH 13 0
BBX 12 13 0 -2
BITMAP
1080
1080
3FF0
6300
BFE0
2300
3FE0
2300
23F0
3FF0
2020
2020
3FE0
ENDCHAR
STARTCHAR 552F
ENCODING 21807
SWIDTH 1040 0
DWIDTH 13 0
BBX 12 13 0 -2
BITMAP
0300
0320
F320
97F0
9640
9FF0
9640
9640
9670
97F0
9640
F640
07F0
ENDCHAR
STARTCHAR 5531
ENCODING 21809
SWIDTH 1040 0
DWIDTH 13 0
BBX 12 12 0 -2
BITMAP
07E0
F620
97E0
9620
97E0
9000
9FF0
9010
9010
9FF0
F010
1FF0
ENDCHAR
STARTCHAR 5533
ENCODING 21811
SWIDTH 1040 0
DWIDTH 13 0
BBX 12 12 0 -2
BITMAP
0FF0
E000
AFF0
A810
AFF0
A880
AFF0
A880
A880
A8C0
E320
0E10
ENDCHAR
STARTCHAR 5538
ENCODING 21816
SWIDTH 1040 0
DWIDTH 13 0
BBX 12 12 0 -2
BITMAP
07C0
E820
B010
AFE0
A000
AFE0
A020
A340
A340
A880
E820
27D0
ENDCHAR
STARTCHAR 5539
ENCODING 21817
SWIDTH 1040 0
DWIDTH 13 0
BBX 12 13 0 -2
BITMAP
0800
0860
E890
BF00
A800
A8C0
AF30
B300
A300
A300
A300
E6C0
1830
ENDCHAR
STARTCHAR 553E
ENCODING 21822
SWIDTH 1040 0
DWIDTH 13 0
BBX 12 12 0 -2
BITMAP
0FF0
E080
BFF0
A890
BFF0
A890
A890
A890
BFF0
A080
E080
0FF0
ENDCHAR
STARTCHAR 5540
ENCODING 21824
SWIDTH 1040 0
DWIDTH 13 0
BBX 12 12 0 -2
BITMAP
0FF0
E840
ABF0
A840
A840
AFF0
A840
A870
ABF0
A840
F040
17F0
ENDCHAR
STARTCHAR 5544
ENCODING 21828
SWIDTH 1040 0
DWIDTH 13 0
BBX 12 12 0 -2
BITMAP
1FF0
E080
A380
AE50
A0E0
A740
B840
A060
A0E0
A750
F850
0380
ENDCHAR
STARTCHAR 5545
ENCODING 21829
SWIDTH 1040 0
DWIDTH 13 0
BBX 12 13 0 -2
BITMAP
0080
0080
F0F0
9080
97F0
9610
97F0
9610
9610
97F0
9080
FFF0
0080
ENDCHAR
STARTCHAR 5546
ENCODING 21830
SWIDTH 1040 0
DWIDTH 13 0
BBX 12 13 0 -2
BITMAP
0600
0600
FFF0
1080
1080
FFF0
9090
A090
C090
DFF0
9090
9090
9FB0
ENDCHAR
STARTCHAR 554C
ENCODING 21836
SWIDTH 1040 0
DWIDTH 13 0
BBX 12 13 0 -2
BITMAP
0080
0080
FFF0
9350
9340
9350
9E70
9000
97E0
97E0
9080
F080
0FF0
ENDCHAR
STARTCHAR 554F
ENCODING 21839
SWIDTH 1040 0
DWIDTH 13 0
BBX 12 12 0 -2
BITMAP
FBF0
8B10
FBF0
8B10
FBF0
8010
8010
9F90
9F90
9090
9090
9FB0
ENDCHAR
STARTCHAR 5553
ENCODING 21843
SWIDTH 1040 0
DWIDTH 13 0
BBX 12 13 0 -2
BITMAP
0300
FB00
03F0
7F20
4B20
78C0
8730
8000
BFC0
3FC0
2040
2040
3FC0
ENDCHAR
STARTCHAR 5556
ENCODING 21846
SWIDTH 1040 0
DWIDTH 13 0
BBX 12 12 0 -2
BITMAP
0890
E8A0
A080
A340
AE30
A080
A890
A8A0
A8A0
A380
E640
1830
ENDCHAR
STARTCHAR 5557
ENCODING 21847
SWIDTH 1040 0
DWIDTH 13 0
BBX 12 12 0 -2
BITMAP
03E0
F620
9840
9080
9730
9610
9610
9710
9770
9610
F610
07F0
ENDCHAR
STARTCHAR 555C
ENCODING 21852
SWIDTH 1040 0
DWIDTH 13 0
BBX 12 12 0 -2
BITMAP
0F70
E310
AB50
A620
AB50
A000
AF70
AF70
A310
AB50
E620
0B50
ENDCHAR
STARTCHAR 555D
ENCODING 21853
SWIDTH 1040 0
DWIDTH 13 0
BBX 12 12 0 -2
BITMAP
03F0
FE50
A650
A650
BFD0
A650
A650
A750
A750
AEF0
F640
2630
ENDCHAR
STARTCHAR 5563
ENCODING 21859
SWIDTH 1040 0
DWIDTH 13 0
BBX 12 13 0 -2
BITMAP
0800
0870
EFD0
B650
A650
BFD0
A650
A750
B650
9650
9670
F7C0
1840
ENDCHAR
STARTCHAR 557B
ENCODING 21883
SWIDTH 1040 0
DWIDTH 13 0
BBX 12 13 0 -2
BITMAP
0600
0600
FFF0
1080
FFF0
8610
BFD0
2640
2640
0600
7FE0
4020
7FE0
ENDCHAR
STARTCHAR 557C
ENCODING 21884
SWIDTH 1040 0
DWIDTH 13 0
BBX 12 13 0 -2
BITMAP
0080
0080
FFF0
A640
A640
BFF0
A090
AFF0
A890
A890
A890
E8B0
0080
ENDCHAR
STARTCHAR 557E
ENCODING 21886
SWIDTH 1040 0
DWIDTH 13 0
BBX 12 13 0 -2
BITMAP
0040
03C0
FE40
A650
A650
BFD0
A640
A660
A6E0
AEA0
B6A0
E710
0610
ENDCHAR
STARTCHAR 5580
ENCODING 21888
SWIDTH 1040 0
DWIDTH 13 0
BBX 12 13 0 -2
BITMAP
0300
0300
FFF0
A650
A650
A380
A640
B830
A820
AFE0
A820
E820
0FE0
ENDCHAR
STARTCHAR 5583
ENCODING 21891
SWIDTH 1040 0
DWIDTH 13 0
BBX 12 13 0 -2
BITMAP
0080
0080
EFF0
A080
AFF0
AB50
AB50
AFF0
A890
A890
AFF0
E890
08B0
ENDCHAR
STARTCHAR 5584
ENCODING 21892
SWIDTH 1040 0
DWIDTH 13 0
BBX 12 13 0 -2
BITMAP
1040
1080
FFF0
0600
3FC0
0600
7FE0
2640
2670
FFF0
2040
2040
3FC0
ENDCHAR
STARTCHAR 5587
ENCODING 21895
SWIDTH 1040 0
DWIDTH 13 0
BBX 12 13 0 -2
BITMAP
0800
0810
FFD0
A850
BF50
AB50
AB50
BF50
A850
A850
BE10
EB90
0830
ENDCHAR
STARTCHAR 5589
ENCODING 21897
SWIDTH 1040 0
DWIDTH 13 0
BBX 12 12 0 -2
BITMAP
0BE0
E820
A820
AFF0
BB00
ABF0
AE40
A870
ABF0
A840
E8A0
0F10
ENDCHAR
STARTCHAR 558A
ENCODING 21898
SWIDTH 1040 0
DWIDTH 13 0
BBX 12 13 0 -2
BITMAP
0040
0050
EFF0
A840
AFC0
A850
AF50
AB50
AB70
AF20
A820
F0D0
1710
ENDCHAR
STARTCHAR 558B
ENCODING 21899
SWIDTH 1040 0
DWIDTH 13 0
BBX 12 13 0 -2
BITMAP
0300
0B20
FFF0
AB20
ABE0
A800
AFF0
A080
A0F0
BFF0
A380
E6A0
1890
ENDCHAR
STARTCHAR 5598
ENCODING 21912
SWIDTH 1040 0
DWIDTH 13 0
BBX 12 13 0 -2
BITMAP
0080
0890
E890
AFF0
A000
AFF0
A080
AFF0
AB50
AB50
AB50
EB50
0830
ENDCHAR
STARTCHAR 5599
ENCODING 21913
SWIDTH 1040 0
DWIDTH 13 0
BBX 12 12 0 -2
BITMAP
07F0
E620
AFE0
A840
AFF0
A340
AE50
AE60
A0E0
A750
F850
0380
ENDCHAR
STARTCHAR 559A
ENCODING 21914
SWIDTH 1040 0
DWIDTH 13 0
BBX 12 12 0 -2
BITMAP
07E0
E840
BFF0
AB50
AB50
AE70
A890
A890
BFF0
A340
E620
1810
ENDCHAR
STARTCHAR 559C
ENCODING 21916
SWIDTH 1040 0
DWIDTH 13 0
BBX 12 13 0 -2
BITMAP
0600
0600
FFF0
0600
7FE0
2040
3FC0
1080
10F0
FFF0
2040
2040
3FC0
ENDCHAR
STARTCHAR 559D
ENCODING 21917
SWIDTH 1040 0
DWIDTH 13 0
BBX 12 12 0 -2
BITMAP
0FE0
E820
AFE0
A820
AFE0
A600
AFF0
A810
B810
A890
EF90
0060
ENDCHAR
STARTCHAR 559E
ENCODING 21918
SWIDTH 1040 0
DWIDTH 13 0
BBX 12 13 0 -2
BITMAP
0600
0870
FF50
9350
9F50
9350
9F50
9050
9F50
9F50
9050
FF70
1040
ENDCHAR
STARTCHAR 559F
ENCODING 21919
SWIDTH 1040 0
DWIDTH 13 0
BBX 12 12 0 -2
BITMAP
0FF0
E890
AFF0
A890
AFF0
A620
A7E0
A620
A620
A7E0
E620
0660
ENDCHAR
STARTCHAR 55A7
ENCODING 21927
SWIDTH 1040 0
DWIDTH 13 0
BBX 12 13 0 -2
BITMAP
0300
0300
FFF0
A010
AFE0
A820
AFE0
A820
A820
A820
AFE0
E000
1FF0
ENDCHAR
ENDFONT
